SplineFontDB: 3.0
FontName: Quicksand-LightItalic
FullName: Quicksand Light Italic
FamilyName: Quicksand
Weight: Light
Copyright: Copyright (c) 2011, Andrew Paglinawan (www.andrewpaglinawan.com), with Reserved Font Name "Quicksand".
Version: 001.001
ItalicAngle: -12
UnderlinePosition: -50
UnderlineWidth: 50
Ascent: 800
Descent: 200
LayerCount: 2
Layer: 0 0 "Back"  1
Layer: 1 0 "Fore"  0
NeedsXUIDChange: 1
FSType: 0
OS2Version: 0
OS2_WeightWidthSlopeOnly: 0
OS2_UseTypoMetrics: 0
CreationTime: 1318372931
ModificationTime: 1318373108
OS2TypoAscent: 0
OS2TypoAOffset: 1
OS2TypoDescent: 0
OS2TypoDOffset: 1
OS2TypoLinegap: 0
OS2WinAscent: 0
OS2WinAOffset: 1
OS2WinDescent: 0
OS2WinDOffset: 1
HheadAscent: 0
HheadAOffset: 1
HheadDescent: 0
HheadDOffset: 1
OS2Vendor: 'PfEd'
MarkAttachClasses: 1
DEI: 91125
GaspTable: 1 65535 15
Encoding: Custom
UnicodeInterp: none
NameList: Adobe Glyph List
DisplaySize: -48
AntiAlias: 1
FitToEm: 1
WinInfo: 25 25 10
BeginPrivate: 6
StdHW 4 [25]
StemSnapH 5 [25 ]
StdVW 4 [25]
StemSnapV 29 [24 25 26 30 44 105 110 117 ]
BlueValues 21 [0 0 498 498 700 701]
OtherBlues 11 [-214 -214]
EndPrivate
BeginChars: 273 176

StartChar: B
Encoding: 66 66 0
Width: 594
Flags: W
HStem: -2 25<115 324 132 324 132 324> 361 27<197 343 197 388 192 343> 672 26<247 247 247 397>
VStem: 515 25<554.667 557> 528 25<194.91 224>
LayerCount: 2
Fore
SplineSet
115 -2 m 1xe8
 107 -0.6669921875 103.666992188 4 105 12 c 2
 224 687 l 2
 225.333007812 695 230 698.333007812 238 697 c 1
 239 698 l 1
 397 698 l 2
 439.666992188 698 474.166992188 684.5 500.5 657.5 c 0
 526.833007812 630.5 540 597 540 557 c 0xf0
 540 551 539.333007812 541.333007812 538 528 c 1
 532 496.666992188 519 468.166992188 499 442.5 c 0
 479 416.833007812 454.666992188 397 426 383 c 1
 457.333007812 376.333007812 484.333007812 362 507 340 c 0
 537.666992188 309.333007812 553 270.666992188 553 224 c 0
 553 157.616210938 525.333007812 100.94921875 470 54 c 0
 426 16.6669921875 377.333007812 -2 324 -2 c 2
 115 -2 l 1xe8
528 224 m 0
 527.333007812 264 514.166992188 296.833007812 488.5 322.5 c 0
 462.833007812 348.166992188 429.333007812 361 388 361 c 2
 192 361 l 1
 132 23 l 1
 324 23 l 2
 370.666992188 23 413.833007812 39.8330078125 453.5 73.5 c 0
 503.166992188 115.654296875 528 165.8203125 528 224 c 0
247 672 m 1
 197 388 l 1
 343 388 l 2
 382.333007812 387.333007812 418.666992188 401.333007812 452 430 c 0
 485.333007812 458.666992188 505.666992188 492.666992188 513 532 c 0
 514.333007812 544 515 552.333007812 515 557 c 0xf0
 514.333007812 590.333007812 503.166992188 617.833007812 481.5 639.5 c 0
 459.833007812 661.166992188 431.666992188 672 397 672 c 2
 247 672 l 1
EndSplineSet
EndChar

StartChar: C
Encoding: 67 67 1
Width: 719
Flags: MW
HStem: -2 25<335.333 415.667 335.333 417.333> 672 26<497 536.333>
VStem: 73 25<251.667 298.333 251.667 301.333>
LayerCount: 2
Fore
SplineSet
613 73 m 0
 539.666992188 23 460.166992188 -2 374.5 -2 c 0
 288.833007812 -2 216.666992188 25.6669921875 158 81 c 1
 101.333007812 136.333007812 73 206 73 290 c 0
 73 312.666992188 74.6669921875 332.666992188 78 350 c 0
 94.6669921875 446 143.833007812 527.833007812 225.5 595.5 c 0
 307.166992188 663.166992188 397.666992188 697.333007812 497 698 c 0
 581 698 651.333007812 672.333007812 708 621 c 0
 714.666992188 615 715.166992188 608.833007812 709.5 602.5 c 0
 703.833007812 596.166992188 697.666992188 596 691 602 c 0
 640.333007812 648.666992188 575.666992188 672 497 672 c 0
 404.333007812 672.666992188 319.333007812 640.833007812 242 576.5 c 0
 164.666992188 512.166992188 118.333007812 435 103 345 c 0
 99.6669921875 325 98 306.666992188 98 290 c 0
 98 213.333007812 124.166992188 149.666992188 176.5 99 c 0
 228.833007812 48.3330078125 295.166992188 23 375.5 23 c 0
 455.833007812 23 530.333007812 46.6669921875 599 94 c 0
 605.666992188 98.6669921875 611.666992188 97.6669921875 617 91 c 0
 621.666992188 83.6669921875 620.333007812 77.6669921875 613 73 c 0
EndSplineSet
EndChar

StartChar: D
Encoding: 68 68 2
Width: 719
Flags: W
HStem: -2 25<116 253 133 253 133 253> 672 26<248 248 248 372> 677 20G<233.667 237>
VStem: 642 26<396.667 445>
LayerCount: 2
Fore
SplineSet
116 -2 m 2xd0
 112.666992188 -1.3330078125 109.833007812 0.5 107.5 3.5 c 0
 105.166992188 6.5 104.666992188 9.3330078125 106 12 c 2
 224 687 l 2
 226 693.666992188 230.333007812 697 237 697 c 1xb0
 237 697.666992188 237.333007812 698 238 698 c 2
 372 698 l 2
 456.666992188 698 527.166992188 670.166992188 583.5 614.5 c 0
 639.833007812 558.833007812 668 489.666992188 668 407 c 0
 668 386.333007812 666 365.666992188 662 345 c 0
 644.666992188 249 596.333007812 167.166992188 517 99.5 c 0
 437.666992188 31.8330078125 349.666992188 -2 253 -2 c 2
 116 -2 l 2xd0
248 672 m 1
 133 23 l 1
 253 23 l 2
 342.333007812 23 424.833007812 55 500.5 119 c 0
 576.166992188 183 621.666992188 260 637 350 c 0
 640.333007812 366 642 385 642 407 c 0
 642 483 616.833007812 546.166992188 566.5 596.5 c 0
 516.166992188 646.833007812 451.333007812 672 372 672 c 2
 248 672 l 1
EndSplineSet
EndChar

StartChar: E
Encoding: 69 69 3
Width: 593
Flags: MW
HStem: 1 25<115 491 133 491 133 491> 338 25<192 507 192 507 188 507> 675 26<247 610 247 247>
LayerCount: 2
Fore
SplineSet
115 1 m 1
 107 2.3330078125 103.666992188 7 105 15 c 2
 224 690 l 2
 225.333007812 698 230 701.333007812 238 700 c 1
 238 700.666992188 238.333007812 701 239 701 c 2
 610 701 l 2
 618.666992188 701 623 696.666992188 623 688 c 0
 623 679.333007812 618.666992188 675 610 675 c 2
 247 675 l 1
 192 363 l 1
 507 363 l 2
 515.666992188 363 520 358.833007812 520 350.5 c 0
 520 342.166992188 515.666992188 338 507 338 c 2
 188 338 l 1
 133 26 l 1
 491 26 l 2
 499.666992188 26 504 21.8330078125 504 13.5 c 0
 504 5.1669921875 499.666992188 1 491 1 c 2
 115 1 l 1
EndSplineSet
EndChar

StartChar: F
Encoding: 70 70 4
Width: 600
Flags: MW
HStem: -1 21G<116 116 116 118> 336 25<193 508 193 508 188 508> 673 26<248 610 248 248>
LayerCount: 2
Fore
SplineSet
116 -1 m 1
 107.333007812 0.3330078125 103.666992188 5 105 13 c 2
 224 688 l 2
 226 696 230.666992188 699.333007812 238 698 c 1
 239 699 l 1
 610 699 l 2
 618.666992188 699 623 694.666992188 623 686 c 0
 623 677.333007812 618.666992188 673 610 673 c 2
 248 673 l 1
 193 361 l 1
 508 361 l 2
 516 361 520 356.833007812 520 348.5 c 0
 520 340.166992188 516 336 508 336 c 2
 188 336 l 1
 130 9 l 2
 128.666992188 2.3330078125 124.666992188 -1 118 -1 c 2
 116 -1 l 1
EndSplineSet
EndChar

StartChar: G
Encoding: 71 71 5
Width: 800
Flags: MW
HStem: 0 25<334.667 414.333 334.667 417.667> 322 25<425 653 429 636> 674 26<497 536>
VStem: 73 26<253.667 301.333>
LayerCount: 2
Fore
SplineSet
614 75 m 0
 540.666992188 25 460.833007812 0 374.5 0 c 0
 288.166992188 0 216.333007812 27.8330078125 159 83.5 c 0
 101.666992188 139.166992188 73 208.666992188 73 292 c 0
 73 310.666992188 75 330.666992188 79 352 c 0
 90.3330078125 415.333007812 116.5 473.666992188 157.5 527 c 0
 198.5 580.333007812 249 622.5 309 653.5 c 0
 369 684.5 431.666992188 700 497 700 c 0
 580.333007812 700 651 674.333007812 709 623 c 0
 715 617 715.333007812 611 710 605 c 0
 703.333007812 599 697.333007812 598.666992188 692 604 c 0
 640 650.666992188 575 674 497 674 c 0
 404.333007812 674.666992188 319.5 642.833007812 242.5 578.5 c 0
 165.5 514.166992188 119.333007812 437 104 347 c 0
 100.666992188 331.666992188 99 313.333007812 99 292 c 0
 99 215.333007812 125 151.666992188 177 101 c 0
 229 50.3330078125 294.833007812 25 374.5 25 c 0
 454.166992188 25 528 48 596 94 c 1
 636 322 l 1
 429 322 l 2
 421 322 417 326.166992188 417 334.5 c 0
 417 342.833007812 421 347 429 347 c 2
 653 347 l 1
 661.666992188 345.666992188 665.333007812 340.666992188 664 332 c 2
 620 85 l 2
 620 84.3330078125 619.333007812 82.6669921875 618 80 c 0
 616.666992188 77.3330078125 615.333007812 75.6669921875 614 75 c 0
EndSplineSet
EndChar

StartChar: H
Encoding: 72 72 6
Width: 760
Flags: MW
HStem: -1 21G<115 115 115 117 538 538 538 540> 336 26<192 585 187 587>
LayerCount: 2
Fore
SplineSet
115 -1 m 1
 107 1 103.666992188 6 105 14 c 2
 224 689 l 2
 225.333007812 697 230.166992188 700.333007812 238.5 699 c 0
 246.833007812 697.666992188 250.333007812 692.666992188 249 684 c 2
 192 362 l 1
 587 362 l 1
 589 361 l 1
 647 689 l 2
 648.333007812 697 653.166992188 700.333007812 661.5 699 c 0
 669.833007812 697.666992188 673.333007812 692.666992188 672 684 c 2
 553 10 l 2
 551.666992188 2.6669921875 547.333007812 -1 540 -1 c 2
 538 -1 l 1
 530 1 526.666992188 6 528 14 c 2
 585 336 l 1
 187 336 l 1
 130 10 l 2
 128.666992188 2.6669921875 124.333007812 -1 117 -1 c 2
 115 -1 l 1
EndSplineSet
EndChar

StartChar: I
Encoding: 73 73 7
Width: 305
Flags: MW
HStem: -1 21G<122 122 122 124>
LayerCount: 2
Fore
SplineSet
122 -1 m 1
 114 1 110.666992188 6 112 14 c 2
 231 689 l 2
 232.333007812 697 237.166992188 700.333007812 245.5 699 c 0
 253.833007812 697.666992188 257.333007812 692.666992188 256 684 c 2
 137 10 l 2
 135.666992188 2.6669921875 131.333007812 -1 124 -1 c 2
 122 -1 l 1
EndSplineSet
EndChar

StartChar: J
Encoding: 74 74 8
Width: 594
Flags: MW
HStem: 0 26<216 238 238 239>
LayerCount: 2
Fore
SplineSet
68 168 m 0
 74 126 92.5 91.8330078125 123.5 65.5 c 0
 154.5 39.1669921875 193 26 239 26 c 0
 296.333007812 25.3330078125 349.333007812 45.6669921875 398 87 c 0
 446.666992188 128.333007812 476 178 486 236 c 2
 566 690 l 2
 567.333007812 698 572.166992188 701.333007812 580.5 700 c 0
 588.833007812 698.666992188 592.333007812 693.666992188 591 685 c 2
 511 231 l 2
 499.666992188 167 467.666992188 112.666992188 415 68 c 0
 362.333007812 23.3330078125 303.666992188 0.6669921875 239 0 c 2
 238 0 l 2
 186.666992188 0 143 15.5 107 46.5 c 0
 71 77.5 49.6669921875 116.666992188 43 164 c 0
 41.6669921875 172.666992188 45.1669921875 177.666992188 53.5 179 c 0
 61.8330078125 180.333007812 66.6669921875 176.666992188 68 168 c 0
EndSplineSet
EndChar

StartChar: K
Encoding: 75 75 9
Width: 715
Flags: MW
HStem: 1 21G<116 118 116 116 615.333 618.667>
LayerCount: 2
Fore
SplineSet
224 691 m 2
 226 699 229.833007812 702.5 235.5 701.5 c 0
 246.189453125 699.61328125 250.689453125 694.447265625 249 686 c 2
 170 237 l 1
 712 698 l 2
 718.666992188 704 724.833007812 703.666992188 730.5 697 c 0
 736.166992188 690.333007812 735.666992188 684.333007812 729 679 c 2
 390 391 l 1
 630 21 l 2
 634 13.6669921875 633.666992188 8.5 629 5.5 c 0
 624.333007812 2.5 620.333007812 1 617 1 c 0
 613.666992188 1 610.666992188 3 608 7 c 2
 370 374 l 1
 167 202 l 1
 164 199 l 1
 130 12 l 2
 128.666992188 4.6669921875 124.666992188 1 118 1 c 2
 116 1 l 1
 107.333007812 3.6669921875 103.666992188 8.6669921875 105 16 c 2
 224 691 l 2
EndSplineSet
EndChar

StartChar: L
Encoding: 76 76 10
Width: 619
Flags: MW
HStem: 2 25<133 491 133 491 116 491>
LayerCount: 2
Fore
SplineSet
224 692 m 2
 225.333007812 700 230.166992188 703.333007812 238.5 702 c 0
 246.833007812 700.666992188 250.333007812 695.666992188 249 687 c 2
 133 27 l 1
 491 27 l 2
 499.666992188 27 504 22.8330078125 504 14.5 c 0
 504 6.1669921875 499.666992188 2 491 2 c 2
 116 2 l 1
 107.333007812 4.6669921875 103.666992188 9.6669921875 105 17 c 2
 224 692 l 2
EndSplineSet
EndChar

StartChar: M
Encoding: 77 77 11
Width: 868
Flags: MW
HStem: -2 21G<116 118 116 116 677 677 677 680> 678 20G<237 239 239 241.667 798 801 801 801>
LayerCount: 2
Fore
SplineSet
451 288 m 2
 448 288 l 2
 442.666992188 288 439 290 437 294 c 2
 244 650 l 1
 130 9 l 2
 128.666992188 1.6669921875 124.666992188 -2 118 -2 c 2
 116 -2 l 1
 107.333007812 0.6669921875 103.666992188 5.6669921875 105 13 c 2
 224 688 l 2
 226 694.666992188 230.333007812 698 237 698 c 2
 239 698 l 2
 244.333007812 698 248 696 250 692 c 2
 452 320 l 1
 787 694 l 2
 789.666992188 696.666992188 793.333007812 698 798 698 c 2
 801 698 l 1
 809 696.666992188 812.333007812 691.666992188 811 683 c 2
 692 9 l 2
 690.666992188 1.6669921875 686.666992188 -2 680 -2 c 2
 677 -2 l 1
 669 0 665.666992188 5 667 13 c 2
 779 647 l 1
 461 292 l 2
 458.333007812 289.333007812 455 288 451 288 c 2
EndSplineSet
EndChar

StartChar: N
Encoding: 78 78 12
Width: 790
Flags: MW
HStem: 2 21G<116 118 116 116 602 605 602 602>
LayerCount: 2
Fore
SplineSet
106 17 m 2
 224 688 l 2
 224 692.77734375 226.333007812 697.111328125 231 701 c 1
 239 705 244.666992188 703.333007812 248 696 c 2
 598 52 l 1
 710 688 l 2
 712 696 715.833007812 699.5 721.5 698.5 c 0
 732.434570312 696.5703125 736.934570312 691.737304688 735 684 c 2
 617 13 l 2
 615.666992188 5.6669921875 611.666992188 2 605 2 c 2
 602 2 l 2
 598.666992188 2.6669921875 596.166992188 4.1669921875 594.5 6.5 c 0
 592.833007812 8.8330078125 592 10.3330078125 592 11 c 0
 592 11.6669921875 591.666992188 12 591 12 c 2
 243 652 l 1
 130 13 l 2
 128.666992188 5.6669921875 124.666992188 2 118 2 c 2
 116 2 l 1
 107.333007812 4.6669921875 104 9.6669921875 106 17 c 2
EndSplineSet
EndChar

StartChar: O
Encoding: 79 79 13
Width: 850
Flags: MW
HStem: -1 25<308.667 391> 674 25<425 467 467 468>
VStem: 73 25<287 296.5 287 297.333> 719 25<403.333 449.667>
LayerCount: 2
Fore
SplineSet
218.5 597.5 m 0
 294.166992188 665.166992188 375 699 461 699 c 0
 547 699 615.666992188 671.333007812 667 616 c 1
 718.333007812 562.666992188 744 494.666992188 744 412 c 0
 744 386.666992188 742.333007812 365 739 347 c 0
 721.666992188 251 675.166992188 169.166992188 599.5 101.5 c 0
 523.833007812 33.8330078125 440.333007812 -0.3330078125 349 -1 c 0
 268.333007812 -1 202.166992188 26.1669921875 150.5 80.5 c 0
 98.8330078125 134.833007812 73 203.666992188 73 287 c 0
 73 307.666992188 75 329 79 351 c 0
 96.3330078125 447.666992188 142.833007812 529.833007812 218.5 597.5 c 0
714 351 m 0
 717.333007812 374.333007812 719 394.666992188 719 412 c 0
 719 487.333007812 695.5 549.666992188 648.5 599 c 0
 601.5 648.333007812 541.333007812 673.333007812 468 674 c 2
 467 674 l 2
 383 674 305.333007812 642 234 578 c 0
 162.666992188 514 119.333007812 437 104 347 c 0
 100 326 98 306 98 287 c 0
 98.6669921875 211 122.333007812 148.333007812 169 99 c 0
 215.666992188 49.6669921875 275.666992188 24.6669921875 349 24 c 0
 433 24 510.833007812 56 582.5 120 c 0
 654.166992188 184 698 261 714 351 c 0
EndSplineSet
EndChar

StartChar: P
Encoding: 80 80 14
Width: 583
Flags: MW
HStem: 2 21G<116 116 116 118> 313 25<188 378 188 378 183 378> 676 26<248 248 248 442>
VStem: 582 25<509.91 539>
LayerCount: 2
Fore
SplineSet
116 2 m 2
 112.666992188 2.6669921875 110 4.5 108 7.5 c 0
 106 10.5 105.333007812 13.6669921875 106 17 c 2
 225 691 l 2
 226.333007812 699 230.333007812 702.333007812 237 701 c 1
 238 702 l 1
 442 702 l 2
 488.666992188 702 527.833007812 686.5 559.5 655.5 c 0
 591.166992188 624.5 607 585.666992188 607 539 c 0
 607 472.616210938 579.333007812 415.94921875 524 369 c 0
 480 331.666992188 431.333007812 313 378 313 c 2
 183 313 l 1
 131 12 l 2
 129 5.3330078125 124.666992188 2 118 2 c 2
 116 2 l 2
248 676 m 1
 188 338 l 1
 378 338 l 2
 424.666992188 338 467.833007812 354.833007812 507.5 388.5 c 0
 557.166992188 430.654296875 582 480.8203125 582 539 c 0
 581.333007812 579 568.166992188 611.833007812 542.5 637.5 c 0
 516.833007812 663.166992188 483.333007812 676 442 676 c 2
 248 676 l 1
EndSplineSet
EndChar

StartChar: Q
Encoding: 81 81 15
Width: 844
Flags: W
HStem: -149 25<576.667 622.333> -66 91<334 358> 0 25<334 372 372 380> 683 27<451.333 535.667>
LayerCount: 2
Fore
SplineSet
770 353 m 0xb0
 757.333007812 281 726.5 215.5 677.5 156.5 c 0
 628.5 97.5 571 54 505 26 c 2
 347 -41 l 1
 385.666992188 -41 418.666992188 -50 446 -68 c 0
 501.333007812 -105.333007812 552.833007812 -124 600.5 -124 c 0
 648.166992188 -124 697.333007812 -105.333007812 748 -68 c 1
 756 -64 762.333007812 -65 767 -71 c 1
 769 -78.3330078125 767 -84.6669921875 761 -90 c 1
 703.666992188 -129.333007812 648.666992188 -149 596 -149 c 0
 543.333007812 -149 487.666992188 -129.666992188 429 -91 c 0
 404.333007812 -74.3330078125 375 -66 341 -66 c 0
 307 -66 274.333007812 -73.3330078125 243 -88 c 1
 233 -91 l 1
 227.666992188 -94.3330078125 223.333007812 -94 220 -90 c 1
 218 -89.3330078125 216.333007812 -87.3330078125 215 -84 c 0
 213.666992188 -74 216.666992188 -68 224 -66 c 1xd0
 380 0 l 1
 372 0 l 2
 279.333007812 0 206.5 34.5 153.5 103.5 c 0
 100.5 172.5 82.6669921875 256 100 354 c 0
 117.333007812 452 164.833007812 535.833007812 242.5 605.5 c 0
 320.166992188 675.166992188 405.166992188 710 497.5 710 c 0
 589.833007812 710 662.5 675.166992188 715.5 605.5 c 0
 768.5 535.833007812 786.666992188 451.666992188 770 353 c 0xb0
257.5 587 m 0
 185.833007812 523 142 445.333007812 126 354 c 0
 110 262.666992188 126.5 185 175.5 121 c 0
 224.5 57 291.5 25 376.5 25 c 0
 461.5 25 539.833007812 57 611.5 121 c 0
 683.166992188 185 727.666992188 262.333007812 745 353 c 1
 760.333007812 445 743.5 523 694.5 587 c 0
 645.5 651 578.333007812 683 493 683 c 0
 407.666992188 683 329.166992188 651 257.5 587 c 0
EndSplineSet
EndChar

StartChar: R
Encoding: 82 82 16
Width: 625
Flags: MW
HStem: 1 21G<101 104 101 101> 312 25<173 362 169 363> 675 26<233 427 233 233>
VStem: 492 26<175.333 197.667> 567 26<508.627 557.698 506.396 558>
LayerCount: 2
Fore
SplineSet
518 180 m 0
 518 170.666992188 516.333007812 156.666992188 513 138 c 0
 509.666992188 119.333007812 508 97.8330078125 508 73.5 c 0
 508 49.1669921875 513 37 523 37 c 2
 525 37 l 1
 532.333007812 39.6669921875 537.333007812 36.6669921875 540 28 c 0
 543.487304688 16.6669921875 537.8203125 11 523 11 c 0
 512.333007812 11 503 16.3330078125 495 27 c 0
 487 37.6669921875 483 54.5 483 77.5 c 0
 483 100.5 484.5 120.5 487.5 137.5 c 0
 490.5 154.5 492 168.666992188 492 180 c 0
 492 215.333007812 479.790039062 243.760742188 455.369140625 265.282226562 c 0
 430.94921875 286.8046875 403.493164062 301.376953125 373 309 c 0
 370.333007812 309.666992188 368 310.333007812 366 311 c 0
 364 311.666992188 362.666992188 312 362 312 c 2
 169 312 l 1
 116 11 l 2
 114.666992188 4.3330078125 110.666992188 1 104 1 c 2
 101 1 l 1
 93 2.3330078125 89.6669921875 7.3330078125 91 16 c 2
 210 690 l 2
 211.333007812 697.333007812 215.666992188 701 223 701 c 2
 427 701 l 2
 475 701 514.666992188 685.333007812 546 654 c 0
 577.333007812 624 593 583.348632812 593 532.046875 c 0
 593 480.745117188 572 432.5625 530 387.5 c 0
 498 353.166992188 460.666992188 330.333007812 418 319 c 1
 422.666992188 317 430.333007812 313.333007812 441 308 c 1
 492.333007812 276 518 233.333007812 518 180 c 0
363 337 m 2
 410.333007812 337 453.833007812 353.833007812 493.5 387.5 c 0
 542.5 429.087890625 567 479.254882812 567 538 c 0
 567 578 554 610.833007812 528 636.5 c 0
 502 662.166992188 468.333007812 675 427 675 c 2
 233 675 l 1
 173 337 l 1
 363 337 l 2
EndSplineSet
EndChar

StartChar: S
Encoding: 83 83 17
Width: 667
Flags: MW
HStem: -1 23<287 339.667> 677 22<394 435>
LayerCount: 2
Fore
SplineSet
69 99 m 0
 64.3330078125 103.666992188 64.6669921875 108.833007812 70 114.5 c 0
 75.3330078125 120.166992188 80.6669921875 121 86 117 c 0
 112.666992188 91 145.5 68.6669921875 184.5 50 c 0
 223.5 31.3330078125 265 22 309 22 c 0
 373.666992188 22 431 38.1669921875 481 70.5 c 0
 531 102.833007812 559.666992188 140.666992188 567 184 c 0
 574.333007812 227.333007812 559.666992188 263.333007812 523 292 c 1
 487 318.666992188 434.333007812 338.333007812 365 351 c 1
 363 352 l 1
 293.666992188 365.333007812 242.666992188 384.666992188 210 410 c 0
 169.333007812 440.666992188 153.333007812 479.666992188 162 527 c 0
 170.666992188 574.333007812 200.833007812 614.833007812 252.5 648.5 c 0
 304.166992188 682.166992188 362 699 426 699 c 0
 454 699 481.5 694.333007812 508.5 685 c 0
 535.5 675.666992188 556.5 666.166992188 571.5 656.5 c 0
 586.5 646.833007812 604.666992188 634 626 618 c 0
 632 614.666992188 632.333007812 609.666992188 627 603 c 0
 621 597 615.333007812 595.666992188 610 599 c 0
 588.666992188 615 571 627.5 557 636.5 c 0
 543 645.5 523.5 654.5 498.5 663.5 c 0
 473.5 672.5 448 677 422 677 c 0
 364 677 311.666992188 661.833007812 265 631.5 c 0
 218.333007812 601.166992188 191.666992188 566.166992188 185 526.5 c 0
 178.333007812 486.833007812 191.166992188 454.666992188 223.5 430 c 0
 255.833007812 405.333007812 305 386.666992188 371 374 c 1
 373 373 l 1
 446.333007812 359 501.666992188 338 539 310 c 0
 582.333007812 278.666992188 599.166992188 237 589.5 185 c 0
 579.833007812 133 547.333007812 89 492 53 c 0
 436.666992188 17 374.333007812 -1 305 -1 c 0
 219 -1 140.333007812 32.3330078125 69 99 c 0
EndSplineSet
EndChar

StartChar: T
Encoding: 84 84 18
Width: 648
Flags: MW
HStem: -3 21G<185 185 185 187> 671 26<58 550 62 291 317 317 317 550>
LayerCount: 2
Fore
SplineSet
185 -3 m 2
 181.666992188 -2.3330078125 179 -0.5 177 2.5 c 0
 175 5.5 174.333007812 8.6669921875 175 12 c 2
 291 671 l 1
 62 671 l 2
 54 671 50 675.333007812 50 684 c 0
 50 692.666992188 54 697 62 697 c 2
 550 697 l 2
 558 697 562 692.666992188 562 684 c 0
 562 675.333007812 558 671 550 671 c 2
 317 671 l 1
 200 7 l 2
 198 0.3330078125 193.666992188 -3 187 -3 c 2
 185 -3 l 2
EndSplineSet
EndChar

StartChar: U
Encoding: 85 85 19
Width: 814
Flags: MW
HStem: -2 25
VStem: 105 25<231 239.333 231 240.333>
LayerCount: 2
Fore
SplineSet
206 683 m 2
 134 276 l 2
 131.333007812 262.666992188 130 247.666992188 130 231 c 0
 130.666992188 171 150.666992188 121.5 190 82.5 c 0
 229.333007812 43.5 282.166992188 23.8330078125 348.5 23.5 c 0
 414.833007812 23.1669921875 477.666992188 48.1669921875 537 98.5 c 0
 596.333007812 148.833007812 632 209.333007812 644 280 c 2
 716 687 l 2
 717.333007812 695.666992188 722.333007812 699.333007812 731 698 c 0
 739 696 742.333007812 691 741 683 c 2
 669 276 l 2
 655.666992188 198.666992188 617.166992188 133 553.5 79 c 0
 489.833007812 25 421.333007812 -2 348 -2 c 0
 274.666992188 -2 215.833007812 20.1669921875 171.5 64.5 c 0
 127.166992188 108.833007812 105 164.333007812 105 231 c 0
 105 249.666992188 106.333007812 266 109 280 c 2
 181 687 l 2
 182.333007812 695.666992188 187.333007812 699.333007812 196 698 c 1
 204 695.333007812 207.333007812 690.333007812 206 683 c 2
EndSplineSet
EndChar

StartChar: V
Encoding: 86 86 20
Width: 750
Flags: W
HStem: 1 21G<231 238 231 231> 2 21G<229.667 230>
LayerCount: 2
Fore
SplineSet
228 3 m 1x40
 224.666992188 6.3330078125 223 8.6669921875 223 10 c 2
 57 685 l 2
 55.6669921875 693.666992188 59 698.666992188 67 700 c 0
 74.3330078125 702 79.3330078125 699 82 691 c 2
 240 46 l 1
 627 695 l 2
 631.666992188 702.333007812 637.666992188 703.666992188 645 699 c 0
 652.333007812 694.333007812 653.666992188 688.666992188 649 682 c 2
 246 7 l 1
 242 3 l 1
 238 1 l 1
 231 1 l 1x80
 230 2 l 2
 229.333007812 2 229 2.3330078125 229 3 c 2
 228 3 l 1x40
EndSplineSet
EndChar

StartChar: W
Encoding: 87 87 21
Width: 1102
Flags: W
HStem: 0 21G<235 242 235 235 655 661 655 655> 1 21G<233.667 234 652.667 653.333>
LayerCount: 2
Fore
SplineSet
234 1 m 2x40
 233.333007812 1 231.666992188 2.3330078125 229 5 c 1
 228 5 l 1
 228 6.3330078125 227.333007812 7.6669921875 226 9 c 2
 61 684 l 2
 59.6669921875 692.666992188 62.6669921875 697.666992188 70 699 c 1
 78 701.666992188 83.3330078125 698.666992188 86 690 c 2
 244 45 l 1
 523 513 l 2
 526.333007812 518.333007812 530.666992188 520.333007812 536 519 c 1
 542.666992188 520.333007812 547.333007812 517.333007812 550 510 c 2
 663 45 l 1
 1051 694 l 2
 1055 702 1060.66699219 703.5 1068 698.5 c 0
 1075.33300781 693.5 1076.66699219 687.666992188 1072 681 c 2
 669 6 l 1
 666 3 l 1
 666 2 l 1
 661 0 l 1
 655 0 l 2x80
 654.333007812 0.6669921875 653.666992188 1 653 1 c 0x40
 652.333007812 1 652 1.3330078125 652 2 c 2
 651 2 l 1
 649.666992188 3.3330078125 649 4.3330078125 649 5 c 2
 648 5 l 1
 646.666992188 6.3330078125 646 7.6669921875 646 9 c 2
 531 477 l 1
 250 6 l 1
 246 2 l 1
 242 0 l 1
 235 0 l 1x80
 234 1 l 2x40
EndSplineSet
EndChar

StartChar: X
Encoding: 88 88 22
Width: 722
Flags: MW
HStem: -2 21G<78 89.5>
LayerCount: 2
Fore
SplineSet
408 346 m 1
 591 17 l 2
 595.666992188 10.3330078125 594 4.3330078125 586 -1 c 0
 584.666992188 -1.6669921875 582 -2 578 -2 c 0
 574 -2 571 0 569 4 c 2
 390 326 l 1
 96 2 l 2
 94 -0.6669921875 91.25 -2 87.75 -2 c 0
 84.25 -2 81 -1 78 1 c 0
 72 7 72 13 78 19 c 2
 377 350 l 1
 195 679 l 2
 190.333007812 686.333007812 191.833007812 692.166992188 199.5 696.5 c 0
 207.166992188 700.833007812 213 699 217 691 c 2
 395 369 l 1
 690 694 l 2
 694.666992188 699.333007812 700.666992188 699.666992188 708 695 c 1
 714 689 714 683 708 677 c 2
 408 346 l 1
EndSplineSet
EndChar

StartChar: Y
Encoding: 89 89 23
Width: 604
Flags: MW
HStem: -2 21G<196 196 196 199>
LayerCount: 2
Fore
SplineSet
196 -2 m 1
 188 -0.6669921875 184.666992188 4.3330078125 186 13 c 2
 244 343 l 1
 58 679 l 2
 53.3330078125 686.333007812 55 692 63 696 c 1
 71 701.333007812 76.6669921875 699.666992188 80 691 c 1
 260 367 l 1
 557 694 l 2
 563 700 569 700.166992188 575 694.5 c 0
 581 688.833007812 581.333007812 683 576 677 c 2
 270 339 l 1
 269 339 l 1
 211 8 l 2
 209.666992188 1.3330078125 205.666992188 -2 199 -2 c 2
 196 -2 l 1
EndSplineSet
EndChar

StartChar: Z
Encoding: 90 90 24
Width: 667
Flags: W
HStem: 0 25<112 577 112 577> 674 26<198 695 202 667> 679 20G<697 700 700 700>
LayerCount: 2
Fore
SplineSet
704 696 m 1x20
 707 692 l 1
 707 690 l 2
 707.666992188 689.333007812 708 688.333007812 708 687 c 2
 708 685 l 2
 708 684.333007812 707.790039062 683.611328125 707.370117188 682.833007812 c 0
 706.950195312 682.055664062 706.494140625 681.111328125 706 680 c 2
 112 25 l 1
 577 25 l 2
 585 25 589 20.8330078125 589 12.5 c 0
 589 4.1669921875 585 0 577 0 c 2
 83 0 l 2
 78.3330078125 0 76 0.5 76 1.5 c 0
 76 2.5 75.6669921875 3 75 3 c 2
 72 7 l 2
 72 8.3330078125 71.6669921875 9 71 9 c 2
 71 14 l 2
 71 15.3330078125 71.3330078125 16.3330078125 72 17 c 2
 74 21 l 1
 667 674 l 1
 202 674 l 2
 194 674 190 678.333007812 190 687 c 0
 190 695.666992188 194 700 202 700 c 2
 695 700 l 2xc0
 696.333007812 700 697 699.666992188 697 699 c 2
 700 699 l 1
 704 697 l 1
 704 696 l 1x20
EndSplineSet
EndChar

StartChar: ampersand
Encoding: 38 38 25
Width: 696
Flags: MW
HStem: 2 26 284 26<405 443.667 402 447.333> 677 25<332.667 368.333>
VStem: 49 25 163 25<496.333 517.333> 466 26<561.667 582> 564 25<393 401 401 403 393 405>
LayerCount: 2
Fore
SplineSet
256 144 m 2
 247.333007812 144 243 151.333007812 243 166 c 0
 243 198 253.333007812 226.333007812 274 251 c 0
 308.666992188 290.333007812 364 310 440 310 c 0
 447.333007812 310 459 309.333007812 475 308 c 1
 481 308 l 2
 504.333007812 308.666992188 523.833007812 315.5 539.5 328.5 c 0
 555.166992188 341.5 563.333007812 363 564 393 c 2
 564 401 l 2
 564 409 566.833007812 413.333007812 572.5 414 c 0
 583.5 415.293945312 589 411.627929688 589 403 c 2
 589 393 l 2
 589.666992188 356.333007812 578 327.666992188 554 307 c 0
 540 295.666992188 523 288.333007812 503 285 c 1
 504.333007812 275.666992188 505 267.666992188 505 261 c 0
 505 254.333007812 503.666992188 242.333007812 501 225 c 0
 490.333007812 163 459.5 110.5 408.5 67.5 c 0
 357.5 24.5 303 2.8330078125 245 2.5 c 0
 187 2.1669921875 139.333007812 20 102 56 c 1
 66.6669921875 92.6669921875 49 137.782226562 49 191.345703125 c 0
 49 244.91015625 66.6669921875 294.794921875 102 341 c 0
 128 375 160 402 198 422 c 1
 174.666992188 447.333007812 163 478 163 514 c 0
 163 520.666992188 163.666992188 530 165 542 c 0
 173.666992188 586.666992188 196.166992188 624.5 232.5 655.5 c 0
 268.833007812 686.5 308.166992188 702 350.5 702 c 0
 392.833007812 702 427 689 453 663 c 0
 479 638.333007812 492 606 492 566 c 0
 492 557.333007812 491.166992188 548.5 489.5 539.5 c 0
 487.833007812 530.5 482.833007812 526.666992188 474.5 528 c 0
 466.166992188 529.333007812 462.666992188 533.5 464 540.5 c 0
 465.333007812 547.5 466 556 466 566 c 0
 466 598 455.666992188 624.5 435 645.5 c 0
 414.333007812 666.5 386.166992188 677 350.5 677 c 0
 314.833007812 677 280.833007812 663.333007812 248.5 636 c 0
 208.166992188 601.903320312 188 561.237304688 188 514 c 0
 188 478.666992188 201 450 227 428 c 1
 234.333007812 423.333007812 235 417.333007812 229 410 c 1
 228 410 l 1
 224 406 l 1
 186.666992188 390 154.5 365.666992188 127.5 333 c 0
 91.8330078125 289.84765625 74.1669921875 243.392578125 74.5 193.635742188 c 0
 74.8330078125 143.87890625 90.1669921875 103.833007812 120.5 73.5 c 0
 150.833007812 43.1669921875 192 27.8330078125 244 27.5 c 0
 296 27.1669921875 345.333007812 46.8330078125 392 86.5 c 0
 450 135.799804688 479 194.966796875 479 264 c 0
 479 272.666992188 478.666992188 279 478 283 c 1
 473 283 l 2
 465.666992188 283.666992188 454.666992188 284 440 284 c 0
 370 284 321.333007812 267.666992188 294 235 c 0
 277.333007812 215 269 192 269 166 c 2
 269 158 l 1
 270.333007812 150 266.666992188 145.333007812 258 144 c 1
 256 144 l 2
EndSplineSet
EndChar

StartChar: zero
Encoding: 48 48 27
Width: 710
Flags: MW
HStem: 0 25<228.667 251 251 252> 674 26<340 399.333 369 399.333>
VStem: 65 25<228.667 276.333 228.667 279.667> 532 26<423 470.667>
LayerCount: 2
Fore
SplineSet
371 700 m 0
 427.666992188 700 473 674.666992188 507 624 c 0
 541 573.333007812 558 510.666992188 558 436 c 0
 558 410 555.333007812 380.333007812 550 347 c 0
 532.666992188 251 495.333007812 169.333007812 438 102 c 0
 380.666992188 34.6669921875 318.666992188 0.6669921875 252 0 c 2
 251 0 l 2
 194.333007812 0 149 25.6669921875 115 77 c 0
 81.6669921875 125.666992188 65 188 65 264 c 0
 65 295.333007812 67.6669921875 324.666992188 73 352 c 0
 90.3330078125 448 127.5 529.833007812 184.5 597.5 c 0
 241.5 665.166992188 303.666992188 699.333007812 371 700 c 0
525 352 m 0
 529.666992188 379.333007812 532 407.333007812 532 436 c 0
 532 505.333007812 517 562.666992188 487 608 c 1
 456.333007812 652 417.666992188 674 371 674 c 2
 369 674 l 2
 311 674 255.166992188 642 201.5 578 c 0
 147.833007812 514 113.333007812 437 98 347 c 0
 92.6669921875 316.333007812 90 288.666992188 90 264 c 0
 90 193.333007812 105.333007812 135.833007812 136 91.5 c 0
 166.666992188 47.1669921875 205.333007812 25 252 25 c 0
 310 24.3330078125 366 56 420 120 c 0
 474 184 509 261.333007812 525 352 c 0
EndSplineSet
EndChar

StartChar: one
Encoding: 49 49 28
Width: 335
Flags: W
HStem: 1 21G<79 81 79 79> 680 20G<195.667 196.333 203 204> 681 20G<198 202 202 202>
LayerCount: 2
Fore
SplineSet
203 700 m 1xc0
 205 700 207.666992188 698.333007812 211 695 c 1
 211 694 l 1
 212 693 l 2
 212 691.666992188 212.333007812 690.666992188 213 690 c 2
 213 686 l 1
 94 11 l 2
 92.6669921875 4.3330078125 88.3330078125 1 81 1 c 2
 79 1 l 2
 75.6669921875 1.6669921875 73 3.5 71 6.5 c 0
 69 9.5 68.3330078125 12.6669921875 69 16 c 2
 183 665 l 1
 50 593 l 2
 48.6669921875 592.333007812 46 592 42 592 c 0
 38 592 34.6669921875 594.833007812 32 600.5 c 0
 29.3330078125 606.166992188 31.3330078125 611.333007812 38 616 c 2
 194 699 l 2
 194.666992188 699.666992188 195.333007812 700 196 700 c 0xc0
 196.666992188 700 197.333007812 700.333007812 198 701 c 2
 202 701 l 1xa0
 203 700 l 1xc0
EndSplineSet
EndChar

StartChar: two
Encoding: 50 50 29
Width: 590
Flags: MW
HStem: 1 25<95 466 95 466> 675 26<350.333 405.667>
VStem: 538 26<498.333 533.667>
LayerCount: 2
Fore
SplineSet
373 701 m 0
 440.333007812 701 492 676 528 626 c 0
 552 592.666992188 564 556.166992188 564 516.5 c 0
 564 476.833007812 554.666992188 439 536 403 c 0
 517.333007812 367 491.333007812 336 458 310 c 2
 95 26 l 1
 466 26 l 2
 474.666992188 26 479 21.8330078125 479 13.5 c 0
 479 5.1669921875 474.666992188 1 466 1 c 2
 58 1 l 2
 54 1 50 3.3330078125 46 8 c 0
 42 12.6669921875 43.3330078125 17.6669921875 50 23 c 2
 443 330 l 2
 473.666992188 353.333007812 497.166992188 381.333007812 513.5 414 c 0
 529.833007812 446.666992188 538 480.666992188 538 516 c 0
 538 551.333007812 528 583 508 611 c 0
 476.666992188 653.666992188 433.333007812 675 378 675 c 0
 322.666992188 675 273.333007812 657.666992188 230 623 c 1
 188 591 l 2
 182 586.333007812 176 587 170 593 c 1
 165.333007812 600.333007812 166.333007812 606.333007812 173 611 c 2
 214 643 l 2
 262.666992188 681.666992188 315.666992188 701 373 701 c 0
EndSplineSet
EndChar

StartChar: three
Encoding: 51 51 30
Width: 610
Flags: MW
HStem: 0 26<203.667 258.667> 674 26<226.333 572 233 537>
LayerCount: 2
Fore
SplineSet
333 465 m 1
 388.333007812 459.666992188 431.666992188 437.333007812 463 398 c 1
 501 353.333007812 514 298.666992188 502 234 c 1
 491.333007812 169.333007812 459 114 405 68 c 0
 350.333007812 22.6669921875 290.833007812 0 226.5 0 c 0
 162.166992188 0 111.666992188 22.6669921875 75 68 c 0
 70.3330078125 74 71.3330078125 80 78 86 c 0
 84.6669921875 92 91 92 97 86 c 0
 129.666992188 46 174.833007812 26 232.5 26 c 0
 290.166992188 26 342.833007812 46.3330078125 390.5 87 c 0
 438.166992188 127.666992188 466.666992188 176.666992188 476 234 c 1
 486.666992188 290 475.333007812 338.666992188 442 380 c 0
 408.666992188 420 363.666992188 440 307 440 c 0
 301.666992188 440 298 442 296 446 c 1
 289.266601562 452.733398438 289.93359375 459.400390625 298 466 c 2
 537 674 l 1
 228 674 l 2
 224.666992188 674 222 675.333007812 220 678 c 0
 218 680.666992188 217.333007812 683.666992188 218 687 c 0
 219.333007812 695.666992188 224.333007812 700 233 700 c 2
 572 700 l 2
 575.333007812 700 578 698.666992188 580 696 c 0
 582 693.333007812 582.6796875 689.756835938 582.038085938 685.26953125 c 0
 581.397460938 680.782226562 579.384765625 677.692382812 576 676 c 2
 333 465 l 1
EndSplineSet
EndChar

StartChar: four
Encoding: 52 52 31
Width: 664
Flags: W
HStem: -2 21G<456 458 456 456> 147 25<91 469 499 559 91 495> 677 20G<573 574 580 581.333> 678 20G<575 579 579 579>
LayerCount: 2
Fore
SplineSet
586 693.5 m 0xe0
 587.333007812 692.5 588 691.666992188 588 691 c 0
 588 690.333007812 588.166992188 690 588.5 690 c 0
 588.833007812 690 589 689.666992188 589 689 c 2
 589 687 l 1
 590 686 590 685 589 684 c 1
 590 683 l 1
 499 172 l 1
 559 172 l 2
 567.666992188 172 572 167.833007812 572 159.5 c 0
 572 151.166992188 567.666992188 147 559 147 c 2
 495 147 l 1
 471 8 l 2
 469 1.3330078125 464.666992188 -2 458 -2 c 2
 456 -2 l 2
 452.666992188 -1.3330078125 450 0.5 448 3.5 c 0
 446 6.5 445.333007812 9.6669921875 446 13 c 2
 469 147 l 1
 61 147 l 2
 58 147 55 148 52 150 c 0
 46 156 46 162 52 168 c 2
 568 694 l 2
 569.333007812 694 570 694.333007812 570 695 c 0
 570 695.666992188 570.333007812 696 571 696 c 0
 571.666992188 696 572 696.166992188 572 696.5 c 0
 572 696.833007812 572.5 697 573.5 697 c 0xe0
 574.5 697 575 697.333007812 575 698 c 2
 579 698 l 1xd0
 580 697 l 1
 582.666992188 697 584 696.666992188 584 696 c 0
 584 695.333007812 584.666992188 694.5 586 693.5 c 0xe0
91 172 m 1
 474 172 l 1
 557 647 l 1
 91 172 l 1
EndSplineSet
EndChar

StartChar: five
Encoding: 53 53 32
Width: 605
Flags: MW
HStem: 1 26<190.333 218 218 219> 441 26<272.667 325.333> 675 26<228 558 228 228>
VStem: 469 26<243.14 299.333>
LayerCount: 2
Fore
SplineSet
558 701 m 2
 566.666992188 701 571 696.666992188 571 688 c 0
 571 679.333007812 566.666992188 675 558 675 c 2
 228 675 l 1
 153 422 l 1
 199 452 247.333007812 467 298 467 c 0
 362.666992188 467 414 444 452 398 c 0
 480.666992188 362.666992188 495 323.666992188 495 281 c 0
 495 195.944335938 461.666992188 124.944335938 395 68 c 0
 342.333007812 23.3330078125 283.666992188 1 219 1 c 2
 218 1 l 2
 154 1 103 24 65 70 c 0
 59 76 59.3330078125 82 66 88 c 0
 72.6669921875 94 79 93.3330078125 85 86 c 0
 117 46.6669921875 161.666992188 27 219 27 c 0
 276.333007812 27 329.333007812 47.3330078125 378 88 c 1
 438.666992188 141.612304688 469 205.779296875 469 280.5 c 0
 469 318.166992188 456.333007812 351.666992188 431 381 c 1
 399 421 354.166992188 441 296.5 441 c 0
 238.833007812 441 186.333007812 420.333007812 139 379 c 1
 131.666992188 374.333007812 125.333007812 375 120 381 c 1
 117 387 l 1
 117 394 l 1
 205 690 l 2
 206.333007812 694 209 696.666992188 213 698 c 1
 215 700 217 701 219 701 c 2
 558 701 l 2
EndSplineSet
EndChar

StartChar: six
Encoding: 54 54 33
Width: 642
Flags: MW
HStem: 2 25<234.667 287.333 234.667 290.667> 430 25<311 331 331 332> 676 26<458 458>
VStem: 64 25<191 209 209 209> 499 26<262 289.333>
LayerCount: 2
Fore
SplineSet
332 455 m 0
 388 455 434.166992188 437.166992188 470.5 401.5 c 0
 506.833007812 365.833007812 525 320.666992188 525 266 c 0
 525 258 523.666992188 244.666992188 521 226 c 1
 509 228 l 1
 521 226 l 1
 509.666992188 163.333007812 478.333007812 110.333007812 427 67 c 0
 375.666992188 23.6669921875 320.333007812 2 261 2 c 0
 201.666992188 2 154 20 118 56 c 0
 82 90.6669921875 64 135.666992188 64 191 c 2
 64 209 l 1
 73.3330078125 325 108.333007812 429.666992188 169 523 c 0
 243.666992188 637.666992188 339.666992188 697.333007812 457 702 c 0
 465.666992188 702 470 697.666992188 470 689 c 1
 471.333007812 681.666992188 467.333007812 677.333007812 458 676 c 1
 350.666992188 672.666992188 261.666992188 617 191 509 c 0
 158.333007812 460.333007812 132.666992188 403.666992188 114 339 c 1
 140 374.333007812 172.333007812 402.5 211 423.5 c 0
 249.666992188 444.5 290 455 332 455 c 0
411 87 m 0
 469.666992188 136.577148438 499 196.244140625 499 266 c 0
 499 312.666992188 483.5 351.5 452.5 382.5 c 0
 421.5 413.5 381.333007812 429.333007812 332 430 c 2
 331 430 l 2
 275.666992188 430 224.333007812 410 177 370 c 0
 118.333007812 320.422851562 89 260.755859375 89 191 c 0
 89 143.666992188 104.5 104.5 135.5 73.5 c 0
 166.5 42.5 208.333007812 27 261 27 c 0
 313.666992188 27 363.666992188 47 411 87 c 0
EndSplineSet
EndChar

StartChar: seven
Encoding: 55 55 34
Width: 587
Flags: W
HStem: -1 21G<78 82> 673 26<86.6665 482 91 459> 678 20G<483 485 485 485.667>
LayerCount: 2
Fore
SplineSet
494 690 m 2xa0
 494 683 l 2
 493.333007812 682.333007812 493 681.333007812 493 680 c 2
 493 679 l 1
 89 5 l 2
 87 1 84 -1 80 -1 c 0
 76 -1 73.3330078125 -0.6669921875 72 0 c 0
 64.6669921875 4.6669921875 63.3330078125 10.6669921875 68 18 c 2
 459 673 l 1
 91 673 l 2
 82.3330078125 673 78 677.333007812 78 686 c 0
 78 694.666992188 82.3330078125 699 91 699 c 2
 482 699 l 1xc0
 483 698 l 1
 485 698 l 2
 486.333007812 698 487 697.666992188 487 697 c 2
 488 697 l 1
 493 692 l 2
 493 691.333007812 493.333007812 690.666992188 494 690 c 2xa0
EndSplineSet
EndChar

StartChar: eight
Encoding: 56 56 35
Width: 630
Flags: MW
HStem: -1 25 418 29 674 25
VStem: 55 25<161 189.667 161 216.416> 200 25<525 542.333 525 561.638> 482 25<223.811 281>
LayerCount: 2
Fore
SplineSet
378 434 m 1
 405.333007812 426.666992188 430.666992188 412 454 390 c 0
 489.333007812 356 507 312 507 258 c 0
 507 181.96875 475.166992188 116.96875 411.5 63 c 0
 361.166992188 20.3330078125 307.166992188 -1 249.5 -1 c 0
 191.833007812 -1 145 16.3330078125 109 51 c 0
 73 85.6669921875 55 130 55 184 c 0
 55 248.83203125 79.5 306.83203125 128.5 358 c 0
 166.166992188 397.333007812 210 423.333007812 260 436 c 1
 249.333007812 441.333007812 240.333007812 447.666992188 233 455 c 0
 211 477 200 504.666992188 200 538 c 0
 200 585.276367188 219.666992188 625.443359375 259 658.5 c 0
 290.333007812 684.833007812 324 698.166992188 360 698.5 c 0
 396 698.833007812 425.333007812 687.666992188 448 665 c 0
 470.666992188 642.333007812 481.833007812 613.799804688 481.5 579.400390625 c 0
 481.166992188 545 470.333007812 515 449 489.400390625 c 0
 427.666992188 463.799804688 404 445.333007812 378 434 c 1
225 538 m 0
 225 512 233.666992188 490.333007812 251 473 c 0
 268.333007812 455.666992188 291.833007812 446.833007812 321.5 446.5 c 0
 351.166992188 446.166992188 381.166992188 458.919921875 411.5 484.758789062 c 0
 441.833007812 510.598632812 457 543.012695312 457 582 c 0
 456.333007812 608.666992188 447.5 630.5 430.5 647.5 c 0
 413.5 664.5 390.166992188 673.166992188 360.5 673.5 c 0
 330.833007812 673.833007812 302.333007812 662.5 275 639.5 c 0
 247.666992188 616.5 231.666992188 589.333007812 227 558 c 1
 214 560 l 1
 227 558 l 1
 225.666992188 553.333007812 225 546.666992188 225 538 c 0
395.5 82 m 0
 453.166992188 130.954101562 482 189.62109375 482 258 c 0
 482 304 466.666992188 342.166992188 436 372.5 c 0
 405.333007812 402.833007812 364.333007812 418.166992188 313 418.5 c 0
 261.666992188 418.833007812 212.833007812 399.333007812 166.5 360 c 0
 120.166992188 320.666992188 92.3330078125 273.666992188 83 219 c 1
 71 221 l 1
 83 219 l 1
 81 207 80 195.333007812 80 184 c 0
 80 138 95.3330078125 99.8330078125 126 69.5 c 0
 156.666992188 39.1669921875 197.666992188 23.8330078125 249 23.5 c 0
 300.333007812 23.1669921875 349.166992188 42.6669921875 395.5 82 c 0
EndSplineSet
EndChar

StartChar: nine
Encoding: 57 57 36
Width: 642
Flags: MW
HStem: 2 25<129.333 133 128.667 134> 248 26 676 26
VStem: 66 26<414.333 443.667 414.333 445.333> 502 25<494 512 494 535.667>
LayerCount: 2
Fore
SplineSet
163 636 m 0
 214.333007812 679.333007812 269.666992188 701.166992188 329 701.5 c 0
 388.333007812 701.833007812 436.166992188 683.833007812 472.5 647.5 c 0
 508.833007812 611.166992188 527 566 527 512 c 2
 527 494 l 1
 517.666992188 377.333007812 482.333007812 272.666992188 421 180 c 0
 347 66 251.333007812 6.6669921875 134 2 c 1
 133 2 l 2
 125.666992188 2 121.333007812 6 120 14 c 1
 120 22.6669921875 124.333007812 27 133 27 c 0
 241 31.6669921875 330 87.3330078125 400 194 c 0
 433.333007812 245.333007812 459 302 477 364 c 1
 451 328.666992188 418.833007812 300.666992188 380.5 280 c 0
 342.166992188 259.333007812 298.666992188 248.833007812 250 248.5 c 0
 201.333007812 248.166992188 158.5 266.166992188 121.5 302.5 c 0
 84.5 338.833007812 66 384 66 438 c 0
 66 452.666992188 67.3330078125 465.666992188 70 477 c 0
 80.6669921875 539.666992188 111.666992188 592.666992188 163 636 c 0
138.5 320.5 m 0
 169.5 289.5 211.333007812 273.833007812 264 273.5 c 0
 316.666992188 273.166992188 366.5 293 413.5 333 c 0
 472.5 383.212890625 502 442.879882812 502 512 c 0
 502 559.333007812 486.5 598.5 455.5 629.5 c 0
 424.5 660.5 382.666992188 676.166992188 330 676.5 c 0
 277.333007812 676.833007812 227.333007812 657 180 617 c 0
 132.666992188 577 104.333007812 529 95 473 c 1
 82 475 l 1
 95 473 l 1
 93 461 92 449.333007812 92 438 c 0
 92 390.666992188 107.5 351.5 138.5 320.5 c 0
EndSplineSet
EndChar

StartChar: a
Encoding: 97 97 37
Width: 619
Flags: W
HStem: 2 26 3 21G<448 450 448 448> 463 25<285 313 313 314>
VStem: 40 25<202 209.333 202 210.333>
LayerCount: 2
Fore
SplineSet
232 2 m 0xb0
 175.333007812 2 129.333007812 21.6669921875 94 61 c 1
 58 98.3330078125 40 145.333007812 40 202 c 0
 40 218.666992188 41.3330078125 234 44 248 c 0
 56 314.666992188 88.1669921875 371.333007812 140.5 418 c 0
 192.833007812 464.666992188 250.666992188 488 314 488 c 1
 370 489.333007812 416.333007812 470 453 430 c 0
 473 409.333007812 487.333007812 384 496 354 c 1
 519 478 l 2
 520.333007812 486.666992188 525 490 533 488 c 0
 541 486.666992188 544.333007812 482 543 474 c 2
 462 13 l 2
 460.666992188 6.3330078125 456.666992188 3 450 3 c 2
 448 3 l 1x70
 439.333007812 4.3330078125 436 9 438 17 c 2
 458 133 l 1
 432 93.6669921875 398.833007812 62.1669921875 358.5 38.5 c 0
 318.166992188 14.8330078125 276 2.6669921875 232 2 c 0xb0
69 243 m 0
 66.3330078125 230.333007812 65 216.666992188 65 202 c 0
 65.6669921875 151.333007812 81.3330078125 109.666992188 112 77 c 0
 142.666992188 44.3330078125 184.5 27.8330078125 237.5 27.5 c 0
 290.5 27.1669921875 341.166992188 48.6669921875 389.5 92 c 0
 450.5 146.689453125 481 212.356445312 481 289 c 0
 481 339.666992188 465.5 381.333007812 434.5 414 c 0
 403.5 446.666992188 363.333007812 463 314 463 c 2
 313 463 l 2
 257 463 205 441.5 157 398.5 c 0
 109 355.5 79.6669921875 303.666992188 69 243 c 0
EndSplineSet
EndChar

StartChar: b
Encoding: 98 98 38
Width: 660
Flags: MW
HStem: -20 20G<105 105 105 107> 463 27<383 442 412 442>
VStem: 587 26<281.667 312.333>
LayerCount: 2
Fore
SplineSet
105 0 m 1
 96.3330078125 1.3330078125 93 6 95 14 c 2
 135 246 l 1
 215 690 l 2
 217 698 222.166992188 701.333007812 230.5 700 c 0
 238.833007812 698.666992188 242 694 240 686 c 2
 181 357 l 1
 208.333007812 397 242.5 429 283.5 453 c 0
 324.5 477 367.666992188 489.333007812 413 490 c 0
 471 490 519 470 557 430 c 1
 594.333007812 392.666992188 613 345 613 287 c 0
 613 276.333007812 611.666992188 261 609 241 c 1
 596 244 l 1
 609 241 l 1
 597 174.333007812 564.166992188 117.5 510.5 70.5 c 0
 456.833007812 23.5 399 -0.1669921875 337 -0.5 c 0
 275 -0.8330078125 225.333007812 18.6669921875 188 58 c 0
 167.333007812 78.6669921875 151.666992188 104.333007812 141 135 c 1
 119 10 l 2
 117.666992188 3.3330078125 113.666992188 0 107 0 c 2
 105 0 l 1
412 463 m 2
 354 463 300.333007812 441.333007812 251 398 c 0
 201.666992188 354.666992188 171.666992188 302.333007812 161 241 c 0
 158.333007812 229.666992188 157 216.666992188 157 202 c 0
 157.666992188 150.666992188 174.166992188 108.333007812 206.5 75 c 0
 238.833007812 41.6669921875 282.166992188 24.8330078125 336.5 24.5 c 0
 390.833007812 24.1669921875 443 45.8330078125 493 89.5 c 0
 555.666992188 144.228515625 587 210.0625 587 287 c 0
 587 337.666992188 570.833007812 379.666992188 538.5 413 c 0
 506.166992188 446.333007812 464.333007812 463 413 463 c 2
 412 463 l 2
EndSplineSet
EndChar

StartChar: c
Encoding: 99 99 39
Width: 571
Flags: MW
HStem: -2 26<243.333 297.667 243.333 299> 463 25<319.333 380>
VStem: 58 25<178 210.333>
LayerCount: 2
Fore
SplineSet
58 204 m 0
 58 216.666992188 59 230.666992188 61 246 c 0
 73.6669921875 313.333007812 108.333007812 370.5 165 417.5 c 0
 221.666992188 464.5 284.666992188 488 354 488 c 0
 411.333007812 488.666992188 460.666992188 470.666992188 502 434 c 0
 508.666992188 428.666992188 509 423 503 417 c 0
 497 411 491 410.666992188 485 416 c 0
 449.666992188 447.333007812 406 463 354 463 c 0
 291.333007812 463.666992188 233.666992188 442.166992188 181 398.5 c 0
 115.666992188 344.331054688 83 279.498046875 83 204 c 0
 83 152 100.666992188 109 136 75 c 0
 171.333007812 41 216.166992188 24 270.5 24 c 0
 324.833007812 24 375.333007812 40 422 72 c 0
 428.666992188 76.6669921875 434.666992188 75.6669921875 440 69 c 0
 444.666992188 61.6669921875 443.333007812 55.6669921875 436 51 c 0
 384.666992188 15.6669921875 329 -2 269 -2 c 0
 209 -2 158.833007812 17.5 118.5 56.5 c 0
 78.1669921875 95.5 58 144.666992188 58 204 c 0
EndSplineSet
EndChar

StartChar: d
Encoding: 100 100 40
Width: 660
Flags: W
HStem: -3 26 -2 21G<483 486 483 483> 463 27
VStem: 60 26<175.333 206>
LayerCount: 2
Fore
SplineSet
261 -3 m 0xb0
 202.333007812 -3 154.166992188 16.5 116.5 55.5 c 0
 78.8330078125 94.5 60 143 60 201 c 0
 60 211 61.3330078125 226 64 246 c 0
 76 313.333007812 109.166992188 370.666992188 163.5 418 c 0
 217.833007812 465.333007812 275.833007812 489.166992188 337.5 489.5 c 0
 399.166992188 489.833007812 449 470 487 430 c 1
 508.333007812 409.333007812 523.666992188 383.666992188 533 353 c 1
 595 690 l 2
 596.333007812 698 601.166992188 701.333007812 609.5 700 c 0
 617.833007812 698.666992188 621.333007812 694 620 686 c 2
 498 8 l 2
 496.666992188 1.3330078125 492.666992188 -2 486 -2 c 2
 483 -2 l 1x70
 475 -0.6669921875 471.666992188 4 473 12 c 2
 493 130 l 1
 467 90 433.166992188 58 391.5 34 c 0
 349.833007812 10 306.333007812 -2.3330078125 261 -3 c 0xb0
180 398.5 m 0
 117.333007812 343.771484375 86 277.9375 86 201 c 0
 86 149.666992188 102.333007812 107.166992188 135 73.5 c 0
 167.666992188 39.8330078125 211.333007812 22.8330078125 266 22.5 c 0
 320.666992188 22.1669921875 372.833007812 44 422.5 88 c 0
 472.166992188 132 502.666992188 184.666992188 514 246 c 0
 516.666992188 257.333007812 518 270.666992188 518 286 c 0
 517.333007812 337.333007812 501 379.666992188 469 413 c 0
 437 446.333007812 393.333007812 463.166992188 338 463.5 c 0
 282.666992188 463.833007812 230 442.166992188 180 398.5 c 0
EndSplineSet
EndChar

StartChar: e
Encoding: 101 101 41
Width: 609
Flags: MW
HStem: 0 26<232.333 258> 247 25<94 512 94 524 88 512> 464 25
VStem: 58 25<177.333 211.333> 513 25<283.667 312.667>
LayerCount: 2
Fore
SplineSet
58 203 m 0
 58 219.666992188 59.3330078125 234.333007812 62 247 c 0
 74 314.333007812 107 371.5 161 418.5 c 0
 215 465.5 272.666992188 489.166992188 334 489.5 c 0
 395.333007812 489.833007812 444.666992188 470.333007812 482 431 c 1
 519.333007812 393.666992188 538 345.666992188 538 287 c 0
 538 271.666992188 537.333007812 261.333007812 536 256 c 0
 533.333007812 250 529.333007812 247 524 247 c 2
 88 247 l 1
 84.6669921875 240.333007812 83 225.666992188 83 203 c 0
 83 151.666992188 99.3330078125 109.333007812 132 76 c 0
 164.666992188 42.6669921875 206.666992188 26 258 26 c 0
 294 26 329.333007812 35 364 53 c 0
 398.666992188 71 428.333007812 95.3330078125 453 126 c 0
 457.666992188 132 463.666992188 132.666992188 471 128 c 1
 477 122 477.666992188 116 473 110 c 0
 413.666992188 38 342 1.3330078125 258 0 c 0
 199.333007812 0 151.333007812 19.6669921875 114 59 c 1
 76.6669921875 96.3330078125 58 144.333007812 58 203 c 0
464.5 414 m 0
 432.166992188 447.333007812 389.833007812 464.166992188 337.5 464.5 c 0
 285.166992188 464.833007812 235.666992188 446.5 189 409.5 c 0
 142.333007812 372.5 110.666992188 326.666992188 94 272 c 1
 512 272 l 1
 512.666992188 275.333007812 513 280.333007812 513 287 c 0
 513 338.333007812 496.833007812 380.666992188 464.5 414 c 0
EndSplineSet
EndChar

StartChar: f
Encoding: 102 102 42
Width: 362
Flags: W
HStem: 0 21G<83.3335 91.6665> 467 26<72.6665 161 81 157 187 266 81 182> 467 233<72.6665 324.333 77 324.333 182 324.333 182 324.333>
LayerCount: 2
Fore
SplineSet
320 700 m 0xa0
 328.666992188 700 332.333007812 696 331 688 c 1
 328.333007812 679.333007812 323.333007812 675 316 675 c 0
 281.333007812 675 255 666.666992188 237 650 c 0
 219 633.333007812 206.333007812 603 199 559 c 2
 187 493 l 1
 271 493 l 2
 274.333007812 493 277 491.666992188 279 489 c 0
 281 486.333007812 281.666992188 483.333007812 281 480 c 0
 279.666992188 471.333007812 274.666992188 467 266 467 c 2
 182 467 l 1
 102 13 l 2
 100.666992188 4.3330078125 95.8330078125 0 87.5 0 c 0
 79.1669921875 0 75.6669921875 4.3330078125 77 13 c 2
 157 467 l 1
 77 467 l 2
 68.3330078125 467 64.6669921875 471.333007812 66 480 c 0
 67.3330078125 488.666992188 72.3330078125 493 81 493 c 2
 161 493 l 1xc0
 173 559 l 2
 181.666992188 609 197.833007812 645 221.5 667 c 0
 245.166992188 689 278 700 320 700 c 0xa0
EndSplineSet
EndChar

StartChar: g
Encoding: 103 103 43
Width: 660
Flags: MW
HStem: -204 25<203 246.667 203 249.667> 0 25 463 26
VStem: 61 25<200 207.333 174.667 208.333>
LayerCount: 2
Fore
SplineSet
487 25 m 2
 475.666992188 -38.3330078125 443.833007812 -92.3330078125 391.5 -137 c 0
 339.166992188 -181.666992188 281.333007812 -204 218 -204 c 0
 182 -204 149.666992188 -196 121 -180 c 0
 113 -176 111.333007812 -170.333007812 116 -163 c 1
 119.333007812 -155.666992188 125 -154 133 -158 c 0
 159.666992188 -172 188 -179 218 -179 c 0
 275.333007812 -179 327.833007812 -158.666992188 375.5 -118 c 0
 423.166992188 -77.3330078125 452 -28.3330078125 462 29 c 2
 480 131 l 1
 453.333007812 91 420 59.1669921875 380 35.5 c 0
 340 11.8330078125 298 0 254 0 c 0
 200 -0.6669921875 153.666992188 18.3330078125 115 57 c 1
 78.3330078125 96.3330078125 60.3330078125 144 61 200 c 0
 61 216.666992188 62.3330078125 232 65 246 c 0
 77 312.666992188 109.166992188 369.666992188 161.5 417 c 0
 213.833007812 464.333007812 270.166992188 488.166992188 330.5 488.5 c 0
 390.833007812 488.833007812 439 469.333007812 475 430 c 0
 495.666992188 408.666992188 510.666992188 383.333007812 520 354 c 1
 542 478 l 2
 542.666992188 481.333007812 544.5 484 547.5 486 c 0
 550.5 488 553.666992188 488.666992188 557 488 c 0
 565 486.666992188 568.333007812 482 567 474 c 2
 526 242 l 1
 526 241 l 1
 487 25 l 2
133 74.5 m 0
 164.333007812 41.5 206.5 24.8330078125 259.5 24.5 c 0
 312.5 24.1669921875 363.166992188 45.6669921875 411.5 89 c 0
 473.166992188 144.287109375 504 210.287109375 504 287 c 0
 504 337.666992188 488.333007812 379.666992188 457 413 c 0
 425.666992188 446.333007812 385.333007812 463 336 463 c 2
 335 463 l 2
 278.333007812 463 226 441.333007812 178 398 c 0
 130 354.666992188 100.666992188 302.333007812 90 241 c 0
 87.3330078125 228.333007812 86 214.666992188 86 200 c 0
 86 149.333007812 101.666992188 107.5 133 74.5 c 0
EndSplineSet
EndChar

StartChar: h
Encoding: 104 104 44
Width: 613
Flags: MW
HStem: -2 21G<104 108 104 104 476 476 476 479> 465 25
VStem: 519 25<319 324>
LayerCount: 2
Fore
SplineSet
108 -2 m 2
 104 -2 l 1
 96 -0.6669921875 92.6669921875 4.3330078125 94 13 c 2
 213 688 l 2
 214.333007812 696 219.166992188 699.333007812 227.5 698 c 0
 235.833007812 696.666992188 239.333007812 691.666992188 238 683 c 2
 187 391 l 1
 209.666992188 421 237.666992188 445 271 463 c 0
 304.333007812 481 339 490 375 490 c 0
 424.333007812 490 465 474 497 442 c 0
 528.333007812 412 544 372.666992188 544 324 c 0
 544 312.666992188 543 301 541 289 c 2
 491 9 l 2
 489.666992188 1.6669921875 485.666992188 -2 479 -2 c 2
 476 -2 l 1
 468 -0.6669921875 464.666992188 4.3330078125 466 13 c 2
 516 294 l 2
 518 304 519 314 519 324 c 0
 518.333007812 364.666992188 504.666992188 398.166992188 478 424.5 c 0
 451.333007812 450.833007812 415.5 464.166992188 370.5 464.5 c 0
 325.5 464.833007812 282.666992188 447.666992188 242 413 c 0
 201.333007812 378.333007812 177 337 169 289 c 2
 119 9 l 1
 119 7 l 2
 118.333007812 6.3330078125 118 5.5 118 4.5 c 0
 118 3.5 117.333007812 3 116 3 c 1
 116 1.6669921875 115.333007812 1 114 1 c 0
 112 -1 110 -2 108 -2 c 2
EndSplineSet
EndChar

StartChar: i
Encoding: 105 105 45
Width: 281
Flags: MW
HStem: 0 21G<105 105 105 108>
LayerCount: 2
Fore
SplineSet
105 0 m 1
 97 2.6669921875 93.6669921875 7.6669921875 95 15 c 2
 176 481 l 1
 178.666992188 489.666992188 183.666992188 492.666992188 191 490 c 1
 199.666992188 488.666992188 203 484 201 476 c 2
 120 10 l 2
 118.666992188 3.3330078125 114.666992188 0 108 0 c 2
 105 0 l 1
212 592 m 2
 209 592 l 1
 201 593.333007812 197.666992188 598.333007812 199 607 c 2
 204 631 l 2
 205.333007812 639 210.166992188 642.333007812 218.5 641 c 0
 226.833007812 639.666992188 230.333007812 634.666992188 229 626 c 2
 224 602 l 2
 222.666992188 595.333007812 218.666992188 592 212 592 c 2
EndSplineSet
EndChar

StartChar: j
Encoding: 106 106 46
Width: 249
Flags: MW
HStem: -194 21G<3.6665 17.6665>
LayerCount: 2
Fore
SplineSet
203 628 m 2
 203 631.333007812 204.666992188 634.166992188 208 636.5 c 0
 211.333007812 638.833007812 214.666992188 639.666992188 218 639 c 0
 225.333007812 637.666992188 228.333007812 633 227 625 c 2
 222 601 l 1
 222 594.333007812 218.333007812 591 211 591 c 2
 207 591 l 1
 199.666992188 592.333007812 196.666992188 597.333007812 198 606 c 2
 203 628 l 2
173 480 m 2
 175 488 180 491.333007812 188 490 c 0
 196 488.666992188 199.333007812 483.666992188 198 475 c 2
 91 -122 l 2
 87.6669921875 -142 77.8330078125 -159 61.5 -173 c 0
 45.1669921875 -187 27.3330078125 -194 8 -194 c 0
 -0.6669921875 -194 -5 -190.333007812 -5 -183 c 0
 -5 -179.666992188 -3.6669921875 -176.5 -1 -173.5 c 0
 1.6669921875 -170.5 4.6669921875 -169 8 -169 c 0
 21.3330078125 -169.666992188 34 -164.833007812 46 -154.5 c 0
 58 -144.166992188 65.3330078125 -132.333007812 68 -119 c 2
 173 480 l 2
EndSplineSet
EndChar

StartChar: k
Encoding: 107 107 47
Width: 560
Flags: MW
HStem: 3 21G<104 106 104 104 445 448>
LayerCount: 2
Fore
SplineSet
542 493 m 0
 548 486.333007812 547.666992188 480.333007812 541 475 c 2
 300 270 l 1
 460 23 l 2
 464.666992188 16.3330078125 463.666992188 10.3330078125 457 5 c 1
 453 3.6669921875 449.5 3 446.5 3 c 0
 443.5 3 441 5 439 9 c 2
 280 254 l 1
 144 138 l 2
 142.666992188 136.666992188 141.333007812 136 140 136 c 1
 119 14 l 2
 117.666992188 6.6669921875 113.333007812 3 106 3 c 2
 104 3 l 1
 96 4.3330078125 92.6669921875 9.3330078125 94 18 c 2
 213 693 l 2
 214.333007812 701 219.166992188 704.333007812 227.5 703 c 0
 235.833007812 701.666992188 239.333007812 696.666992188 238 688 c 2
 147 173 l 1
 524 494 l 2
 529.333007812 499.333007812 535.333007812 499 542 493 c 0
EndSplineSet
EndChar

StartChar: l
Encoding: 108 108 48
Width: 249
Flags: MW
HStem: -1 21G<112 114 112 112>
LayerCount: 2
Fore
SplineSet
221 689 m 2
 222.333007812 697 227.166992188 700.333007812 235.5 699 c 0
 243.833007812 697.666992188 247.333007812 692.666992188 246 684 c 2
 127 10 l 2
 125.666992188 2.6669921875 121.333007812 -1 114 -1 c 2
 112 -1 l 2
 108.666992188 -0.3330078125 106 1.5 104 4.5 c 0
 102 7.5 101.333007812 10.6669921875 102 14 c 2
 221 689 l 2
EndSplineSet
EndChar

StartChar: m
Encoding: 109 109 49
Width: 951
Flags: W
HStem: 0 21G<105 108 105 105 473 473 473 477 841 841 841 843> 1 21G 464 25
VStem: 883 25<320.5 345>
LayerCount: 2
Fore
SplineSet
108 0 m 2xb0
 105 0 l 1
 96.3330078125 1.3330078125 92.6669921875 6.3330078125 94 15 c 2
 144 295 l 1
 144 296 l 1
 176 479 l 2
 178 487 183 490.333007812 191 489 c 0
 199 487.666992188 202.333007812 482.666992188 201 474 c 2
 186 392 l 1
 208.666992188 421.333007812 236.666992188 444.833007812 270 462.5 c 0
 303.333007812 480.166992188 337.666992188 489 373 489 c 0
 421 489 461.333007812 473.333007812 494 442 c 1
 515.333007812 418.666992188 529.333007812 392.333007812 536 363 c 1
 556.666992188 400.333007812 585.5 430.666992188 622.5 454 c 0
 659.5 477.333007812 700.333007812 489 745 489 c 0
 789.666992188 489 828.333007812 473.333007812 861 442 c 0
 892.333007812 410.666992188 908 371.666992188 908 325 c 0
 908 314.333007812 907 303 905 291 c 2
 856 10 l 2
 854.666992188 3.3330078125 850.333007812 0 843 0 c 2
 841 0 l 1xb0
 833 1.3330078125 829.666992188 6.3330078125 831 15 c 2
 880 295 l 2
 882 306 883 316 883 325 c 0
 883 365 869.833007812 398 843.5 424 c 0
 817.166992188 450 781.666992188 463.166992188 737 463.5 c 0
 692.333007812 463.833007812 650 447.333007812 610 414 c 0
 570 380.666992188 545.666992188 340.666992188 537 294 c 0
 537 292.666992188 536.666992188 291.666992188 536 291 c 2
 488 10 l 2
 487.333007812 5.3330078125 484.333007812 2.3330078125 479 1 c 0x70
 478.333007812 0.3330078125 477.666992188 0 477 0 c 2
 473 0 l 1
 465 1.3330078125 461.666992188 6.3330078125 463 15 c 2
 511 295 l 1
 513 297 514 307 514 325 c 0
 514 365.666992188 501 398.833007812 475 424.5 c 0
 449 450.166992188 413.666992188 463.166992188 369 463.5 c 0
 324.333007812 463.833007812 282 447.166992188 242 413.5 c 0
 202 379.833007812 177.666992188 339.333007812 169 292 c 2
 119 10 l 2
 119 8.6669921875 118.333007812 7.3330078125 117 6 c 1
 117 5 l 1
 113.666992188 1.6669921875 110.666992188 0 108 0 c 2xb0
EndSplineSet
EndChar

StartChar: n
Encoding: 110 110 50
Width: 613
Flags: MW
HStem: -2 21G<104 108 104 104 474 474 474 476> 464 25
VStem: 517 24<319.333 344.333>
LayerCount: 2
Fore
SplineSet
108 -2 m 2
 104 -2 l 1
 96 -0.6669921875 92.6669921875 4.3330078125 94 13 c 2
 144 295 l 1
 144 296 l 1
 176 479 l 2
 177.333007812 487 182.166992188 490.333007812 190.5 489 c 0
 198.833007812 487.666992188 202.333007812 482.666992188 201 474 c 2
 186 392 l 1
 208.666992188 421.333007812 236.666992188 444.833007812 270 462.5 c 0
 303.333007812 480.166992188 340.833007812 489 382.5 489 c 0
 424.166992188 489 461.666992188 473.333007812 495 442 c 1
 525.666992188 411.333007812 541 372 541 324 c 0
 541 314 540 303 538 291 c 2
 490 8 l 2
 488.666992188 1.3330078125 484 -2 476 -2 c 2
 474 -2 l 1
 466 -0.6669921875 462.666992188 4.3330078125 464 13 c 2
 514 295 l 2
 516 305 517 314.666992188 517 324 c 0
 517 364.666992188 503.666992188 398 477 424 c 0
 450.333007812 450 414.5 463.166992188 369.5 463.5 c 0
 324.5 463.833007812 281.833007812 447 241.5 413 c 0
 201.166992188 379 176.666992188 338.333007812 168 291 c 2
 119 8 l 2
 119 4.6669921875 118 3 116 3 c 1
 116 1.6669921875 115.333007812 1 114 1 c 0
 112 -1 110 -2 108 -2 c 2
EndSplineSet
EndChar

StartChar: o
Encoding: 111 111 51
Width: 625
Flags: MW
HStem: 0 25 465 25<316.667 345 345 346>
VStem: 70 25<176.333 209.333 176.333 210.333> 515 25<280.667 288>
LayerCount: 2
Fore
SplineSet
540 288 m 0
 540 271.333007812 538.666992188 256.333007812 536 243 c 1
 524 245 l 1
 536 243 l 1
 524 175.666992188 491.666992188 118.5 439 71.5 c 0
 386.333007812 24.5 329.833007812 0.8330078125 269.5 0.5 c 0
 209.166992188 0.1669921875 160.666992188 19.3330078125 124 58 c 0
 88 97.3330078125 70 145.333007812 70 202 c 0
 70 218.666992188 71.3330078125 233.666992188 74 247 c 0
 86 314.333007812 118.333007812 371.666992188 171 419 c 0
 223.666992188 466.333007812 280.166992188 490 340.5 490 c 0
 400.833007812 490 449.166992188 470.833007812 485.5 432.5 c 0
 521.833007812 394.166992188 540 346 540 288 c 0
511 247 m 0
 513.666992188 259.666992188 515 273.333007812 515 288 c 0
 514.333007812 339.333007812 498.333007812 381.666992188 467 415 c 0
 435.666992188 448.333007812 395.333007812 465 346 465 c 2
 345 465 l 2
 288.333007812 465 235.833007812 443.166992188 187.5 399.5 c 0
 139.166992188 355.833007812 109.666992188 303.666992188 99 243 c 0
 96.3330078125 230.333007812 95 216.666992188 95 202 c 0
 95 150.666992188 110.666992188 108.5 142 75.5 c 0
 173.333007812 42.5 215.666992188 25.8330078125 269 25.5 c 0
 322.333007812 25.1669921875 373.333007812 46.8330078125 422 90.5 c 0
 470.666992188 134.166992188 500.333007812 186.333007812 511 247 c 0
EndSplineSet
EndChar

StartChar: p
Encoding: 112 112 52
Width: 660
Flags: MW
HStem: -215 21G<105.667 109.667> 4 26 463 26<425.667 447 447 448>
VStem: 620 26<284.333 314.333>
LayerCount: 2
Fore
SplineSet
228 489 m 0
 236.666992188 487.666992188 240.333007812 482.666992188 239 474 c 2
 218 359 l 1
 244.666992188 398.333007812 278.5 429.833007812 319.5 453.5 c 0
 360.5 477.166992188 403.333007812 489 448 489 c 0
 506 489 553.5 469.666992188 590.5 431 c 0
 627.5 392.333007812 646 345 646 289 c 0
 646 279.666992188 644.666992188 265 642 245 c 0
 630 178.333007812 597.166992188 121.666992188 543.5 75 c 0
 489.833007812 28.3330078125 432.666992188 4.8330078125 372 4.5 c 0
 311.333007812 4.1669921875 262 23.6669921875 224 63 c 0
 203.333007812 83.6669921875 188.333007812 109 179 139 c 1
 119 -204 l 2
 117.666992188 -211.333007812 113.333007812 -215 106 -215 c 0
 105.333007812 -215 104.666992188 -214.666992188 104 -214 c 0
 96 -212.666992188 92.6669921875 -208 94 -200 c 2
 173 249 l 1
 173 250 l 1
 213 479 l 2
 214.333007812 487 219.333007812 490.333007812 228 489 c 0
447 463 m 2
 389 463 335.5 441.666992188 286.5 399 c 0
 237.5 356.333007812 208 305 198 245 c 0
 195.333007812 233.666992188 194 220.666992188 194 206 c 0
 194.666992188 155.333007812 211 113.333007812 243 80 c 0
 275 46.6669921875 318 29.8330078125 372 29.5 c 0
 426 29.1669921875 477.666992188 50.5 527 93.5 c 0
 589 147.541015625 620 212.70703125 620 289 c 0
 620 339.666992188 604 381.333007812 572 414 c 0
 540 446.666992188 498.666992188 463 448 463 c 2
 447 463 l 2
EndSplineSet
EndChar

StartChar: q
Encoding: 113 113 53
Width: 660
Flags: MW
HStem: -216 21G<439.667 443.667> 3 26 463 25
VStem: 60 25<179 210.667 179 245.913>
LayerCount: 2
Fore
SplineSet
438 -215 m 0
 430 -213.666992188 426.666992188 -209 428 -201 c 2
 486 134 l 1
 460 94.6669921875 426.666992188 63 386 39 c 0
 345.333007812 15 302.333007812 3 257 3 c 0
 199.666992188 3 152.5 22.3330078125 115.5 61 c 0
 78.5 99.6669921875 60 147.333007812 60 204 c 0
 60 287.826171875 93.8330078125 359.159179688 161.5 418 c 0
 215.166992188 464.666992188 272.666992188 488 334 488 c 0
 395.333007812 488 444 469 480 431 c 1
 500.666992188 411 516 385.333007812 526 354 c 1
 548 478 l 2
 549.333007812 486 554.166992188 489.333007812 562.5 488 c 0
 570.833007812 486.666992188 574.333007812 482 573 474 c 2
 533 244 l 1
 532 244 l 1
 453 -205 l 2
 451.666992188 -212.333007812 447.333007812 -216 440 -216 c 0
 439.333007812 -216 438.666992188 -215.666992188 438 -215 c 0
133.5 79 m 0
 165.833007812 45.6669921875 209 28.8330078125 263 28.5 c 0
 317 28.1669921875 368.5 49.5 417.5 92.5 c 0
 479.833007812 147.200195312 511 212.3671875 511 288 c 0
 511 338.666992188 494.833007812 380.5 462.5 413.5 c 0
 430.166992188 446.5 387 463.166992188 333 463.5 c 0
 279 463.833007812 227.333007812 442.333007812 178 399 c 0
 128.666992188 355.666992188 98.6669921875 304 88 244 c 1
 76 246 l 1
 88 244 l 1
 86 230.666992188 85 217.333007812 85 204 c 0
 85 154 101.166992188 112.333007812 133.5 79 c 0
EndSplineSet
EndChar

StartChar: r
Encoding: 114 114 54
Width: 439
Flags: MW
HStem: -1 21G<104 107 104 104> 464 25<412.667 431.333>
LayerCount: 2
Fore
SplineSet
173 315 m 1
 251.713867188 431 336.380859375 489 427 489 c 0
 435.666992188 489 440 484.833007812 440 476.5 c 0
 440 468.166992188 435.666992188 464 427 464 c 0
 398.333007812 464 370.166992188 457.5 342.5 444.5 c 0
 314.833007812 431.5 290.333007812 414.166992188 269 392.5 c 0
 229.971679688 352.862304688 199.3046875 313.362304688 177 274 c 1
 160 240 l 1
 119 9 l 2
 117.666992188 2.3330078125 113.666992188 -1 107 -1 c 2
 104 -1 l 1
 96 0.3330078125 92.6669921875 5 94 13 c 2
 176 478 l 2
 177.333007812 486.666992188 182.333007812 490.333007812 191 489 c 0
 199 487 202.333007812 482 201 474 c 2
 173 315 l 1
EndSplineSet
EndChar

StartChar: s
Encoding: 115 115 55
Width: 492
Flags: MW
HStem: 1 25<197 245> 465 25<282.667 312.333>
LayerCount: 2
Fore
SplineSet
56 71 m 0
 50 75.6669921875 50.5 81.5 57.5 88.5 c 0
 64.5 95.5 70.3330078125 96 75 90 c 1
 119 47.3330078125 169 26 225 26 c 0
 268.333007812 26 306.333007812 37 339 59 c 1
 371.666992188 79.6669921875 390.5 104.166992188 395.5 132.5 c 0
 400.5 160.833007812 391.333007812 183.833007812 368 201.5 c 0
 344.666992188 219.166992188 308.666992188 232.666992188 260 242 c 1
 259 242 l 1
 211 252 175.666992188 265.666992188 153 283 c 0
 123.666992188 304.333007812 112.333007812 332.333007812 119 367 c 0
 125.666992188 401.666992188 147.166992188 430.833007812 183.5 454.5 c 0
 219.833007812 478.166992188 260.333007812 490 305 490 c 0
 324.333007812 490 343.5 486.666992188 362.5 480 c 0
 381.5 473.333007812 395.833007812 466.833007812 405.5 460.5 c 0
 415.166992188 454.166992188 428 445.333007812 444 434 c 0
 450.666992188 428.666992188 451 422.666992188 445 416 c 0
 439 409.333007812 433 408.333007812 427 413 c 0
 412.333007812 423.666992188 400.166992188 432 390.5 438 c 0
 361.5 456 329.666992188 465 295 465 c 0
 260.333007812 465 227.5 455 196.5 435 c 0
 165.5 415 147.833007812 392.666992188 143.5 368 c 0
 134.8203125 318.59375 175.987304688 284.926757812 267 267 c 1
 269 267 l 1
 322.333007812 255.666992188 361 241 385 223 c 0
 415.666992188 199 427.666992188 168.833007812 421 132.5 c 0
 414.333007812 96.1669921875 391.333007812 65.1669921875 352 39.5 c 0
 312.666992188 13.8330078125 269 1 221 1 c 0
 160.333007812 1 105.333007812 24.3330078125 56 71 c 0
EndSplineSet
EndChar

StartChar: t
Encoding: 116 116 56
Width: 400
Flags: MW
HStem: 1 21G<121.333 136.333> 465 25<52.3335 142 58 138 168 244 58 163> 681 20G<187.333 195.667>
LayerCount: 2
Fore
SplineSet
248 490 m 2
 256.666992188 490 260.333007812 486 259 478 c 1
 256.333007812 469.333007812 251.333007812 465 244 465 c 2
 163 465 l 1
 94 78 l 2
 92 63.3330078125 95 51.1669921875 103 41.5 c 0
 111 31.8330078125 122.333007812 27 137 27 c 0
 145 27 148.333007812 22.6669921875 147 14 c 0
 145.666992188 5.3330078125 140.666992188 1 132 1 c 0
 110.666992188 1 94 8.5 82 23.5 c 0
 70 38.5 65.6669921875 56.6669921875 69 78 c 2
 138 465 l 1
 54 465 l 2
 50.6669921875 465 48 466.333007812 46 469 c 0
 44 471.666992188 43.3330078125 474.666992188 44 478 c 0
 45.3330078125 486 50 490 58 490 c 2
 142 490 l 1
 177 689 l 2
 178.333007812 697 183.166992188 701 191.5 701 c 0
 199.833007812 701 203.333007812 697 202 689 c 2
 168 490 l 1
 248 490 l 2
EndSplineSet
EndChar

StartChar: u
Encoding: 117 117 57
Width: 613
Flags: MW
HStem: 0 25
VStem: 83 26<143.667 170.333>
LayerCount: 2
Fore
SplineSet
518 489 m 1
 526.666992188 486.333007812 530.333007812 481.333007812 529 474 c 2
 479 195 l 2
 469.666992188 141 442.833007812 95 398.5 57 c 0
 354.166992188 19 306 0 254 0 c 0
 202 0 161 15.6669921875 131 47 c 0
 99 79 83 118 83 164 c 0
 83 176.666992188 84.3330078125 188.333007812 87 199 c 2
 136 478 l 2
 137.333007812 486.666992188 142.333007812 490.333007812 151 489 c 1
 159 486.333007812 162.333007812 481.333007812 161 474 c 2
 111 195 l 2
 109.666992188 187.666992188 109 177.333007812 109 164 c 0
 109 123.333007812 122.166992188 90 148.5 64 c 0
 174.833007812 38 210.333007812 24.8330078125 255 24.5 c 0
 299.666992188 24.1669921875 342 41.1669921875 382 75.5 c 0
 422 109.833007812 446 151 454 199 c 2
 504 478 l 2
 505.333007812 486.666992188 510 490.333007812 518 489 c 1
EndSplineSet
EndChar

StartChar: v
Encoding: 118 118 58
Width: 582
Flags: W
HStem: 1 21G<176.667 177 177 183> 2 21G<174.667 175.333>
LayerCount: 2
Fore
SplineSet
183 1 m 2x80
 177 1 l 2x80
 176.333007812 1 176 1.1669921875 176 1.5 c 0
 176 1.8330078125 175.666992188 2 175 2 c 0x40
 174.333007812 2 174 2.3330078125 174 3 c 0
 174 3.6669921875 173.666992188 4 173 4 c 0
 172.333007812 4 171.333007812 4.6669921875 170 6 c 2
 168 10 l 1
 54 473 l 2
 52.6669921875 481.666992188 56 486.666992188 64 488 c 1
 71.3330078125 490.666992188 76.3330078125 487.666992188 79 479 c 2
 185 46 l 1
 445 483 l 2
 449.666992188 489.666992188 455.666992188 490.833007812 463 486.5 c 0
 470.333007812 482.166992188 471.666992188 476.666992188 467 470 c 2
 191 7 l 2
 189.36328125 5 188.36328125 4 188 4 c 2
 188 3 l 1
 185.333007812 1.6669921875 183.666992188 1 183 1 c 2x80
EndSplineSet
EndChar

StartChar: w
Encoding: 119 119 59
Width: 861
Flags: W
HStem: -2 21G<182 189 182 182 471 478 471 471> -1 21G<179.667 180.333>
LayerCount: 2
Fore
SplineSet
471 -2 m 1x80
 465 2 l 2
 465 2.6669921875 464.666992188 3 464 3 c 2
 462 7 l 1
 386 321 l 1
 196 4 l 1
 193 1 l 1
 193 0 l 1
 189 -2 l 1
 182 -2 l 2x80
 181.333007812 -1.3330078125 180.666992188 -1 180 -1 c 0x40
 179.333007812 -1 179 -0.6669921875 179 0 c 2
 176 3 l 1
 175 3 l 2
 174.333007812 3.6669921875 174 4.3330078125 174 5 c 0
 174 5.6669921875 173.666992188 6.3330078125 173 7 c 2
 59 472 l 2
 57.6669921875 480.666992188 61 485.666992188 69 487 c 1
 76.3330078125 489.666992188 81.3330078125 486.666992188 84 478 c 2
 190 43 l 1
 378 357 l 2
 381.333007812 362.333007812 385.666992188 364.333007812 391 363 c 1
 398.333007812 363 402.333007812 360 403 354 c 2
 480 43 l 1
 742 482 l 2
 746 490 751.666992188 491.5 759 486.5 c 0
 766.333007812 481.5 767.666992188 475.666992188 763 469 c 2
 485 4 l 2
 485 3 484 2 482 1 c 1
 482 0 l 1
 478 -2 l 1
 471 -2 l 1x80
EndSplineSet
EndChar

StartChar: x
Encoding: 120 120 60
Width: 570
Flags: MW
HStem: 0 21G<71 83.5>
LayerCount: 2
Fore
SplineSet
430 18 m 2
 433.333007812 11.3330078125 431.666992188 5.6669921875 425 1 c 0
 423.666992188 0.3330078125 421 0 417 0 c 0
 413 0 410 2 408 6 c 2
 289 223 l 1
 90 4 l 2
 88 1.3330078125 85.25 0 81.75 0 c 0
 78.25 0 75 1 72 3 c 0
 66 9 65.6669921875 15 71 21 c 2
 276 245 l 1
 153 469 l 2
 148.333007812 476.333007812 150 482 158 486 c 0
 164 490 169.666992188 488.333007812 175 481 c 1
 294 264 l 1
 491 484 l 2
 497 490 503 490.166992188 509 484.5 c 0
 515 478.833007812 515.333007812 473 510 467 c 2
 307 243 l 1
 430 18 l 2
EndSplineSet
EndChar

StartChar: y
Encoding: 121 121 61
Width: 588
Flags: MW
HStem: -204 26<142 158 142 158> 0 26
VStem: 61 26<144.667 169.5 144.667 171>
LayerCount: 2
Fore
SplineSet
482 479 m 2
 484 487 487.666992188 490.5 493 489.5 c 0
 503.586914062 487.514648438 507.919921875 482.681640625 506 475 c 2
 427 26 l 2
 415.666992188 -38 384 -92.1669921875 332 -136.5 c 0
 280 -180.833007812 222 -203.333007812 158 -204 c 0
 123.333007812 -204 90.6669921875 -196 60 -180 c 1
 53.3330078125 -175.333007812 51.6669921875 -169.333007812 55 -162 c 0
 58.3330078125 -154.666992188 64 -153 72 -157 c 0
 97.3330078125 -171 126 -178 158 -178 c 0
 215.333007812 -178.666992188 268 -158.5 316 -117.5 c 0
 364 -76.5 392.666992188 -27.3330078125 402 30 c 1
 415 99 l 1
 393 69 365.5 45.1669921875 332.5 27.5 c 0
 299.5 9.8330078125 262 0.8330078125 220 0.5 c 0
 178 0.1669921875 141 16 109 48 c 0
 77 78.6669921875 61 117.666992188 61 165 c 0
 61 177 62.3330078125 188.333007812 65 199 c 2
 114 479 l 2
 116 487 121 490.333007812 129 489 c 0
 137 487.666992188 140.333007812 483 139 475 c 2
 90 195 l 2
 88 184 87 174 87 165 c 0
 87 124.333007812 100.166992188 91 126.5 65 c 0
 152.833007812 39 188.166992188 25.8330078125 232.5 25.5 c 0
 276.833007812 25.1669921875 319.166992188 42.1669921875 359.5 76.5 c 0
 399.833007812 110.833007812 424 151.666992188 432 199 c 2
 482 479 l 2
EndSplineSet
EndChar

StartChar: z
Encoding: 122 122 62
Width: 554
Flags: W
HStem: -1 25<102 415 102 415> 465 25<151.667 497 156 468> 469 20G<499 501 501 501.333>
LayerCount: 2
Fore
SplineSet
509 480 m 2xa0
 509 475 l 2
 509 473.666992188 508.5 472.5 507.5 471.5 c 2
 507 470 l 1
 102 24 l 1
 415 24 l 2
 423 24 427 19.8330078125 427 11.5 c 0
 427 3.1669921875 423 -1 415 -1 c 2
 74 -1 l 2
 70 -1 68 -0.3330078125 68 1 c 1
 66.6669921875 1 66 1.3330078125 66 2 c 2
 65 2 l 1
 62 8 l 1
 62 11 l 1
 61 11 l 2
 61 11.6669921875 61.1669921875 12 61.5 12 c 0
 61.8330078125 12 62 12.3330078125 62 13 c 2
 62 16 l 1
 64 18 l 2
 64 18.6669921875 64.3330078125 19.3330078125 65 20 c 2
 468 465 l 1
 156 465 l 2
 147.333007812 465 143 469.166992188 143 477.5 c 0
 143 485.833007812 147.333007812 490 156 490 c 2
 497 490 l 2xc0
 497.666992188 490 498.333007812 489.666992188 499 489 c 2
 501 489 l 2
 501.666992188 489 502.666992188 488.333007812 504 487 c 1
 505 487 l 1
 505 486 l 1
 506.333007812 486 507 485.333007812 507 484 c 2
 508 482 l 2
 508.666992188 482 509 481.333007812 509 480 c 2xa0
EndSplineSet
EndChar

StartChar: exclam
Encoding: 33 33 63
Width: 252
Flags: MW
HStem: 2 21G<106.333 110.333>
LayerCount: 2
Fore
SplineSet
213 692 m 2
 215 700 218.833007812 703.5 224.5 702.5 c 0
 235.434570312 700.5703125 239.934570312 695.737304688 238 688 c 2
 147 167 l 2
 145.666992188 160.333007812 141.333007812 157 134 157 c 2
 132 157 l 2
 128.666992188 157.666992188 126 159.5 124 162.5 c 0
 122 165.5 121.333007812 168.666992188 122 172 c 2
 213 692 l 2
113 52 m 1
 121.666992188 49.3330078125 125.333007812 44.3330078125 124 37 c 2
 119 13 l 2
 117.666992188 5.6669921875 113.666992188 2 107 2 c 0
 105.666992188 2 105 2.3330078125 105 3 c 0
 96.3330078125 4.3330078125 92.6669921875 9 94 17 c 2
 99 41 l 2
 100.333007812 49.6669921875 105 53.3330078125 113 52 c 1
EndSplineSet
EndChar

StartChar: parenleft
Encoding: 40 40 64
Width: 430
Flags: MW
HStem: 2 26<187.667 212 212 213> 677 25<304.667 336>
VStem: 71 25<173 228>
LayerCount: 2
Fore
SplineSet
96 216 m 0
 96 90.6669921875 135 28 213 28 c 0
 221.666992188 28 226 23.6669921875 226 15 c 0
 226 6.3330078125 221.666992188 2 213 2 c 2
 212 2 l 2
 163.333007812 2 127 23 103 65 c 0
 81.6669921875 100.333007812 71 145.5 71 200.5 c 0
 71 255.5 75.3330078125 307 84 355 c 0
 102.666992188 457 131 538 169 598 c 0
 213 667.333007812 267.333007812 702 332 702 c 0
 340 702 344 697.833007812 344 689.5 c 0
 344 681.166992188 340 677 332 677 c 0
 277.333007812 677 230.666992188 646.666992188 192 586 c 0
 153.333007812 525.333007812 125.666992188 446.666992188 109 350 c 0
 100.333007812 298 96 253.333007812 96 216 c 0
EndSplineSet
EndChar

StartChar: parenright
Encoding: 41 41 65
Width: 430
Flags: MW
HStem: 2 26<68.6665 100 68.6665 104.667> 677 25<187.667 192 187.667 211.333>
VStem: 309 25<479.333 521.667 468 528.667>
LayerCount: 2
Fore
SplineSet
302 640 m 0
 323.333007812 604.666992188 334 554.333007812 334 489 c 0
 334 447 329.333007812 400.666992188 320 350 c 0
 302.666992188 249.333007812 274.666992188 168.333007812 236 107 c 0
 190.666992188 37 136.333007812 2 73 2 c 0
 64.3330078125 2 60 6.3330078125 60 15 c 0
 60 23.6669921875 64.3330078125 28 73 28 c 0
 127 28 173.166992188 57.8330078125 211.5 117.5 c 0
 249.833007812 177.166992188 277.666992188 256.333007812 295 355 c 0
 304.333007812 405 309 454.666992188 309 504 c 0
 309 553.333007812 299.166992188 594.5 279.5 627.5 c 0
 259.833007812 660.5 230.666992188 677 192 677 c 0
 183.333007812 677 179 681.166992188 179 689.5 c 0
 179 697.833007812 183.333007812 702 192 702 c 0
 241.333007812 702.666992188 278 682 302 640 c 0
EndSplineSet
EndChar

StartChar: plus
Encoding: 43 43 66
Width: 620
Flags: MW
HStem: 98 21G<262.333 270.333> 327 35<74 298 87 291 87 326 333 538> 571 20G<354.667 363>
LayerCount: 2
Fore
SplineSet
250 116 m 2
 291 327 l 1
 80 327 l 2
 68 327 63.3330078125 333 66 345 c 0
 68 356.333007812 75 362 87 362 c 2
 298 362 l 1
 339 574 l 2
 341 585.333007812 348.333007812 591 361 591 c 0
 365 591 368.333007812 589.333007812 371 586 c 0
 373.666992188 582.666992188 374.666992188 578.666992188 374 574 c 2
 333 362 l 1
 545 362 l 2
 549 362 552.5 360.333007812 555.5 357 c 0
 558.5 353.666992188 559.666992188 349.666992188 559 345 c 0
 558.333007812 340.333007812 555.666992188 336.166992188 551 332.5 c 0
 546.333007812 328.833007812 542 327 538 327 c 2
 326 327 l 1
 285 116 l 2
 282.333007812 104 275.666992188 98 265 98 c 0
 259.666992188 98 255.5 99.6669921875 252.5 103 c 0
 249.5 106.333007812 248.666992188 110.666992188 250 116 c 2
EndSplineSet
EndChar

StartChar: less
Encoding: 60 60 67
Width: 620
Flags: MW
HStem: 0 21G<346 350>
LayerCount: 2
Fore
SplineSet
60 352 m 2
 60.6669921875 353.333007812 61 354.666992188 61 356 c 0
 61 357.333007812 61.3330078125 358 62 358 c 0
 62.6669921875 358 63.1669921875 358.333007812 63.5 359 c 0
 63.8330078125 359.666992188 64 360.333007812 64 361 c 0
 64 361.666992188 64.3330078125 362 65 362 c 2
 457 697 l 2
 464.333007812 703.666992188 471.333007812 703 478 695 c 0
 484.666992188 687 484 680 476 674 c 2
 96 349 l 1
 360 25 l 2
 366 17 365.333007812 10 358 4 c 0
 355.333007812 1.3330078125 352 0 348 0 c 0
 344 0 340.333007812 2 337 6 c 2
 63 341 l 1
 61 345 l 1
 61 346 l 2
 60.3330078125 346.666992188 60 348 60 350 c 2
 60 352 l 2
EndSplineSet
EndChar

StartChar: greater
Encoding: 62 62 68
Width: 620
Flags: MW
HStem: 2 21G<102 106>
LayerCount: 2
Fore
SplineSet
512 357 m 1
 512 349 l 2
 511.333007812 348.333007812 511 347.333007812 511 346 c 2
 510 344 l 1
 116 6 l 2
 112 3.3330078125 108 2 104 2 c 0
 100 2 97 4 95 8 c 1
 88.3330078125 14.6669921875 88.6669921875 21.6669921875 96 29 c 2
 477 354 l 1
 212 678 l 2
 205.333007812 686 206.333007812 693 215 699 c 1
 221.666992188 705 228.666992188 704.333007812 236 697 c 1
 509 362 l 1
 511 358 l 1
 512 357 l 1
EndSplineSet
EndChar

StartChar: A
Encoding: 65 65 69
Width: 646
Flags: MW
HStem: 0 21G<68.6665 72.3335 575.333 579 579 581> 188 25<195 526 195 531 181 526>
LayerCount: 2
Fore
SplineSet
63 1 m 0
 55.6669921875 5.6669921875 54.3330078125 11.3330078125 59 18 c 2
 431 693 l 2
 434.333007812 698.333007812 438.666992188 700.333007812 444 699 c 1
 450.666992188 700.333007812 455 697 457 689 c 2
 591 15 l 2
 592.333007812 6.3330078125 589 1.3330078125 581 0 c 1
 579 0 l 2
 571.666992188 0 567.333007812 3.3330078125 566 10 c 2
 531 188 l 1
 181 188 l 1
 81 6 l 2
 77.6669921875 2 74.1669921875 0 70.5 0 c 0
 66.8330078125 0 64.3330078125 0.3330078125 63 1 c 0
438 653 m 1
 195 213 l 1
 526 213 l 1
 438 653 l 1
EndSplineSet
EndChar

StartChar: period
Encoding: 46 46 70
Width: 230
Flags: MW
HStem: 3 50<104.667 111 104 111.333>
LayerCount: 2
Fore
SplineSet
132 28 m 0
 132 21.3330078125 129.666992188 15.5 125 10.5 c 0
 120.333007812 5.5 114.666992188 3 108 3 c 0
 101.333007812 3 95.3330078125 5.5 90 10.5 c 0
 84.6669921875 15.5 82 21.3330078125 82 28 c 0
 82 34.6669921875 84.5 40.5 89.5 45.5 c 0
 94.5 50.5 100.5 53 107.5 53 c 0
 114.5 53 120.333007812 50.5 125 45.5 c 0
 129.666992188 40.5 132 34.6669921875 132 28 c 0
EndSplineSet
EndChar

StartChar: question
Encoding: 63 63 71
Width: 534
Flags: MW
HStem: 0 21G<119 121 119 119> 278 23<180 180> 676 24
VStem: 395 24<517.667 545>
LayerCount: 2
Fore
SplineSet
127 46 m 0
 135 44.6669921875 138.333007812 40.3330078125 137 33 c 2
 133 10 l 2
 131.666992188 3.3330078125 127.666992188 0 121 0 c 2
 119 0 l 1
 111 1.3330078125 107.666992188 6 109 14 c 2
 113 37 l 2
 113.666992188 40.3330078125 115.5 42.8330078125 118.5 44.5 c 0
 121.5 46.1669921875 124.333007812 46.6669921875 127 46 c 0
240 700 m 0
 292 700 334.833007812 683.166992188 368.5 649.5 c 0
 402.166992188 615.833007812 419 573.666992188 419 523 c 0
 419 452.921875 390.333007812 392.587890625 333 342 c 0
 287.666992188 302 236.666992188 280.666992188 180 278 c 1
 158 154 l 2
 156.666992188 147.333007812 152.666992188 144 146 144 c 2
 144 144 l 1
 136 145.333007812 133 150 135 158 c 2
 157 287 l 2
 157.666992188 287.666992188 158 288.333007812 158 289 c 0
 158 297 162 301 170 301 c 0
 222 301 269.666992188 319.666992188 313 357 c 0
 356.333007812 394.333007812 382.666992188 439 392 491 c 0
 394 501.666992188 395 512.333007812 395 523 c 0
 395 567 380.666992188 603.333007812 352 632 c 0
 323.333007812 660.666992188 289 675.166992188 249 675.5 c 0
 209 675.833007812 173 667.333007812 141 650 c 0
 109 632.666992188 82 609.666992188 60 581 c 0
 54.6669921875 574.333007812 49 573.5 43 578.5 c 0
 37 583.5 36.3330078125 589.333007812 41 596 c 0
 65 628 94.6669921875 653.333007812 130 672 c 0
 165.333007812 690.666992188 202 700 240 700 c 0
EndSplineSet
EndChar

StartChar: equal
Encoding: 61 61 72
Width: 620
Flags: MW
HStem: 178 26<88.3335 441 93 441> 389 25<125.333 477 130 477>
LayerCount: 2
Fore
SplineSet
441 204 m 2
 450.333007812 204 455 200 455 192 c 0
 455 188 453.5 184.666992188 450.5 182 c 0
 447.5 179.333007812 444.333007812 178 441 178 c 2
 93 178 l 2
 83.6669921875 178 79 182.666992188 79 192 c 0
 79 200 83.6669921875 204 93 204 c 2
 441 204 l 2
477 414 m 2
 487 414 492 409.833007812 492 401.5 c 0
 492 393.166992188 487 389 477 389 c 2
 130 389 l 2
 120.666992188 389 116 393.166992188 116 401.5 c 0
 116 409.833007812 120.666992188 414 130 414 c 2
 477 414 l 2
EndSplineSet
EndChar

StartChar: hyphen
Encoding: 45 45 73
Width: 408
Flags: MW
HStem: 340 20<72.6665 304 76 304>
LayerCount: 2
Fore
SplineSet
76 340 m 2
 69.3330078125 340 66 343.333007812 66 350 c 0
 66 356.666992188 69.3330078125 360 76 360 c 2
 304 360 l 2
 310 360 313 356.666992188 313 350 c 0
 313 343.333007812 310 340 304 340 c 2
 76 340 l 2
EndSplineSet
EndChar

StartChar: slash
Encoding: 47 47 74
Width: 500
Flags: MW
HStem: 0 21G<8.3335 12.6665>
LayerCount: 2
Fore
SplineSet
3 1 m 0
 -4.3330078125 4.3330078125 -6.3330078125 10 -3 18 c 2
 280 690 l 2
 281.333007812 693.333007812 283.666992188 695.666992188 287 697 c 0
 290.333007812 698.333007812 293.333007812 698.333007812 296 697 c 0
 304 694.333007812 306.666992188 689 304 681 c 2
 19 8 l 2
 17.6669921875 2.6669921875 14.8330078125 0 10.5 0 c 0
 6.1669921875 0 3.6669921875 0.3330078125 3 1 c 0
EndSplineSet
EndChar

StartChar: colon
Encoding: 58 58 75
Width: 240
Flags: MW
HStem: -1 71<115.667 137.333> 528 71<208.667 231>
LayerCount: 2
Fore
SplineSet
240.5 538.5 m 0
 232.166992188 531.5 223.166992188 528 213.5 528 c 0
 203.833007812 528 196.166992188 531.5 190.5 538.5 c 0
 184.833007812 545.5 182.833007812 553.833007812 184.5 563.5 c 0
 186.166992188 573.166992188 191 581.5 199 588.5 c 0
 207 595.5 216 599 226 599 c 0
 236 599 243.833007812 595.5 249.5 588.5 c 0
 255.166992188 581.5 257.166992188 573.166992188 255.5 563.5 c 0
 253.833007812 553.833007812 248.833007812 545.5 240.5 538.5 c 0
105.5 59.5 m 0
 113.833007812 66.5 122.833007812 70 132.5 70 c 0
 142.166992188 70 150 66.5 156 59.5 c 0
 162 52.5 164.166992188 44.1669921875 162.5 34.5 c 0
 160.833007812 24.8330078125 155.833007812 16.5 147.5 9.5 c 0
 139.166992188 2.5 130.166992188 -1 120.5 -1 c 0
 110.833007812 -1 103 2.5 97 9.5 c 0
 91 16.5 88.8330078125 24.8330078125 90.5 34.5 c 0
 92.1669921875 44.1669921875 97.1669921875 52.5 105.5 59.5 c 0
EndSplineSet
EndChar

StartChar: semicolon
Encoding: 59 59 76
Width: 240
Flags: MW
HStem: -55 21G<65.6665 69 69 73> 3 82<96 124.333> 615 83<207.667 234.333>
LayerCount: 2
Fore
SplineSet
245.5 627.5 m 0
 235.833007812 619.166992188 225.166992188 615 213.5 615 c 0
 201.833007812 615 192.833007812 619 186.5 627 c 0
 180.166992188 635 177.666992188 645 179 657 c 1
 181.666992188 668.333007812 187.666992188 678 197 686 c 0
 206.333007812 694 216.833007812 698 228.5 698 c 0
 240.166992188 698 249.166992188 694 255.5 686 c 0
 261.833007812 678 264.166992188 668.333007812 262.5 657 c 0
 260.833007812 645.666992188 255.166992188 635.833007812 245.5 627.5 c 0
156 53 m 1
 154 43 153 37 153 35 c 0
 150.333007812 17 142.833007812 -0.8330078125 130.5 -18.5 c 0
 118.166992188 -36.1669921875 99 -48.3330078125 73 -55 c 1
 69 -55 l 2
 62.3330078125 -55 59 -51.1669921875 59 -43.5 c 0
 59 -35.8330078125 63 -31.3330078125 71 -30 c 0
 93 -24.6669921875 108 -12.6669921875 116 6 c 1
 112 4 106.5 3 99.5 3 c 0
 92.5 3 85.6669921875 7 79 15 c 0
 72.3330078125 23 69.6669921875 32.6669921875 71 44 c 0
 73 55.3330078125 78.8330078125 65 88.5 73 c 0
 98.1669921875 81 108.333007812 85 119 85 c 0
 129.666992188 85 138.166992188 82 144.5 76 c 0
 150.833007812 70 154 62.6669921875 154 54 c 1
 156 53 l 1
EndSplineSet
EndChar

StartChar: comma
Encoding: 44 44 77
Width: 230
Flags: MW
HStem: -31 21G<61 63 63 66> 34 20G<79.3335 104>
LayerCount: 2
Fore
SplineSet
57 -25 m 1
 55 -21.6669921875 56.6669921875 -18.6669921875 62 -16 c 1
 74 -12.6669921875 81.6669921875 -6 85 4 c 1
 80 4 l 2
 72.6669921875 4 66.5 6.3330078125 61.5 11 c 0
 56.5 15.6669921875 54 21.3330078125 54 28 c 0
 54 34.6669921875 56.6669921875 40.6669921875 62 46 c 0
 67.3330078125 51.3330078125 74.6669921875 54 84 54 c 0
 93.3330078125 54 99.6669921875 48 103 36 c 0
 103 34.6669921875 103.333007812 34 104 34 c 2
 104 24 l 2
 104 -6 91.3330078125 -24.3330078125 66 -31 c 1
 63 -31 l 2
 59 -31 57 -29 57 -25 c 1
EndSplineSet
EndChar

StartChar: quotesingle
Encoding: 39 39 78
Width: 230
Flags: MW
HStem: 616 21G<75 77 77 80> 681 20G<93.3335 118>
LayerCount: 2
Fore
SplineSet
71 622 m 1
 69 625.333007812 70.6669921875 628.333007812 76 631 c 1
 88 633.666992188 95.6669921875 640.333007812 99 651 c 1
 94 651 l 2
 86.6669921875 651 80.5 653.333007812 75.5 658 c 0
 70.5 662.666992188 68 668.5 68 675.5 c 0
 68 682.5 70.6669921875 688.5 76 693.5 c 0
 81.3330078125 698.5 88.6669921875 701 98 701 c 0
 107.333007812 701 113.666992188 695 117 683 c 0
 117 681.666992188 117.333007812 681 118 681 c 2
 118 671 l 2
 118 641 105.333007812 622.666992188 80 616 c 1
 77 616 l 2
 73 616 71 618 71 622 c 1
EndSplineSet
EndChar

StartChar: quotedbl
Encoding: 34 34 79
Width: 410
Flags: MW
HStem: 614 50<83.3335 98> 679 20G<106 109 109 111 180 183 183 185>
LayerCount: 2
Fore
SplineSet
68 634 m 2
 68 644 l 2
 68 674 80.6669921875 692.333007812 106 699 c 1
 109 699 l 2
 113 699 115 697 115 693 c 1
 117 689.666992188 115.333007812 686.666992188 110 684 c 1
 98.6669921875 680.666992188 90.6669921875 673.666992188 86 663 c 1
 87.3330078125 663.666992188 90.5 664 95.5 664 c 0
 100.5 664 105.5 661.666992188 110.5 657 c 0
 115.5 652.333007812 118 646.666992188 118 640 c 0
 118 633.333007812 115.333007812 627.333007812 110 622 c 0
 104.666992188 616.666992188 97.3330078125 614 88 614 c 0
 78.6669921875 614 72.3330078125 620 69 632 c 0
 68.3330078125 632 68 632.666992188 68 634 c 2
142 634 m 2
 142 644 l 2
 142 674 154.666992188 692.333007812 180 699 c 1
 183 699 l 2
 187 699 189 697 189 693 c 1
 191 689.666992188 189.333007812 686.666992188 184 684 c 1
 172.666992188 680.666992188 164.666992188 673.666992188 160 663 c 1
 161.333007812 663.666992188 164.5 664 169.5 664 c 0
 174.5 664 179.5 661.666992188 184.5 657 c 0
 189.5 652.333007812 192 646.666992188 192 640 c 0
 192 633.333007812 189.333007812 627.333007812 184 622 c 0
 178.666992188 616.666992188 171.333007812 614 162 614 c 0
 152.666992188 614 146.333007812 620 143 632 c 0
 142.333007812 632 142 632.666992188 142 634 c 2
EndSplineSet
EndChar

StartChar: underscore
Encoding: 95 95 80
Width: 600
Flags: MW
HStem: -160 34<-6.3335 338 4 331>
LayerCount: 2
Fore
SplineSet
-3 -160 m 2
 -9.6669921875 -160 -14.6669921875 -158.666992188 -18 -156 c 0
 -21.3330078125 -153.333007812 -22.3330078125 -149 -21 -143 c 0
 -19 -131.666992188 -10.6669921875 -126 4 -126 c 2
 338 -126 l 2
 344.666992188 -126 349.666992188 -127.333007812 353 -130 c 0
 356.333007812 -132.666992188 357.666992188 -137 357 -143 c 0
 354.333007812 -154.333007812 345.666992188 -160 331 -160 c 2
 -3 -160 l 2
EndSplineSet
EndChar

StartChar: asterisk
Encoding: 42 42 81
Width: 430
Flags: MW
HStem: 30 21G<207.667 217.333> 176 29<87.6665 207 95 200 274 381> 330 20G<258.667 268.333>
LayerCount: 2
Fore
SplineSet
315 79 m 1
 247 157 l 1
 229 45 l 2
 227.666992188 35 222.166992188 30 212.5 30 c 0
 202.833007812 30 198.666992188 35 200 45 c 2
 218 158 l 1
 127 79 l 2
 121.666992188 75.6669921875 117.166992188 74 113.5 74 c 0
 109.833007812 74 108 75.6669921875 108 79 c 1
 100.666992188 84.3330078125 101.333007812 90.6669921875 110 98 c 2
 200 176 l 1
 90 176 l 2
 85.3330078125 176 82 177.5 80 180.5 c 0
 78 183.5 77.6669921875 187 79 191 c 1
 79 200.333007812 84.3330078125 205 95 205 c 2
 207 205 l 1
 140 284 l 2
 133.333007812 290.666992188 134.666992188 297.333007812 144 304 c 1
 150.666992188 310 157 310 163 304 c 2
 229 225 l 1
 247 336 l 2
 248.333007812 345.333007812 253.833007812 350 263.5 350 c 0
 273.166992188 350 277.333007812 345.333007812 276 336 c 2
 258 225 l 1
 351 304 l 2
 357.666992188 309.333007812 364.333007812 309.333007812 371 304 c 1
 373.666992188 296.666992188 372.333007812 290 367 284 c 1
 274 205 l 1
 386 205 l 2
 394.666992188 205 399 200.333007812 399 191 c 1
 395 181 389 176 381 176 c 2
 270 176 l 1
 337 98 l 2
 342.333007812 90.6669921875 341.666992188 84.3330078125 335 79 c 0
 329.666992188 75.6669921875 325 74 321 74 c 0
 317 74 315 75.6669921875 315 79 c 1
EndSplineSet
EndChar

StartChar: at
Encoding: 64 64 82
Width: 980
Flags: W
HStem: 0 25<380 390> 117 77 169 25<390 420.333> 506 25<445.667 485> 675 25
LayerCount: 2
Fore
SplineSet
499 700 m 0xb8
 595.666992188 700 672.166992188 665.833007812 728.5 597.5 c 0
 784.833007812 529.166992188 804.333007812 446.666992188 787 350 c 0
 776.29296875 288.61328125 753.459960938 234.61328125 718.5 188 c 0
 704.5 169.333007812 692.25 156.5 681.75 149.5 c 0
 649.25 127.833007812 623 117 603 117 c 0xd8
 583 117 569.333007812 124 562 138 c 0
 554.666992188 152 552 166.333007812 554 181 c 1
 554 182 l 1
 567 256 l 1
 547 229.333007812 522.666992188 208.166992188 494 192.5 c 0
 465.333007812 176.833007812 435.666992188 169 405 169 c 0
 357.666992188 169 320.5 186.666992188 293.5 222 c 0
 266.5 257.333007812 257.333007812 300 266 350 c 0
 275.333007812 400 299.666992188 442.666992188 339 478 c 0
 378.333007812 513.333007812 421.833007812 531 469.5 531 c 0
 517.166992188 531 554.5 513.333007812 581.5 478 c 0
 608.5 442.666992188 617.666992188 400 609 350 c 0
 607.666992188 346 607 342.666992188 607 340 c 2
 607 338 l 1
 579 184 l 1
 580 184 l 1
 577.333007812 173.333007812 578.666992188 163.833007812 584 155.5 c 0
 589.333007812 147.166992188 596 143 604 143 c 0
 635.936523438 143 665.936523438 160.333007812 694 195 c 1
 700 202 l 1
 732.666992188 248 753.333007812 297.333007812 762 350 c 0
 777.333007812 439.333007812 759 515.666992188 707 579 c 0
 655 642.333007812 584.333007812 674.333007812 495 675 c 1
 405 674.333007812 322.833007812 642.333007812 248.5 579 c 0
 174.166992188 515.666992188 129 439.333007812 113 350 c 0
 97 260.666992188 115.166992188 184.333007812 167.5 121 c 0
 219.833007812 57.6669921875 290.666992188 25.6669921875 380 25 c 0
 404.666992188 25 432 28.3330078125 462 35 c 0
 470 37 474.666992188 34 476 26 c 1
 476 18 472 13 464 11 c 0
 433.333007812 3.6669921875 404 0 376 0 c 0
 279.333007812 0 202.666992188 34.1669921875 146 102.5 c 0
 89.3330078125 170.833007812 69.6669921875 253.333007812 87 350 c 0
 98.3330078125 413.333007812 124.333007812 471.833007812 165 525.5 c 0
 205.666992188 579.166992188 255.666992188 621.666992188 315 653 c 0
 374.333007812 684.333007812 435.666992188 700 499 700 c 0xb8
410 194 m 0
 450 194 487 209.166992188 521 239.5 c 0
 555 269.833007812 575.666992188 306.666992188 583 350 c 0
 591 393.333007812 583.333007812 430.166992188 560 460.5 c 0
 536.666992188 490.833007812 505 506 465 506 c 0
 425 506 388 490.833007812 354 460.5 c 0
 320 430.166992188 299.166992188 393.333007812 291.5 350 c 0
 283.833007812 306.666992188 291.666992188 269.833007812 315 239.5 c 0
 338.333007812 209.166992188 370 194 410 194 c 0
EndSplineSet
EndChar

StartChar: backslash
Encoding: 92 92 83
Width: 500
Flags: MW
HStem: 1 21G<302.333 306.667>
LayerCount: 2
Fore
SplineSet
312 2 m 0
 311.333007812 1.3330078125 308.833007812 1 304.5 1 c 0
 300.166992188 1 297.333007812 3.6669921875 296 9 c 2
 11 682 l 2
 8.3330078125 690 11 695.333007812 19 698 c 0
 21.6669921875 699.333007812 24.6669921875 699.333007812 28 698 c 0
 31.3330078125 696.666992188 33.6669921875 694.333007812 35 691 c 2
 318 19 l 2
 321.333007812 11 319.333007812 5.3330078125 312 2 c 0
EndSplineSet
EndChar

StartChar: quotedblleft
Encoding: 256 8220 84
Width: 410
Flags: MW
HStem: 510 21G<102 111 282 291> 684 20G<192.333 204 372.333 384>
LayerCount: 2
Fore
SplineSet
391 689 m 0
 390.333007812 684.333007812 386.666992188 680 380 676 c 0
 342 658 320 632.333007812 314 599 c 1
 331.333007812 594.333007812 337.666992188 582.666992188 333 564 c 2
 327 543 l 2
 325 533.666992188 320 525.833007812 312 519.5 c 0
 304 513.166992188 295.5 510 286.5 510 c 0
 277.5 510 270.5 513.333007812 265.5 520 c 0
 260.5 526.666992188 259 534.333007812 261 543 c 2
 268 568 l 1
 280 619.333007812 298.166992188 654.833007812 322.5 674.5 c 0
 346.833007812 694.166992188 365.666992188 704 379 704 c 0
 389 704 393 699 391 689 c 0
211 689 m 0
 210.333007812 684.333007812 206.666992188 680 200 676 c 0
 162 658 140 632.333007812 134 599 c 1
 151.333007812 594.333007812 157.666992188 582.666992188 153 564 c 2
 147 543 l 2
 145 533.666992188 140 525.833007812 132 519.5 c 0
 124 513.166992188 115.5 510 106.5 510 c 0
 97.5 510 90.5 513.333007812 85.5 520 c 0
 80.5 526.666992188 79 534.333007812 81 543 c 2
 88 568 l 1
 100 619.333007812 118.166992188 654.833007812 142.5 674.5 c 0
 166.833007812 694.166992188 185.666992188 704 199 704 c 0
 209 704 213 699 211 689 c 0
EndSplineSet
EndChar

StartChar: quotedblright
Encoding: 257 8221 85
Width: 410
Flags: MW
HStem: 510 21G<68 79.6665 248 259.667> 684 20G<161 170 341 350>
LayerCount: 2
Fore
SplineSet
61 525 m 0
 61.6669921875 529.666992188 65.3330078125 534 72 538 c 0
 110 556 132 581.666992188 138 615 c 1
 120.666992188 619.666992188 114.333007812 631.333007812 119 650 c 2
 125 671 l 2
 127 680.333007812 132 688.166992188 140 694.5 c 0
 148 700.833007812 156.5 704 165.5 704 c 0
 174.5 704 181.5 700.666992188 186.5 694 c 0
 191.5 687.333007812 193 679.666992188 191 671 c 2
 184 646 l 1
 172 594.666992188 153.833007812 559.166992188 129.5 539.5 c 0
 105.166992188 519.833007812 86.3330078125 510 73 510 c 0
 63 510 59 515 61 525 c 0
241 525 m 0
 241.666992188 529.666992188 245.333007812 534 252 538 c 0
 290 556 312 581.666992188 318 615 c 1
 300.666992188 619.666992188 294.333007812 631.333007812 299 650 c 2
 305 671 l 2
 307 680.333007812 312 688.166992188 320 694.5 c 0
 328 700.833007812 336.5 704 345.5 704 c 0
 354.5 704 361.5 700.666992188 366.5 694 c 0
 371.5 687.333007812 373 679.666992188 371 671 c 2
 364 646 l 1
 352 594.666992188 333.833007812 559.166992188 309.5 539.5 c 0
 285.166992188 519.833007812 266.333007812 510 253 510 c 0
 243 510 239 515 241 525 c 0
EndSplineSet
EndChar

StartChar: quoteleft
Encoding: 259 8216 87
Width: 230
Flags: MW
HStem: 614 21G<115 118 115 115> 679 20G<77 102.333>
LayerCount: 2
Fore
SplineSet
77 669 m 2
 77 679 l 2
 77 679.666992188 77.3330078125 680.333007812 78 681 c 0
 81.3330078125 693 87.8330078125 699 97.5 699 c 0
 107.166992188 699 114.5 696.5 119.5 691.5 c 0
 124.5 686.5 127 680.5 127 673.5 c 0
 127 666.5 124.5 660.666992188 119.5 656 c 0
 114.5 651.333007812 108.333007812 649 101 649 c 2
 95 649 l 1
 99.6669921875 638.333007812 107.666992188 631.666992188 119 629 c 1
 124.333007812 626.333007812 126 623.333007812 124 620 c 1
 124 616 122 614 118 614 c 2
 115 614 l 1
 89.6669921875 620.666992188 77 639 77 669 c 2
EndSplineSet
EndChar

StartChar: quoteright
Encoding: 260 8217 88
Width: 230
Flags: MW
HStem: 615 21G<66 68 68 71> 680 20G<83.6665 109>
LayerCount: 2
Fore
SplineSet
62 621 m 1
 60 624.333007812 61.6669921875 627.333007812 67 630 c 1
 79 632.666992188 86.6669921875 639.333007812 90 650 c 1
 85 650 l 2
 77.6669921875 650 71.5 652.333007812 66.5 657 c 0
 61.5 661.666992188 59 667.333007812 59 674 c 0
 59 680.666992188 61.5 686.666992188 66.5 692 c 0
 71.5 697.333007812 78.8330078125 700 88.5 700 c 0
 98.1669921875 700 104.666992188 694 108 682 c 0
 108 680.666992188 108.333007812 680 109 680 c 2
 109 670 l 2
 109 640 96.3330078125 621.666992188 71 615 c 1
 68 615 l 2
 64 615 62 617 62 621 c 1
EndSplineSet
EndChar

StartChar: grave
Encoding: 96 96 89
Width: 500
Flags: MW
HStem: 703 20G<177.333 188.667>
LayerCount: 2
Fore
SplineSet
274 612 m 2
 276.666992188 608 278 604 278 600 c 0
 278 596 274.166992188 595.666992188 266.5 599 c 0
 258.833007812 602.333007812 252.333007812 607 247 613 c 2
 176 690 l 2
 167.333007812 698.666992188 164 704.666992188 166 708 c 1
 166 718 171.666992188 723 183 723 c 0
 194.333007812 723 204 717 212 705 c 2
 274 612 l 2
EndSplineSet
EndChar

StartChar: dieresis
Encoding: 168 168 90
Width: 500
Flags: MW
HStem: 603 68<165.333 167.667 347.333 349.667>
LayerCount: 2
Fore
SplineSet
133 637 m 0
 134.333007812 646.333007812 138.5 654.333007812 145.5 661 c 0
 152.5 667.666992188 160.666992188 671 170 671 c 0
 179.333007812 671 187 667.666992188 193 661 c 0
 199 654.333007812 201.333007812 646.166992188 200 636.5 c 0
 198.666992188 626.833007812 194.5 618.833007812 187.5 612.5 c 0
 180.5 606.166992188 172.333007812 603 163 603 c 0
 153.666992188 603 146 606.333007812 140 613 c 0
 134 619.666992188 131.666992188 627.666992188 133 637 c 0
315 637 m 0
 316.333007812 646.333007812 320.5 654.333007812 327.5 661 c 0
 334.5 667.666992188 342.666992188 671 352 671 c 0
 361.333007812 671 369 667.666992188 375 661 c 0
 381 654.333007812 383.5 646.333007812 382.5 637 c 0
 381.5 627.666992188 377.333007812 619.666992188 370 613 c 0
 362.666992188 606.333007812 354.333007812 603 345 603 c 0
 335.666992188 603 328 606.333007812 322 613 c 0
 316 619.666992188 313.666992188 627.666992188 315 637 c 0
EndSplineSet
EndChar

StartChar: circumflex
Encoding: 261 710 91
Width: 500
Flags: MW
HStem: 700 20G<273 281 281 285.667>
LayerCount: 2
Fore
SplineSet
270 694 m 1
 185 618 l 2
 170.333007812 606 160.666992188 600 156 600 c 0
 146.748046875 601.123046875 142.08203125 601.790039062 142 602 c 0
 142.666992188 605.333007812 145.333007812 609.333007812 150 614 c 2
 241 702 l 2
 254.333007812 714 265 720 273 720 c 2
 281 720 l 2
 290.333007812 720 298.333007812 714 305 702 c 2
 358 614 l 2
 360.666992188 610 361.5 606.333007812 360.5 603 c 0
 359.5 599.666992188 357.5 598.333007812 354.5 599 c 0
 351.5 599.666992188 348.833007812 600 346.5 600 c 0
 344.166992188 600 341.666992188 600.833007812 339 602.5 c 0
 336.333007812 604.166992188 334.333007812 605.666992188 333 607 c 0
 331.666992188 608.333007812 330 610.5 328 613.5 c 0
 326 616.5 324.666992188 618.333007812 324 619 c 2
 270 694 l 1
EndSplineSet
EndChar

StartChar: tilde
Encoding: 262 732 92
Width: 500
Flags: W
HStem: 590 21G<115.667 124.333> 602 37<307.333 323.333 307.333 332> 641 36<177.333 190.667 177.333 191> 679 20G<374.667 382>
LayerCount: 2
Fore
SplineSet
137 602 m 0x70
 133 594 127.666992188 590 121 590 c 0xb0
 110.333007812 590 105 594.333007812 105 603 c 0
 105 604.333007812 106.833007812 610.833007812 110.5 622.5 c 0
 114.166992188 634.166992188 124 646.166992188 140 658.5 c 0
 156 670.833007812 170.666992188 677 184 677 c 0
 197.333007812 677 219.333007812 670.666992188 250 658 c 0
 280.666992188 645.333007812 301.666992188 639 313 639 c 0
 333.666992188 639 350.333007812 653.333007812 363 682 c 1
 363 687.333007812 364.5 691.5 367.5 694.5 c 0
 370.5 697.5 373.333007812 699 376 699 c 0
 388 699 394 693.333007812 394 682 c 0
 394 678 393.333007812 674 392 670 c 0
 377.333007812 624.666992188 351 602 313 602 c 0
 301 602 279.666992188 608.5 249 621.5 c 0
 218.333007812 634.5 197 641 185 641 c 0
 164.333007812 641 148.333007812 628 137 602 c 0x70
EndSplineSet
EndChar

StartChar: acute
Encoding: 180 180 93
Width: 500
Flags: MW
HStem: 703 20G<287.333 295.667>
LayerCount: 2
Fore
SplineSet
232 613 m 2
 226.666992188 607 220.166992188 602.333007812 212.5 599 c 0
 204.833007812 595.666992188 201 596 201 600 c 0
 201 604 202.333007812 608 205 612 c 2
 267 705 l 2
 275 717 283.166992188 723 291.5 723 c 0
 299.833007812 723 305.5 721.928710938 308.5 719.786132812 c 0
 311.5 717.642578125 313 713.713867188 313 708 c 1
 315 704.666992188 311.666992188 698.666992188 303 690 c 2
 232 613 l 2
EndSplineSet
EndChar

StartChar: egrave
Encoding: 232 232 94
Width: 584
Flags: MW
HStem: 0 26<235.333 261> 247 25<97 515 97 527 91 515> 464 25 703 20G<339.333 350.667>
VStem: 61 25<177.333 211.333> 516 25<283.667 312.667>
LayerCount: 2
Fore
SplineSet
61 203 m 0
 61 219.666992188 62.3330078125 234.333007812 65 247 c 0
 77 314.333007812 110 371.5 164 418.5 c 0
 218 465.5 275.666992188 489.166992188 337 489.5 c 0
 398.333007812 489.833007812 447.666992188 470.333007812 485 431 c 1
 522.333007812 393.666992188 541 345.666992188 541 287 c 0
 541 271.666992188 540.333007812 261.333007812 539 256 c 0
 536.333007812 250 532.333007812 247 527 247 c 2
 91 247 l 1
 87.6669921875 240.333007812 86 225.666992188 86 203 c 0
 86 151.666992188 102.333007812 109.333007812 135 76 c 0
 167.666992188 42.6669921875 209.666992188 26 261 26 c 0
 297 26 332.333007812 35 367 53 c 0
 401.666992188 71 431.333007812 95.3330078125 456 126 c 0
 460.666992188 132 466.666992188 132.666992188 474 128 c 1
 480 122 480.666992188 116 476 110 c 0
 416.666992188 38 345 1.3330078125 261 0 c 0
 202.333007812 0 154.333007812 19.6669921875 117 59 c 1
 79.6669921875 96.3330078125 61 144.333007812 61 203 c 0
467.5 414 m 0
 435.166992188 447.333007812 392.833007812 464.166992188 340.5 464.5 c 0
 288.166992188 464.833007812 238.666992188 446.5 192 409.5 c 0
 145.333007812 372.5 113.666992188 326.666992188 97 272 c 1
 515 272 l 1
 515.666992188 275.333007812 516 280.333007812 516 287 c 0
 516 338.333007812 499.833007812 380.666992188 467.5 414 c 0
436 612 m 2
 438.666992188 608 440 604 440 600 c 0
 440 596 436.166992188 595.666992188 428.5 599 c 0
 420.833007812 602.333007812 414.333007812 607 409 613 c 2
 338 690 l 2
 329.333007812 698.666992188 326 704.666992188 328 708 c 1
 328 718 333.666992188 723 345 723 c 0
 356.333007812 723 366 717 374 705 c 2
 436 612 l 2
EndSplineSet
EndChar

StartChar: eacute
Encoding: 233 233 95
Width: 584
Flags: MW
HStem: 0 26<235.333 261> 247 25<97 515 97 527 91 515> 464 25 703 20G<366.333 374.667>
VStem: 61 25<177.333 211.333> 516 25<283.667 312.667>
LayerCount: 2
Fore
SplineSet
61 203 m 0
 61 219.666992188 62.3330078125 234.333007812 65 247 c 0
 77 314.333007812 110 371.5 164 418.5 c 0
 218 465.5 275.666992188 489.166992188 337 489.5 c 0
 398.333007812 489.833007812 447.666992188 470.333007812 485 431 c 1
 522.333007812 393.666992188 541 345.666992188 541 287 c 0
 541 271.666992188 540.333007812 261.333007812 539 256 c 0
 536.333007812 250 532.333007812 247 527 247 c 2
 91 247 l 1
 87.6669921875 240.333007812 86 225.666992188 86 203 c 0
 86 151.666992188 102.333007812 109.333007812 135 76 c 0
 167.666992188 42.6669921875 209.666992188 26 261 26 c 0
 297 26 332.333007812 35 367 53 c 0
 401.666992188 71 431.333007812 95.3330078125 456 126 c 0
 460.666992188 132 466.666992188 132.666992188 474 128 c 1
 480 122 480.666992188 116 476 110 c 0
 416.666992188 38 345 1.3330078125 261 0 c 0
 202.333007812 0 154.333007812 19.6669921875 117 59 c 1
 79.6669921875 96.3330078125 61 144.333007812 61 203 c 0
467.5 414 m 0
 435.166992188 447.333007812 392.833007812 464.166992188 340.5 464.5 c 0
 288.166992188 464.833007812 238.666992188 446.5 192 409.5 c 0
 145.333007812 372.5 113.666992188 326.666992188 97 272 c 1
 515 272 l 1
 515.666992188 275.333007812 516 280.333007812 516 287 c 0
 516 338.333007812 499.833007812 380.666992188 467.5 414 c 0
311 613 m 2
 305.666992188 607 299.166992188 602.333007812 291.5 599 c 0
 283.833007812 595.666992188 280 596 280 600 c 0
 280 604 281.333007812 608 284 612 c 2
 346 705 l 2
 354 717 362.166992188 723 370.5 723 c 0
 378.833007812 723 384.5 721.928710938 387.5 719.786132812 c 0
 390.5 717.642578125 392 713.713867188 392 708 c 1
 394 704.666992188 390.666992188 698.666992188 382 690 c 2
 311 613 l 2
EndSplineSet
EndChar

StartChar: ecircumflex
Encoding: 234 234 96
Width: 584
Flags: MW
HStem: 0 26<235.333 261> 247 25<97 515 97 527 91 515> 464 25 700 20G<390 398 398 402.667>
VStem: 61 25<177.333 211.333> 516 25<283.667 312.667>
LayerCount: 2
Fore
SplineSet
61 203 m 0
 61 219.666992188 62.3330078125 234.333007812 65 247 c 0
 77 314.333007812 110 371.5 164 418.5 c 0
 218 465.5 275.666992188 489.166992188 337 489.5 c 0
 398.333007812 489.833007812 447.666992188 470.333007812 485 431 c 1
 522.333007812 393.666992188 541 345.666992188 541 287 c 0
 541 271.666992188 540.333007812 261.333007812 539 256 c 0
 536.333007812 250 532.333007812 247 527 247 c 2
 91 247 l 1
 87.6669921875 240.333007812 86 225.666992188 86 203 c 0
 86 151.666992188 102.333007812 109.333007812 135 76 c 0
 167.666992188 42.6669921875 209.666992188 26 261 26 c 0
 297 26 332.333007812 35 367 53 c 0
 401.666992188 71 431.333007812 95.3330078125 456 126 c 0
 460.666992188 132 466.666992188 132.666992188 474 128 c 1
 480 122 480.666992188 116 476 110 c 0
 416.666992188 38 345 1.3330078125 261 0 c 0
 202.333007812 0 154.333007812 19.6669921875 117 59 c 1
 79.6669921875 96.3330078125 61 144.333007812 61 203 c 0
467.5 414 m 0
 435.166992188 447.333007812 392.833007812 464.166992188 340.5 464.5 c 0
 288.166992188 464.833007812 238.666992188 446.5 192 409.5 c 0
 145.333007812 372.5 113.666992188 326.666992188 97 272 c 1
 515 272 l 1
 515.666992188 275.333007812 516 280.333007812 516 287 c 0
 516 338.333007812 499.833007812 380.666992188 467.5 414 c 0
387 694 m 1
 302 618 l 2
 287.333007812 606 277.666992188 600 273 600 c 0
 263.748046875 601.123046875 259.08203125 601.790039062 259 602 c 0
 259.666992188 605.333007812 262.333007812 609.333007812 267 614 c 2
 358 702 l 2
 371.333007812 714 382 720 390 720 c 2
 398 720 l 2
 407.333007812 720 415.333007812 714 422 702 c 2
 475 614 l 2
 477.666992188 610 478.5 606.333007812 477.5 603 c 0
 476.5 599.666992188 474.5 598.333007812 471.5 599 c 0
 468.5 599.666992188 465.833007812 600 463.5 600 c 0
 461.166992188 600 458.666992188 600.833007812 456 602.5 c 0
 453.333007812 604.166992188 451.333007812 605.666992188 450 607 c 0
 448.666992188 608.333007812 447 610.5 445 613.5 c 0
 443 616.5 441.666992188 618.333007812 441 619 c 2
 387 694 l 1
EndSplineSet
EndChar

StartChar: edieresis
Encoding: 235 235 97
Width: 584
Flags: MW
HStem: 0 26<235.333 261> 247 25<97 515 97 527 91 515> 464 25 603 68<286.333 288.667 468.333 470.667>
VStem: 61 25<177.333 211.333> 516 25<283.667 312.667>
LayerCount: 2
Fore
SplineSet
61 203 m 0
 61 219.666992188 62.3330078125 234.333007812 65 247 c 0
 77 314.333007812 110 371.5 164 418.5 c 0
 218 465.5 275.666992188 489.166992188 337 489.5 c 0
 398.333007812 489.833007812 447.666992188 470.333007812 485 431 c 1
 522.333007812 393.666992188 541 345.666992188 541 287 c 0
 541 271.666992188 540.333007812 261.333007812 539 256 c 0
 536.333007812 250 532.333007812 247 527 247 c 2
 91 247 l 1
 87.6669921875 240.333007812 86 225.666992188 86 203 c 0
 86 151.666992188 102.333007812 109.333007812 135 76 c 0
 167.666992188 42.6669921875 209.666992188 26 261 26 c 0
 297 26 332.333007812 35 367 53 c 0
 401.666992188 71 431.333007812 95.3330078125 456 126 c 0
 460.666992188 132 466.666992188 132.666992188 474 128 c 1
 480 122 480.666992188 116 476 110 c 0
 416.666992188 38 345 1.3330078125 261 0 c 0
 202.333007812 0 154.333007812 19.6669921875 117 59 c 1
 79.6669921875 96.3330078125 61 144.333007812 61 203 c 0
467.5 414 m 0
 435.166992188 447.333007812 392.833007812 464.166992188 340.5 464.5 c 0
 288.166992188 464.833007812 238.666992188 446.5 192 409.5 c 0
 145.333007812 372.5 113.666992188 326.666992188 97 272 c 1
 515 272 l 1
 515.666992188 275.333007812 516 280.333007812 516 287 c 0
 516 338.333007812 499.833007812 380.666992188 467.5 414 c 0
254 637 m 0
 255.333007812 646.333007812 259.5 654.333007812 266.5 661 c 0
 273.5 667.666992188 281.666992188 671 291 671 c 0
 300.333007812 671 308 667.666992188 314 661 c 0
 320 654.333007812 322.333007812 646.166992188 321 636.5 c 0
 319.666992188 626.833007812 315.5 618.833007812 308.5 612.5 c 0
 301.5 606.166992188 293.333007812 603 284 603 c 0
 274.666992188 603 267 606.333007812 261 613 c 0
 255 619.666992188 252.666992188 627.666992188 254 637 c 0
436 637 m 0
 437.333007812 646.333007812 441.5 654.333007812 448.5 661 c 0
 455.5 667.666992188 463.666992188 671 473 671 c 0
 482.333007812 671 490 667.666992188 496 661 c 0
 502 654.333007812 504.5 646.333007812 503.5 637 c 0
 502.5 627.666992188 498.333007812 619.666992188 491 613 c 0
 483.666992188 606.333007812 475.333007812 603 466 603 c 0
 456.666992188 603 449 606.333007812 443 613 c 0
 437 619.666992188 434.666992188 627.666992188 436 637 c 0
EndSplineSet
EndChar

StartChar: igrave
Encoding: 236 236 98
Width: 249
Flags: MW
HStem: 0 21G<13 13 13 16> 703 20G<47.3335 58.6665>
LayerCount: 2
Fore
SplineSet
13 0 m 1
 5 2.6669921875 1.6669921875 7.6669921875 3 15 c 2
 84 479 l 1
 86.6669921875 487.666992188 91.6669921875 490.666992188 99 488 c 1
 107.666992188 486.666992188 111 482 109 474 c 2
 28 10 l 2
 26.6669921875 3.3330078125 22.6669921875 0 16 0 c 2
 13 0 l 1
144 612 m 2
 146.666992188 608 148 604 148 600 c 0
 148 596 144.166992188 595.666992188 136.5 599 c 0
 128.833007812 602.333007812 122.333007812 607 117 613 c 2
 46 690 l 2
 37.3330078125 698.666992188 34 704.666992188 36 708 c 1
 36 718 41.6669921875 723 53 723 c 0
 64.3330078125 723 74 717 82 705 c 2
 144 612 l 2
EndSplineSet
EndChar

StartChar: iacute
Encoding: 237 237 99
Width: 249
Flags: MW
HStem: 0 21G<111 111 111 114> 703 20G<228.333 236.667>
LayerCount: 2
Fore
SplineSet
111 0 m 1
 103 2.6669921875 99.6669921875 7.6669921875 101 15 c 2
 182 479 l 1
 184.666992188 487.666992188 189.666992188 490.666992188 197 488 c 1
 205.666992188 486.666992188 209 482 207 474 c 2
 126 10 l 2
 124.666992188 3.3330078125 120.666992188 0 114 0 c 2
 111 0 l 1
173 613 m 2
 167.666992188 607 161.166992188 602.333007812 153.5 599 c 0
 145.833007812 595.666992188 142 596 142 600 c 0
 142 604 143.333007812 608 146 612 c 2
 208 705 l 2
 216 717 224.166992188 723 232.5 723 c 0
 240.833007812 723 246.5 721.928710938 249.5 719.786132812 c 0
 252.5 717.642578125 254 713.713867188 254 708 c 1
 256 704.666992188 252.666992188 698.666992188 244 690 c 2
 173 613 l 2
EndSplineSet
EndChar

StartChar: icircumflex
Encoding: 238 238 100
Width: 249
Flags: MW
HStem: 0 21G<26 26 26 29> 700 20G<135 143 143 147.667>
LayerCount: 2
Fore
SplineSet
26 0 m 1
 18 2.6669921875 14.6669921875 7.6669921875 16 15 c 2
 97 479 l 1
 99.6669921875 487.666992188 104.666992188 490.666992188 112 488 c 1
 120.666992188 486.666992188 124 482 122 474 c 2
 41 10 l 2
 39.6669921875 3.3330078125 35.6669921875 0 29 0 c 2
 26 0 l 1
132 694 m 1
 47 618 l 2
 32.3330078125 606 22.6669921875 600 18 600 c 0
 8.748046875 601.123046875 4.08203125 601.790039062 4 602 c 0
 4.6669921875 605.333007812 7.3330078125 609.333007812 12 614 c 2
 103 702 l 2
 116.333007812 714 127 720 135 720 c 2
 143 720 l 2
 152.333007812 720 160.333007812 714 167 702 c 2
 220 614 l 2
 222.666992188 610 223.5 606.333007812 222.5 603 c 0
 221.5 599.666992188 219.5 598.333007812 216.5 599 c 0
 213.5 599.666992188 210.833007812 600 208.5 600 c 0
 206.166992188 600 203.666992188 600.833007812 201 602.5 c 0
 198.333007812 604.166992188 196.333007812 605.666992188 195 607 c 0
 193.666992188 608.333007812 192 610.5 190 613.5 c 0
 188 616.5 186.666992188 618.333007812 186 619 c 2
 132 694 l 1
EndSplineSet
EndChar

StartChar: idieresis
Encoding: 239 239 101
Width: 249
Flags: MW
HStem: 0 21G<18 18 18 21> 603 68<14.3335 16.6665 196.333 198.667>
LayerCount: 2
Fore
SplineSet
18 0 m 1
 10 2.6669921875 6.6669921875 7.6669921875 8 15 c 2
 89 479 l 1
 91.6669921875 487.666992188 96.6669921875 490.666992188 104 488 c 1
 112.666992188 486.666992188 116 482 114 474 c 2
 33 10 l 2
 31.6669921875 3.3330078125 27.6669921875 0 21 0 c 2
 18 0 l 1
-18 637 m 0
 -16.6669921875 646.333007812 -12.5 654.333007812 -5.5 661 c 0
 1.5 667.666992188 9.6669921875 671 19 671 c 0
 28.3330078125 671 36 667.666992188 42 661 c 0
 48 654.333007812 50.3330078125 646.166992188 49 636.5 c 0
 47.6669921875 626.833007812 43.5 618.833007812 36.5 612.5 c 0
 29.5 606.166992188 21.3330078125 603 12 603 c 0
 2.6669921875 603 -5 606.333007812 -11 613 c 0
 -17 619.666992188 -19.3330078125 627.666992188 -18 637 c 0
164 637 m 0
 165.333007812 646.333007812 169.5 654.333007812 176.5 661 c 0
 183.5 667.666992188 191.666992188 671 201 671 c 0
 210.333007812 671 218 667.666992188 224 661 c 0
 230 654.333007812 232.5 646.333007812 231.5 637 c 0
 230.5 627.666992188 226.333007812 619.666992188 219 613 c 0
 211.666992188 606.333007812 203.333007812 603 194 603 c 0
 184.666992188 603 177 606.333007812 171 613 c 0
 165 619.666992188 162.666992188 627.666992188 164 637 c 0
EndSplineSet
EndChar

StartChar: ograve
Encoding: 242 242 103
Width: 640
Flags: MW
HStem: 0 25 465 25<304.667 333 333 334> 703 20G<360.333 371.667>
VStem: 58 25<176.333 209.333 176.333 210.333> 503 25<280.667 288>
LayerCount: 2
Fore
SplineSet
528 288 m 0
 528 271.333007812 526.666992188 256.333007812 524 243 c 1
 512 245 l 1
 524 243 l 1
 512 175.666992188 479.666992188 118.5 427 71.5 c 0
 374.333007812 24.5 317.833007812 0.8330078125 257.5 0.5 c 0
 197.166992188 0.1669921875 148.666992188 19.3330078125 112 58 c 0
 76 97.3330078125 58 145.333007812 58 202 c 0
 58 218.666992188 59.3330078125 233.666992188 62 247 c 0
 74 314.333007812 106.333007812 371.666992188 159 419 c 0
 211.666992188 466.333007812 268.166992188 490 328.5 490 c 0
 388.833007812 490 437.166992188 470.833007812 473.5 432.5 c 0
 509.833007812 394.166992188 528 346 528 288 c 0
499 247 m 0
 501.666992188 259.666992188 503 273.333007812 503 288 c 0
 502.333007812 339.333007812 486.333007812 381.666992188 455 415 c 0
 423.666992188 448.333007812 383.333007812 465 334 465 c 2
 333 465 l 2
 276.333007812 465 223.833007812 443.166992188 175.5 399.5 c 0
 127.166992188 355.833007812 97.6669921875 303.666992188 87 243 c 0
 84.3330078125 230.333007812 83 216.666992188 83 202 c 0
 83 150.666992188 98.6669921875 108.5 130 75.5 c 0
 161.333007812 42.5 203.666992188 25.8330078125 257 25.5 c 0
 310.333007812 25.1669921875 361.333007812 46.8330078125 410 90.5 c 0
 458.666992188 134.166992188 488.333007812 186.333007812 499 247 c 0
457 612 m 2
 459.666992188 608 461 604 461 600 c 0
 461 596 457.166992188 595.666992188 449.5 599 c 0
 441.833007812 602.333007812 435.333007812 607 430 613 c 2
 359 690 l 2
 350.333007812 698.666992188 347 704.666992188 349 708 c 1
 349 718 354.666992188 723 366 723 c 0
 377.333007812 723 387 717 395 705 c 2
 457 612 l 2
EndSplineSet
EndChar

StartChar: Ntilde
Encoding: 209 209 104
Width: 790
Flags: MW
HStem: 2 21G<116 118 116 116 602 605 602 602> 802 37<572.667 588.333 572.667 597> 841 36<442.667 456> 879 20G<639.667 647>
LayerCount: 2
Fore
SplineSet
106 17 m 2
 224 688 l 2
 224 692.77734375 226.333007812 697.111328125 231 701 c 1
 239 705 244.666992188 703.333007812 248 696 c 2
 598 52 l 1
 710 688 l 2
 712 696 715.833007812 699.5 721.5 698.5 c 0
 732.434570312 696.5703125 736.934570312 691.737304688 735 684 c 2
 617 13 l 2
 615.666992188 5.6669921875 611.666992188 2 605 2 c 2
 602 2 l 2
 598.666992188 2.6669921875 596.166992188 4.1669921875 594.5 6.5 c 0
 592.833007812 8.8330078125 592 10.3330078125 592 11 c 0
 592 11.6669921875 591.666992188 12 591 12 c 2
 243 652 l 1
 130 13 l 2
 128.666992188 5.6669921875 124.666992188 2 118 2 c 2
 116 2 l 1
 107.333007812 4.6669921875 104 9.6669921875 106 17 c 2
402 802 m 0
 398 794 392.666992188 790 386 790 c 0
 375.333007812 790 370 794.333007812 370 803 c 0
 370 804.333007812 371.833007812 810.833007812 375.5 822.5 c 0
 379.166992188 834.166992188 389 846.166992188 405 858.5 c 0
 421 870.833007812 435.833007812 877 449.5 877 c 0
 463.166992188 877 485.333007812 870.666992188 516 858 c 0
 546.666992188 845.333007812 567.333007812 839 578 839 c 0
 598.666992188 839 615.333007812 853.333007812 628 882 c 1
 628 887.333007812 629.5 891.5 632.5 894.5 c 0
 635.5 897.5 638.333007812 899 641 899 c 0
 653 899 659 893.333007812 659 882 c 0
 659 878 658.333007812 874 657 870 c 0
 642.333007812 824.666992188 616 802 578 802 c 0
 566 802 544.666992188 808.5 514 821.5 c 0
 483.333007812 834.5 462 841 450 841 c 0
 429.333007812 841 413.333007812 828 402 802 c 0
EndSplineSet
EndChar

StartChar: Egrave
Encoding: 200 200 105
Width: 670
Flags: W
HStem: 1 25<115 491 133 491 133 491> 338 25<192 507 192 507 188 507> 675 26<247 610 247 247> 675 248<376.333 387.667 376.333 610 247 387.667>
LayerCount: 2
Fore
SplineSet
115 1 m 1xe0
 107 2.3330078125 103.666992188 7 105 15 c 2
 224 690 l 2
 225.333007812 698 230 701.333007812 238 700 c 1
 238 700.666992188 238.333007812 701 239 701 c 2
 610 701 l 2
 618.666992188 701 623 696.666992188 623 688 c 0
 623 679.333007812 618.666992188 675 610 675 c 2
 247 675 l 1
 192 363 l 1
 507 363 l 2
 515.666992188 363 520 358.833007812 520 350.5 c 0
 520 342.166992188 515.666992188 338 507 338 c 2
 188 338 l 1
 133 26 l 1
 491 26 l 2
 499.666992188 26 504 21.8330078125 504 13.5 c 0
 504 5.1669921875 499.666992188 1 491 1 c 2
 115 1 l 1xe0
473 812 m 2
 475.666992188 808 477 804 477 800 c 0
 477 796 473.166992188 795.666992188 465.5 799 c 0
 457.833007812 802.333007812 451.333007812 807 446 813 c 2
 375 890 l 2
 366.333007812 898.666992188 363 904.666992188 365 908 c 1
 365 918 370.666992188 923 382 923 c 0xd0
 393.333007812 923 403 917 411 905 c 2
 473 812 l 2
EndSplineSet
EndChar

StartChar: Eacute
Encoding: 201 201 106
Width: 670
Flags: W
HStem: 1 25<115 491 133 491 133 491> 338 25<192 507 192 507 188 507> 675 26<247 610 247 247> 675 248<531.333 539.667 531.333 610>
LayerCount: 2
Fore
SplineSet
115 1 m 1xe0
 107 2.3330078125 103.666992188 7 105 15 c 2
 224 690 l 2
 225.333007812 698 230 701.333007812 238 700 c 1
 238 700.666992188 238.333007812 701 239 701 c 2
 610 701 l 2
 618.666992188 701 623 696.666992188 623 688 c 0
 623 679.333007812 618.666992188 675 610 675 c 2
 247 675 l 1
 192 363 l 1
 507 363 l 2
 515.666992188 363 520 358.833007812 520 350.5 c 0
 520 342.166992188 515.666992188 338 507 338 c 2
 188 338 l 1
 133 26 l 1
 491 26 l 2
 499.666992188 26 504 21.8330078125 504 13.5 c 0
 504 5.1669921875 499.666992188 1 491 1 c 2
 115 1 l 1xe0
476 813 m 2
 470.666992188 807 464.166992188 802.333007812 456.5 799 c 0
 448.833007812 795.666992188 445 796 445 800 c 0
 445 804 446.333007812 808 449 812 c 2
 511 905 l 2
 519 917 527.166992188 923 535.5 923 c 0xd0
 543.833007812 923 549.5 921.928710938 552.5 919.786132812 c 0
 555.5 917.642578125 557 913.713867188 557 908 c 1
 559 904.666992188 555.666992188 898.666992188 547 890 c 2
 476 813 l 2
EndSplineSet
EndChar

StartChar: Ecircumflex
Encoding: 202 202 107
Width: 670
Flags: MW
HStem: 1 25<115 491 133 491 133 491> 338 25<192 507 192 507 188 507> 675 26<247 610 247 247> 900 20G<461 469 469 473.667>
LayerCount: 2
Fore
SplineSet
115 1 m 1
 107 2.3330078125 103.666992188 7 105 15 c 2
 224 690 l 2
 225.333007812 698 230 701.333007812 238 700 c 1
 238 700.666992188 238.333007812 701 239 701 c 2
 610 701 l 2
 618.666992188 701 623 696.666992188 623 688 c 0
 623 679.333007812 618.666992188 675 610 675 c 2
 247 675 l 1
 192 363 l 1
 507 363 l 2
 515.666992188 363 520 358.833007812 520 350.5 c 0
 520 342.166992188 515.666992188 338 507 338 c 2
 188 338 l 1
 133 26 l 1
 491 26 l 2
 499.666992188 26 504 21.8330078125 504 13.5 c 0
 504 5.1669921875 499.666992188 1 491 1 c 2
 115 1 l 1
458 894 m 1
 373 818 l 2
 358.333007812 806 348.666992188 800 344 800 c 0
 334.748046875 801.123046875 330.08203125 801.790039062 330 802 c 0
 330.666992188 805.333007812 333.333007812 809.333007812 338 814 c 2
 429 902 l 2
 442.333007812 914 453 920 461 920 c 2
 469 920 l 2
 478.333007812 920 486.333007812 914 493 902 c 2
 546 814 l 2
 548.666992188 810 549.5 806.333007812 548.5 803 c 0
 547.5 799.666992188 545.5 798.333007812 542.5 799 c 0
 539.5 799.666992188 536.833007812 800 534.5 800 c 0
 532.166992188 800 529.666992188 800.833007812 527 802.5 c 0
 524.333007812 804.166992188 522.333007812 805.666992188 521 807 c 0
 519.666992188 808.333007812 518 810.5 516 813.5 c 0
 514 816.5 512.666992188 818.333007812 512 819 c 2
 458 894 l 1
EndSplineSet
EndChar

StartChar: Edieresis
Encoding: 203 203 108
Width: 670
Flags: MW
HStem: 1 25<115 491 133 491 133 491> 338 25<192 507 192 507 188 507> 675 26<247 610 247 247> 803 68<356.333 358.667 538.333 540.667>
LayerCount: 2
Fore
SplineSet
115 1 m 1
 107 2.3330078125 103.666992188 7 105 15 c 2
 224 690 l 2
 225.333007812 698 230 701.333007812 238 700 c 1
 238 700.666992188 238.333007812 701 239 701 c 2
 610 701 l 2
 618.666992188 701 623 696.666992188 623 688 c 0
 623 679.333007812 618.666992188 675 610 675 c 2
 247 675 l 1
 192 363 l 1
 507 363 l 2
 515.666992188 363 520 358.833007812 520 350.5 c 0
 520 342.166992188 515.666992188 338 507 338 c 2
 188 338 l 1
 133 26 l 1
 491 26 l 2
 499.666992188 26 504 21.8330078125 504 13.5 c 0
 504 5.1669921875 499.666992188 1 491 1 c 2
 115 1 l 1
324 837 m 0
 325.333007812 846.333007812 329.5 854.333007812 336.5 861 c 0
 343.5 867.666992188 351.666992188 871 361 871 c 0
 370.333007812 871 378 867.666992188 384 861 c 0
 390 854.333007812 392.333007812 846.166992188 391 836.5 c 0
 389.666992188 826.833007812 385.5 818.833007812 378.5 812.5 c 0
 371.5 806.166992188 363.333007812 803 354 803 c 0
 344.666992188 803 337 806.333007812 331 813 c 0
 325 819.666992188 322.666992188 827.666992188 324 837 c 0
506 837 m 0
 507.333007812 846.333007812 511.5 854.333007812 518.5 861 c 0
 525.5 867.666992188 533.666992188 871 543 871 c 0
 552.333007812 871 560 867.666992188 566 861 c 0
 572 854.333007812 574.5 846.333007812 573.5 837 c 0
 572.5 827.666992188 568.333007812 819.666992188 561 813 c 0
 553.666992188 806.333007812 545.333007812 803 536 803 c 0
 526.666992188 803 519 806.333007812 513 813 c 0
 507 819.666992188 504.666992188 827.666992188 506 837 c 0
EndSplineSet
EndChar

StartChar: Igrave
Encoding: 204 204 109
Width: 274
Flags: MW
HStem: -1 21G<26 26 26 28> 903 20G<104.333 115.667>
LayerCount: 2
Fore
SplineSet
26 -1 m 1
 18 1 14.6669921875 6 16 14 c 2
 135 689 l 2
 136.333007812 697 141.166992188 700.333007812 149.5 699 c 0
 157.833007812 697.666992188 161.333007812 692.666992188 160 684 c 2
 41 10 l 2
 39.6669921875 2.6669921875 35.3330078125 -1 28 -1 c 2
 26 -1 l 1
201 812 m 2
 203.666992188 808 205 804 205 800 c 0
 205 796 201.166992188 795.666992188 193.5 799 c 0
 185.833007812 802.333007812 179.333007812 807 174 813 c 2
 103 890 l 2
 94.3330078125 898.666992188 91 904.666992188 93 908 c 1
 93 918 98.6669921875 923 110 923 c 0
 121.333007812 923 131 917 139 905 c 2
 201 812 l 2
EndSplineSet
EndChar

StartChar: Iacute
Encoding: 205 205 110
Width: 274
Flags: MW
HStem: -1 21G<122 122 122 124> 903 20G<275.333 283.667>
LayerCount: 2
Fore
SplineSet
122 -1 m 1
 114 1 110.666992188 6 112 14 c 2
 231 689 l 2
 232.333007812 697 237.166992188 700.333007812 245.5 699 c 0
 253.833007812 697.666992188 257.333007812 692.666992188 256 684 c 2
 137 10 l 2
 135.666992188 2.6669921875 131.333007812 -1 124 -1 c 2
 122 -1 l 1
220 813 m 2
 214.666992188 807 208.166992188 802.333007812 200.5 799 c 0
 192.833007812 795.666992188 189 796 189 800 c 0
 189 804 190.333007812 808 193 812 c 2
 255 905 l 2
 263 917 271.166992188 923 279.5 923 c 0
 287.833007812 923 293.5 921.928710938 296.5 919.786132812 c 0
 299.5 917.642578125 301 913.713867188 301 908 c 1
 303 904.666992188 299.666992188 898.666992188 291 890 c 2
 220 813 l 2
EndSplineSet
EndChar

StartChar: Icircumflex
Encoding: 206 206 111
Width: 274
Flags: MW
HStem: -1 21G<89 89 89 91> 900 20G<233 241 241 245.667>
LayerCount: 2
Fore
SplineSet
89 -1 m 1
 81 1 77.6669921875 6 79 14 c 2
 198 689 l 2
 199.333007812 697 204.166992188 700.333007812 212.5 699 c 0
 220.833007812 697.666992188 224.333007812 692.666992188 223 684 c 2
 104 10 l 2
 102.666992188 2.6669921875 98.3330078125 -1 91 -1 c 2
 89 -1 l 1
230 894 m 1
 145 818 l 2
 130.333007812 806 120.666992188 800 116 800 c 0
 106.748046875 801.123046875 102.08203125 801.790039062 102 802 c 0
 102.666992188 805.333007812 105.333007812 809.333007812 110 814 c 2
 201 902 l 2
 214.333007812 914 225 920 233 920 c 2
 241 920 l 2
 250.333007812 920 258.333007812 914 265 902 c 2
 318 814 l 2
 320.666992188 810 321.5 806.333007812 320.5 803 c 0
 319.5 799.666992188 317.5 798.333007812 314.5 799 c 0
 311.5 799.666992188 308.833007812 800 306.5 800 c 0
 304.166992188 800 301.666992188 800.833007812 299 802.5 c 0
 296.333007812 804.166992188 294.333007812 805.666992188 293 807 c 0
 291.666992188 808.333007812 290 810.5 288 813.5 c 0
 286 816.5 284.666992188 818.333007812 284 819 c 2
 230 894 l 1
EndSplineSet
EndChar

StartChar: Idieresis
Encoding: 207 207 112
Width: 274
Flags: MW
HStem: -1 21G<31 31 31 33> 803 68<57.3335 59.6665 239.333 241.667>
LayerCount: 2
Fore
SplineSet
31 -1 m 1
 23 1 19.6669921875 6 21 14 c 2
 140 689 l 2
 141.333007812 697 146.166992188 700.333007812 154.5 699 c 0
 162.833007812 697.666992188 166.333007812 692.666992188 165 684 c 2
 46 10 l 2
 44.6669921875 2.6669921875 40.3330078125 -1 33 -1 c 2
 31 -1 l 1
25 837 m 0
 26.3330078125 846.333007812 30.5 854.333007812 37.5 861 c 0
 44.5 867.666992188 52.6669921875 871 62 871 c 0
 71.3330078125 871 79 867.666992188 85 861 c 0
 91 854.333007812 93.3330078125 846.166992188 92 836.5 c 0
 90.6669921875 826.833007812 86.5 818.833007812 79.5 812.5 c 0
 72.5 806.166992188 64.3330078125 803 55 803 c 0
 45.6669921875 803 38 806.333007812 32 813 c 0
 26 819.666992188 23.6669921875 827.666992188 25 837 c 0
207 837 m 0
 208.333007812 846.333007812 212.5 854.333007812 219.5 861 c 0
 226.5 867.666992188 234.666992188 871 244 871 c 0
 253.333007812 871 261 867.666992188 267 861 c 0
 273 854.333007812 275.5 846.333007812 274.5 837 c 0
 273.5 827.666992188 269.333007812 819.666992188 262 813 c 0
 254.666992188 806.333007812 246.333007812 803 237 803 c 0
 227.666992188 803 220 806.333007812 214 813 c 0
 208 819.666992188 205.666992188 827.666992188 207 837 c 0
EndSplineSet
EndChar

StartChar: Oacute
Encoding: 211 211 114
Width: 850
Flags: W
HStem: -1 25<308.667 391> 674 25<425 467 467 468> 674 249<425 581.667 467 581.667>
VStem: 73 25<287 296.5 287 297.333> 719 25<403.333 449.667>
LayerCount: 2
Fore
SplineSet
218.5 597.5 m 0xd8
 294.166992188 665.166992188 375 699 461 699 c 0
 547 699 615.666992188 671.333007812 667 616 c 1
 718.333007812 562.666992188 744 494.666992188 744 412 c 0
 744 386.666992188 742.333007812 365 739 347 c 0
 721.666992188 251 675.166992188 169.166992188 599.5 101.5 c 0
 523.833007812 33.8330078125 440.333007812 -0.3330078125 349 -1 c 0
 268.333007812 -1 202.166992188 26.1669921875 150.5 80.5 c 0
 98.8330078125 134.833007812 73 203.666992188 73 287 c 0
 73 307.666992188 75 329 79 351 c 0
 96.3330078125 447.666992188 142.833007812 529.833007812 218.5 597.5 c 0xd8
714 351 m 0
 717.333007812 374.333007812 719 394.666992188 719 412 c 0
 719 487.333007812 695.5 549.666992188 648.5 599 c 0
 601.5 648.333007812 541.333007812 673.333007812 468 674 c 2
 467 674 l 2
 383 674 305.333007812 642 234 578 c 0
 162.666992188 514 119.333007812 437 104 347 c 0
 100 326 98 306 98 287 c 0
 98.6669921875 211 122.333007812 148.333007812 169 99 c 0
 215.666992188 49.6669921875 275.666992188 24.6669921875 349 24 c 0
 433 24 510.833007812 56 582.5 120 c 0
 654.166992188 184 698 261 714 351 c 0
518 813 m 2
 512.666992188 807 506.166992188 802.333007812 498.5 799 c 0
 490.833007812 795.666992188 487 796 487 800 c 0
 487 804 488.333007812 808 491 812 c 2
 553 905 l 2
 561 917 569.166992188 923 577.5 923 c 0xb8
 585.833007812 923 591.5 921.928710938 594.5 919.786132812 c 0
 597.5 917.642578125 599 913.713867188 599 908 c 1
 601 904.666992188 597.666992188 898.666992188 589 890 c 2
 518 813 l 2
EndSplineSet
EndChar

StartChar: Otilde
Encoding: 213 213 116
Width: 850
Flags: MW
HStem: -1 25<308.667 391> 674 25<425 467 467 468> 802 37<573.333 589.333 573.333 598> 841 36<443.333 456.667 443.333 457> 879 20G<640.667 648>
VStem: 73 25<287 296.5 287 297.333> 719 25<403.333 449.667>
LayerCount: 2
Fore
SplineSet
218.5 597.5 m 0
 294.166992188 665.166992188 375 699 461 699 c 0
 547 699 615.666992188 671.333007812 667 616 c 1
 718.333007812 562.666992188 744 494.666992188 744 412 c 0
 744 386.666992188 742.333007812 365 739 347 c 0
 721.666992188 251 675.166992188 169.166992188 599.5 101.5 c 0
 523.833007812 33.8330078125 440.333007812 -0.3330078125 349 -1 c 0
 268.333007812 -1 202.166992188 26.1669921875 150.5 80.5 c 0
 98.8330078125 134.833007812 73 203.666992188 73 287 c 0
 73 307.666992188 75 329 79 351 c 0
 96.3330078125 447.666992188 142.833007812 529.833007812 218.5 597.5 c 0
714 351 m 0
 717.333007812 374.333007812 719 394.666992188 719 412 c 0
 719 487.333007812 695.5 549.666992188 648.5 599 c 0
 601.5 648.333007812 541.333007812 673.333007812 468 674 c 2
 467 674 l 2
 383 674 305.333007812 642 234 578 c 0
 162.666992188 514 119.333007812 437 104 347 c 0
 100 326 98 306 98 287 c 0
 98.6669921875 211 122.333007812 148.333007812 169 99 c 0
 215.666992188 49.6669921875 275.666992188 24.6669921875 349 24 c 0
 433 24 510.833007812 56 582.5 120 c 0
 654.166992188 184 698 261 714 351 c 0
403 802 m 0
 399 794 393.666992188 790 387 790 c 0
 376.333007812 790 371 794.333007812 371 803 c 0
 371 804.333007812 372.833007812 810.833007812 376.5 822.5 c 0
 380.166992188 834.166992188 390 846.166992188 406 858.5 c 0
 422 870.833007812 436.666992188 877 450 877 c 0
 463.333007812 877 485.333007812 870.666992188 516 858 c 0
 546.666992188 845.333007812 567.666992188 839 579 839 c 0
 599.666992188 839 616.333007812 853.333007812 629 882 c 1
 629 887.333007812 630.5 891.5 633.5 894.5 c 0
 636.5 897.5 639.333007812 899 642 899 c 0
 654 899 660 893.333007812 660 882 c 0
 660 878 659.333007812 874 658 870 c 0
 643.333007812 824.666992188 617 802 579 802 c 0
 567 802 545.666992188 808.5 515 821.5 c 0
 484.333007812 834.5 463 841 451 841 c 0
 430.333007812 841 414.333007812 828 403 802 c 0
EndSplineSet
EndChar

StartChar: Ugrave
Encoding: 217 217 118
Width: 760
Flags: MW
HStem: -2 25 903 20G<429.333 440.667>
VStem: 93 25<231 239.333 231 240.333>
LayerCount: 2
Fore
SplineSet
194 683 m 2
 122 276 l 2
 119.333007812 262.666992188 118 247.666992188 118 231 c 0
 118.666992188 171 138.666992188 121.5 178 82.5 c 0
 217.333007812 43.5 270.166992188 23.8330078125 336.5 23.5 c 0
 402.833007812 23.1669921875 465.666992188 48.1669921875 525 98.5 c 0
 584.333007812 148.833007812 620 209.333007812 632 280 c 2
 704 687 l 2
 705.333007812 695.666992188 710.333007812 699.333007812 719 698 c 0
 727 696 730.333007812 691 729 683 c 2
 657 276 l 2
 643.666992188 198.666992188 605.166992188 133 541.5 79 c 0
 477.833007812 25 409.333007812 -2 336 -2 c 0
 262.666992188 -2 203.833007812 20.1669921875 159.5 64.5 c 0
 115.166992188 108.833007812 93 164.333007812 93 231 c 0
 93 249.666992188 94.3330078125 266 97 280 c 2
 169 687 l 2
 170.333007812 695.666992188 175.333007812 699.333007812 184 698 c 1
 192 695.333007812 195.333007812 690.333007812 194 683 c 2
526 812 m 2
 528.666992188 808 530 804 530 800 c 0
 530 796 526.166992188 795.666992188 518.5 799 c 0
 510.833007812 802.333007812 504.333007812 807 499 813 c 2
 428 890 l 2
 419.333007812 898.666992188 416 904.666992188 418 908 c 1
 418 918 423.666992188 923 435 923 c 0
 446.333007812 923 456 917 464 905 c 2
 526 812 l 2
EndSplineSet
EndChar

StartChar: Uacute
Encoding: 218 218 119
Width: 760
Flags: MW
HStem: -2 25 903 20G<475.333 483.667>
VStem: 93 25<231 239.333 231 240.333>
LayerCount: 2
Fore
SplineSet
194 683 m 2
 122 276 l 2
 119.333007812 262.666992188 118 247.666992188 118 231 c 0
 118.666992188 171 138.666992188 121.5 178 82.5 c 0
 217.333007812 43.5 270.166992188 23.8330078125 336.5 23.5 c 0
 402.833007812 23.1669921875 465.666992188 48.1669921875 525 98.5 c 0
 584.333007812 148.833007812 620 209.333007812 632 280 c 2
 704 687 l 2
 705.333007812 695.666992188 710.333007812 699.333007812 719 698 c 0
 727 696 730.333007812 691 729 683 c 2
 657 276 l 2
 643.666992188 198.666992188 605.166992188 133 541.5 79 c 0
 477.833007812 25 409.333007812 -2 336 -2 c 0
 262.666992188 -2 203.833007812 20.1669921875 159.5 64.5 c 0
 115.166992188 108.833007812 93 164.333007812 93 231 c 0
 93 249.666992188 94.3330078125 266 97 280 c 2
 169 687 l 2
 170.333007812 695.666992188 175.333007812 699.333007812 184 698 c 1
 192 695.333007812 195.333007812 690.333007812 194 683 c 2
420 813 m 2
 414.666992188 807 408.166992188 802.333007812 400.5 799 c 0
 392.833007812 795.666992188 389 796 389 800 c 0
 389 804 390.333007812 808 393 812 c 2
 455 905 l 2
 463 917 471.166992188 923 479.5 923 c 0
 487.833007812 923 493.5 921.928710938 496.5 919.786132812 c 0
 499.5 917.642578125 501 913.713867188 501 908 c 1
 503 904.666992188 499.666992188 898.666992188 491 890 c 2
 420 813 l 2
EndSplineSet
EndChar

StartChar: Ucircumflex
Encoding: 219 219 120
Width: 760
Flags: MW
HStem: -2 25 900 20G<503 511 511 515.667>
VStem: 93 25<231 239.333 231 240.333>
LayerCount: 2
Fore
SplineSet
194 683 m 2
 122 276 l 2
 119.333007812 262.666992188 118 247.666992188 118 231 c 0
 118.666992188 171 138.666992188 121.5 178 82.5 c 0
 217.333007812 43.5 270.166992188 23.8330078125 336.5 23.5 c 0
 402.833007812 23.1669921875 465.666992188 48.1669921875 525 98.5 c 0
 584.333007812 148.833007812 620 209.333007812 632 280 c 2
 704 687 l 2
 705.333007812 695.666992188 710.333007812 699.333007812 719 698 c 0
 727 696 730.333007812 691 729 683 c 2
 657 276 l 2
 643.666992188 198.666992188 605.166992188 133 541.5 79 c 0
 477.833007812 25 409.333007812 -2 336 -2 c 0
 262.666992188 -2 203.833007812 20.1669921875 159.5 64.5 c 0
 115.166992188 108.833007812 93 164.333007812 93 231 c 0
 93 249.666992188 94.3330078125 266 97 280 c 2
 169 687 l 2
 170.333007812 695.666992188 175.333007812 699.333007812 184 698 c 1
 192 695.333007812 195.333007812 690.333007812 194 683 c 2
500 894 m 1
 415 818 l 2
 400.333007812 806 390.666992188 800 386 800 c 0
 376.748046875 801.123046875 372.08203125 801.790039062 372 802 c 0
 372.666992188 805.333007812 375.333007812 809.333007812 380 814 c 2
 471 902 l 2
 484.333007812 914 495 920 503 920 c 2
 511 920 l 2
 520.333007812 920 528.333007812 914 535 902 c 2
 588 814 l 2
 590.666992188 810 591.5 806.333007812 590.5 803 c 0
 589.5 799.666992188 587.5 798.333007812 584.5 799 c 0
 581.5 799.666992188 578.833007812 800 576.5 800 c 0
 574.166992188 800 571.666992188 800.833007812 569 802.5 c 0
 566.333007812 804.166992188 564.333007812 805.666992188 563 807 c 0
 561.666992188 808.333007812 560 810.5 558 813.5 c 0
 556 816.5 554.666992188 818.333007812 554 819 c 2
 500 894 l 1
EndSplineSet
EndChar

StartChar: Udieresis
Encoding: 220 220 121
Width: 760
Flags: MW
HStem: -2 25 803 68<385.333 387.667 567.333 569.667>
VStem: 93 25<231 239.333 231 240.333>
LayerCount: 2
Fore
SplineSet
194 683 m 2
 122 276 l 2
 119.333007812 262.666992188 118 247.666992188 118 231 c 0
 118.666992188 171 138.666992188 121.5 178 82.5 c 0
 217.333007812 43.5 270.166992188 23.8330078125 336.5 23.5 c 0
 402.833007812 23.1669921875 465.666992188 48.1669921875 525 98.5 c 0
 584.333007812 148.833007812 620 209.333007812 632 280 c 2
 704 687 l 2
 705.333007812 695.666992188 710.333007812 699.333007812 719 698 c 0
 727 696 730.333007812 691 729 683 c 2
 657 276 l 2
 643.666992188 198.666992188 605.166992188 133 541.5 79 c 0
 477.833007812 25 409.333007812 -2 336 -2 c 0
 262.666992188 -2 203.833007812 20.1669921875 159.5 64.5 c 0
 115.166992188 108.833007812 93 164.333007812 93 231 c 0
 93 249.666992188 94.3330078125 266 97 280 c 2
 169 687 l 2
 170.333007812 695.666992188 175.333007812 699.333007812 184 698 c 1
 192 695.333007812 195.333007812 690.333007812 194 683 c 2
353 837 m 0
 354.333007812 846.333007812 358.5 854.333007812 365.5 861 c 0
 372.5 867.666992188 380.666992188 871 390 871 c 0
 399.333007812 871 407 867.666992188 413 861 c 0
 419 854.333007812 421.333007812 846.166992188 420 836.5 c 0
 418.666992188 826.833007812 414.5 818.833007812 407.5 812.5 c 0
 400.5 806.166992188 392.333007812 803 383 803 c 0
 373.666992188 803 366 806.333007812 360 813 c 0
 354 819.666992188 351.666992188 827.666992188 353 837 c 0
535 837 m 0
 536.333007812 846.333007812 540.5 854.333007812 547.5 861 c 0
 554.5 867.666992188 562.666992188 871 572 871 c 0
 581.333007812 871 589 867.666992188 595 861 c 0
 601 854.333007812 603.5 846.333007812 602.5 837 c 0
 601.5 827.666992188 597.333007812 819.666992188 590 813 c 0
 582.666992188 806.333007812 574.333007812 803 565 803 c 0
 555.666992188 803 548 806.333007812 542 813 c 0
 536 819.666992188 533.666992188 827.666992188 535 837 c 0
EndSplineSet
EndChar

StartChar: Yacute
Encoding: 221 221 122
Width: 716
Flags: MW
HStem: -2 21G<196 196 196 199> 903 20G<405.333 413.667>
LayerCount: 2
Fore
SplineSet
196 -2 m 1
 188 -0.6669921875 184.666992188 4.3330078125 186 13 c 2
 244 343 l 1
 58 679 l 2
 53.3330078125 686.333007812 55 692 63 696 c 1
 71 701.333007812 76.6669921875 699.666992188 80 691 c 1
 260 367 l 1
 557 694 l 2
 563 700 569 700.166992188 575 694.5 c 0
 581 688.833007812 581.333007812 683 576 677 c 2
 270 339 l 1
 269 339 l 1
 211 8 l 2
 209.666992188 1.3330078125 205.666992188 -2 199 -2 c 2
 196 -2 l 1
350 813 m 2
 344.666992188 807 338.166992188 802.333007812 330.5 799 c 0
 322.833007812 795.666992188 319 796 319 800 c 0
 319 804 320.333007812 808 323 812 c 2
 385 905 l 2
 393 917 401.166992188 923 409.5 923 c 0
 417.833007812 923 423.5 921.928710938 426.5 919.786132812 c 0
 429.5 917.642578125 431 913.713867188 431 908 c 1
 433 904.666992188 429.666992188 898.666992188 421 890 c 2
 350 813 l 2
EndSplineSet
EndChar

StartChar: yacute
Encoding: 253 253 124
Width: 588
Flags: MW
HStem: -204 26<142 158 142 158> 0 26 703 20G<373.333 381.667>
VStem: 61 26<144.667 169.5 144.667 171>
LayerCount: 2
Fore
SplineSet
482 479 m 2
 484 487 487.666992188 490.5 493 489.5 c 0
 503.586914062 487.514648438 507.919921875 482.681640625 506 475 c 2
 427 26 l 2
 415.666992188 -38 384 -92.1669921875 332 -136.5 c 0
 280 -180.833007812 222 -203.333007812 158 -204 c 0
 123.333007812 -204 90.6669921875 -196 60 -180 c 1
 53.3330078125 -175.333007812 51.6669921875 -169.333007812 55 -162 c 0
 58.3330078125 -154.666992188 64 -153 72 -157 c 0
 97.3330078125 -171 126 -178 158 -178 c 0
 215.333007812 -178.666992188 268 -158.5 316 -117.5 c 0
 364 -76.5 392.666992188 -27.3330078125 402 30 c 1
 415 99 l 1
 393 69 365.5 45.1669921875 332.5 27.5 c 0
 299.5 9.8330078125 262 0.8330078125 220 0.5 c 0
 178 0.1669921875 141 16 109 48 c 0
 77 78.6669921875 61 117.666992188 61 165 c 0
 61 177 62.3330078125 188.333007812 65 199 c 2
 114 479 l 2
 116 487 121 490.333007812 129 489 c 0
 137 487.666992188 140.333007812 483 139 475 c 2
 90 195 l 2
 88 184 87 174 87 165 c 0
 87 124.333007812 100.166992188 91 126.5 65 c 0
 152.833007812 39 188.166992188 25.8330078125 232.5 25.5 c 0
 276.833007812 25.1669921875 319.166992188 42.1669921875 359.5 76.5 c 0
 399.833007812 110.833007812 424 151.666992188 432 199 c 2
 482 479 l 2
318 613 m 2
 312.666992188 607 306.166992188 602.333007812 298.5 599 c 0
 290.833007812 595.666992188 287 596 287 600 c 0
 287 604 288.333007812 608 291 612 c 2
 353 705 l 2
 361 717 369.166992188 723 377.5 723 c 0
 385.833007812 723 391.5 721.928710938 394.5 719.786132812 c 0
 397.5 717.642578125 399 713.713867188 399 708 c 1
 401 704.666992188 397.666992188 698.666992188 389 690 c 2
 318 613 l 2
EndSplineSet
EndChar

StartChar: udieresis
Encoding: 252 252 125
Width: 613
Flags: MW
HStem: 0 25 603 68<288.333 290.667 470.333 472.667>
VStem: 83 26<143.667 170.333>
LayerCount: 2
Fore
SplineSet
518 489 m 1
 526.666992188 486.333007812 530.333007812 481.333007812 529 474 c 2
 479 195 l 2
 469.666992188 141 442.833007812 95 398.5 57 c 0
 354.166992188 19 306 0 254 0 c 0
 202 0 161 15.6669921875 131 47 c 0
 99 79 83 118 83 164 c 0
 83 176.666992188 84.3330078125 188.333007812 87 199 c 2
 136 478 l 2
 137.333007812 486.666992188 142.333007812 490.333007812 151 489 c 1
 159 486.333007812 162.333007812 481.333007812 161 474 c 2
 111 195 l 2
 109.666992188 187.666992188 109 177.333007812 109 164 c 0
 109 123.333007812 122.166992188 90 148.5 64 c 0
 174.833007812 38 210.333007812 24.8330078125 255 24.5 c 0
 299.666992188 24.1669921875 342 41.1669921875 382 75.5 c 0
 422 109.833007812 446 151 454 199 c 2
 504 478 l 2
 505.333007812 486.666992188 510 490.333007812 518 489 c 1
256 637 m 0
 257.333007812 646.333007812 261.5 654.333007812 268.5 661 c 0
 275.5 667.666992188 283.666992188 671 293 671 c 0
 302.333007812 671 310 667.666992188 316 661 c 0
 322 654.333007812 324.333007812 646.166992188 323 636.5 c 0
 321.666992188 626.833007812 317.5 618.833007812 310.5 612.5 c 0
 303.5 606.166992188 295.333007812 603 286 603 c 0
 276.666992188 603 269 606.333007812 263 613 c 0
 257 619.666992188 254.666992188 627.666992188 256 637 c 0
438 637 m 0
 439.333007812 646.333007812 443.5 654.333007812 450.5 661 c 0
 457.5 667.666992188 465.666992188 671 475 671 c 0
 484.333007812 671 492 667.666992188 498 661 c 0
 504 654.333007812 506.5 646.333007812 505.5 637 c 0
 504.5 627.666992188 500.333007812 619.666992188 493 613 c 0
 485.666992188 606.333007812 477.333007812 603 468 603 c 0
 458.666992188 603 451 606.333007812 445 613 c 0
 439 619.666992188 436.666992188 627.666992188 438 637 c 0
EndSplineSet
EndChar

StartChar: ucircumflex
Encoding: 251 251 126
Width: 613
Flags: MW
HStem: 0 25 700 20G<388 396 396 400.667>
VStem: 83 26<143.667 170.333>
LayerCount: 2
Fore
SplineSet
518 489 m 1
 526.666992188 486.333007812 530.333007812 481.333007812 529 474 c 2
 479 195 l 2
 469.666992188 141 442.833007812 95 398.5 57 c 0
 354.166992188 19 306 0 254 0 c 0
 202 0 161 15.6669921875 131 47 c 0
 99 79 83 118 83 164 c 0
 83 176.666992188 84.3330078125 188.333007812 87 199 c 2
 136 478 l 2
 137.333007812 486.666992188 142.333007812 490.333007812 151 489 c 1
 159 486.333007812 162.333007812 481.333007812 161 474 c 2
 111 195 l 2
 109.666992188 187.666992188 109 177.333007812 109 164 c 0
 109 123.333007812 122.166992188 90 148.5 64 c 0
 174.833007812 38 210.333007812 24.8330078125 255 24.5 c 0
 299.666992188 24.1669921875 342 41.1669921875 382 75.5 c 0
 422 109.833007812 446 151 454 199 c 2
 504 478 l 2
 505.333007812 486.666992188 510 490.333007812 518 489 c 1
385 694 m 1
 300 618 l 2
 285.333007812 606 275.666992188 600 271 600 c 0
 261.748046875 601.123046875 257.08203125 601.790039062 257 602 c 0
 257.666992188 605.333007812 260.333007812 609.333007812 265 614 c 2
 356 702 l 2
 369.333007812 714 380 720 388 720 c 2
 396 720 l 2
 405.333007812 720 413.333007812 714 420 702 c 2
 473 614 l 2
 475.666992188 610 476.5 606.333007812 475.5 603 c 0
 474.5 599.666992188 472.5 598.333007812 469.5 599 c 0
 466.5 599.666992188 463.833007812 600 461.5 600 c 0
 459.166992188 600 456.666992188 600.833007812 454 602.5 c 0
 451.333007812 604.166992188 449.333007812 605.666992188 448 607 c 0
 446.666992188 608.333007812 445 610.5 443 613.5 c 0
 441 616.5 439.666992188 618.333007812 439 619 c 2
 385 694 l 1
EndSplineSet
EndChar

StartChar: ugrave
Encoding: 249 249 128
Width: 613
Flags: MW
HStem: 0 25 703 20G<304.333 315.667>
VStem: 83 26<143.667 170.333>
LayerCount: 2
Fore
SplineSet
518 489 m 1
 526.666992188 486.333007812 530.333007812 481.333007812 529 474 c 2
 479 195 l 2
 469.666992188 141 442.833007812 95 398.5 57 c 0
 354.166992188 19 306 0 254 0 c 0
 202 0 161 15.6669921875 131 47 c 0
 99 79 83 118 83 164 c 0
 83 176.666992188 84.3330078125 188.333007812 87 199 c 2
 136 478 l 2
 137.333007812 486.666992188 142.333007812 490.333007812 151 489 c 1
 159 486.333007812 162.333007812 481.333007812 161 474 c 2
 111 195 l 2
 109.666992188 187.666992188 109 177.333007812 109 164 c 0
 109 123.333007812 122.166992188 90 148.5 64 c 0
 174.833007812 38 210.333007812 24.8330078125 255 24.5 c 0
 299.666992188 24.1669921875 342 41.1669921875 382 75.5 c 0
 422 109.833007812 446 151 454 199 c 2
 504 478 l 2
 505.333007812 486.666992188 510 490.333007812 518 489 c 1
401 612 m 2
 403.666992188 608 405 604 405 600 c 0
 405 596 401.166992188 595.666992188 393.5 599 c 0
 385.833007812 602.333007812 379.333007812 607 374 613 c 2
 303 690 l 2
 294.333007812 698.666992188 291 704.666992188 293 708 c 1
 293 718 298.666992188 723 310 723 c 0
 321.333007812 723 331 717 339 705 c 2
 401 612 l 2
EndSplineSet
EndChar

StartChar: odieresis
Encoding: 246 246 129
Width: 640
Flags: MW
HStem: 0 25 465 25<304.667 333 333 334> 603 68<296.333 298.667 478.333 480.667>
VStem: 58 25<176.333 209.333 176.333 210.333> 503 25<280.667 288>
LayerCount: 2
Fore
SplineSet
528 288 m 0
 528 271.333007812 526.666992188 256.333007812 524 243 c 1
 512 245 l 1
 524 243 l 1
 512 175.666992188 479.666992188 118.5 427 71.5 c 0
 374.333007812 24.5 317.833007812 0.8330078125 257.5 0.5 c 0
 197.166992188 0.1669921875 148.666992188 19.3330078125 112 58 c 0
 76 97.3330078125 58 145.333007812 58 202 c 0
 58 218.666992188 59.3330078125 233.666992188 62 247 c 0
 74 314.333007812 106.333007812 371.666992188 159 419 c 0
 211.666992188 466.333007812 268.166992188 490 328.5 490 c 0
 388.833007812 490 437.166992188 470.833007812 473.5 432.5 c 0
 509.833007812 394.166992188 528 346 528 288 c 0
499 247 m 0
 501.666992188 259.666992188 503 273.333007812 503 288 c 0
 502.333007812 339.333007812 486.333007812 381.666992188 455 415 c 0
 423.666992188 448.333007812 383.333007812 465 334 465 c 2
 333 465 l 2
 276.333007812 465 223.833007812 443.166992188 175.5 399.5 c 0
 127.166992188 355.833007812 97.6669921875 303.666992188 87 243 c 0
 84.3330078125 230.333007812 83 216.666992188 83 202 c 0
 83 150.666992188 98.6669921875 108.5 130 75.5 c 0
 161.333007812 42.5 203.666992188 25.8330078125 257 25.5 c 0
 310.333007812 25.1669921875 361.333007812 46.8330078125 410 90.5 c 0
 458.666992188 134.166992188 488.333007812 186.333007812 499 247 c 0
264 637 m 0
 265.333007812 646.333007812 269.5 654.333007812 276.5 661 c 0
 283.5 667.666992188 291.666992188 671 301 671 c 0
 310.333007812 671 318 667.666992188 324 661 c 0
 330 654.333007812 332.333007812 646.166992188 331 636.5 c 0
 329.666992188 626.833007812 325.5 618.833007812 318.5 612.5 c 0
 311.5 606.166992188 303.333007812 603 294 603 c 0
 284.666992188 603 277 606.333007812 271 613 c 0
 265 619.666992188 262.666992188 627.666992188 264 637 c 0
446 637 m 0
 447.333007812 646.333007812 451.5 654.333007812 458.5 661 c 0
 465.5 667.666992188 473.666992188 671 483 671 c 0
 492.333007812 671 500 667.666992188 506 661 c 0
 512 654.333007812 514.5 646.333007812 513.5 637 c 0
 512.5 627.666992188 508.333007812 619.666992188 501 613 c 0
 493.666992188 606.333007812 485.333007812 603 476 603 c 0
 466.666992188 603 459 606.333007812 453 613 c 0
 447 619.666992188 444.666992188 627.666992188 446 637 c 0
EndSplineSet
EndChar

StartChar: otilde
Encoding: 245 245 130
Width: 640
Flags: MW
HStem: 0 25 465 25<304.667 333 333 334> 602 37<466.667 482.333 466.667 491> 641 36<336.667 350> 679 20G<533.667 541>
VStem: 58 25<176.333 209.333 176.333 210.333> 503 25<280.667 288>
LayerCount: 2
Fore
SplineSet
528 288 m 0
 528 271.333007812 526.666992188 256.333007812 524 243 c 1
 512 245 l 1
 524 243 l 1
 512 175.666992188 479.666992188 118.5 427 71.5 c 0
 374.333007812 24.5 317.833007812 0.8330078125 257.5 0.5 c 0
 197.166992188 0.1669921875 148.666992188 19.3330078125 112 58 c 0
 76 97.3330078125 58 145.333007812 58 202 c 0
 58 218.666992188 59.3330078125 233.666992188 62 247 c 0
 74 314.333007812 106.333007812 371.666992188 159 419 c 0
 211.666992188 466.333007812 268.166992188 490 328.5 490 c 0
 388.833007812 490 437.166992188 470.833007812 473.5 432.5 c 0
 509.833007812 394.166992188 528 346 528 288 c 0
499 247 m 0
 501.666992188 259.666992188 503 273.333007812 503 288 c 0
 502.333007812 339.333007812 486.333007812 381.666992188 455 415 c 0
 423.666992188 448.333007812 383.333007812 465 334 465 c 2
 333 465 l 2
 276.333007812 465 223.833007812 443.166992188 175.5 399.5 c 0
 127.166992188 355.833007812 97.6669921875 303.666992188 87 243 c 0
 84.3330078125 230.333007812 83 216.666992188 83 202 c 0
 83 150.666992188 98.6669921875 108.5 130 75.5 c 0
 161.333007812 42.5 203.666992188 25.8330078125 257 25.5 c 0
 310.333007812 25.1669921875 361.333007812 46.8330078125 410 90.5 c 0
 458.666992188 134.166992188 488.333007812 186.333007812 499 247 c 0
296 602 m 0
 292 594 286.666992188 590 280 590 c 0
 269.333007812 590 264 594.333007812 264 603 c 0
 264 604.333007812 265.833007812 610.833007812 269.5 622.5 c 0
 273.166992188 634.166992188 283 646.166992188 299 658.5 c 0
 315 670.833007812 329.833007812 677 343.5 677 c 0
 357.166992188 677 379.333007812 670.666992188 410 658 c 0
 440.666992188 645.333007812 461.333007812 639 472 639 c 0
 492.666992188 639 509.333007812 653.333007812 522 682 c 1
 522 687.333007812 523.5 691.5 526.5 694.5 c 0
 529.5 697.5 532.333007812 699 535 699 c 0
 547 699 553 693.333007812 553 682 c 0
 553 678 552.333007812 674 551 670 c 0
 536.333007812 624.666992188 510 602 472 602 c 0
 460 602 438.666992188 608.5 408 621.5 c 0
 377.333007812 634.5 356 641 344 641 c 0
 323.333007812 641 307.333007812 628 296 602 c 0
EndSplineSet
EndChar

StartChar: ocircumflex
Encoding: 244 244 131
Width: 640
Flags: MW
HStem: 0 25 465 25<304.667 333 333 334> 700 20G<443 451 451 455.667>
VStem: 58 25<176.333 209.333 176.333 210.333> 503 25<280.667 288>
LayerCount: 2
Fore
SplineSet
528 288 m 0
 528 271.333007812 526.666992188 256.333007812 524 243 c 1
 512 245 l 1
 524 243 l 1
 512 175.666992188 479.666992188 118.5 427 71.5 c 0
 374.333007812 24.5 317.833007812 0.8330078125 257.5 0.5 c 0
 197.166992188 0.1669921875 148.666992188 19.3330078125 112 58 c 0
 76 97.3330078125 58 145.333007812 58 202 c 0
 58 218.666992188 59.3330078125 233.666992188 62 247 c 0
 74 314.333007812 106.333007812 371.666992188 159 419 c 0
 211.666992188 466.333007812 268.166992188 490 328.5 490 c 0
 388.833007812 490 437.166992188 470.833007812 473.5 432.5 c 0
 509.833007812 394.166992188 528 346 528 288 c 0
499 247 m 0
 501.666992188 259.666992188 503 273.333007812 503 288 c 0
 502.333007812 339.333007812 486.333007812 381.666992188 455 415 c 0
 423.666992188 448.333007812 383.333007812 465 334 465 c 2
 333 465 l 2
 276.333007812 465 223.833007812 443.166992188 175.5 399.5 c 0
 127.166992188 355.833007812 97.6669921875 303.666992188 87 243 c 0
 84.3330078125 230.333007812 83 216.666992188 83 202 c 0
 83 150.666992188 98.6669921875 108.5 130 75.5 c 0
 161.333007812 42.5 203.666992188 25.8330078125 257 25.5 c 0
 310.333007812 25.1669921875 361.333007812 46.8330078125 410 90.5 c 0
 458.666992188 134.166992188 488.333007812 186.333007812 499 247 c 0
440 694 m 1
 355 618 l 2
 340.333007812 606 330.666992188 600 326 600 c 0
 316.748046875 601.123046875 312.08203125 601.790039062 312 602 c 0
 312.666992188 605.333007812 315.333007812 609.333007812 320 614 c 2
 411 702 l 2
 424.333007812 714 435 720 443 720 c 2
 451 720 l 2
 460.333007812 720 468.333007812 714 475 702 c 2
 528 614 l 2
 530.666992188 610 531.5 606.333007812 530.5 603 c 0
 529.5 599.666992188 527.5 598.333007812 524.5 599 c 0
 521.5 599.666992188 518.833007812 600 516.5 600 c 0
 514.166992188 600 511.666992188 600.833007812 509 602.5 c 0
 506.333007812 604.166992188 504.333007812 605.666992188 503 607 c 0
 501.666992188 608.333007812 500 610.5 498 613.5 c 0
 496 616.5 494.666992188 618.333007812 494 619 c 2
 440 694 l 1
EndSplineSet
EndChar

StartChar: oacute
Encoding: 243 243 132
Width: 640
Flags: MW
HStem: 0 25 465 25<304.667 333 333 334> 703 20G<433.333 441.667>
VStem: 58 25<176.333 209.333 176.333 210.333> 503 25<280.667 288>
LayerCount: 2
Fore
SplineSet
528 288 m 0
 528 271.333007812 526.666992188 256.333007812 524 243 c 1
 512 245 l 1
 524 243 l 1
 512 175.666992188 479.666992188 118.5 427 71.5 c 0
 374.333007812 24.5 317.833007812 0.8330078125 257.5 0.5 c 0
 197.166992188 0.1669921875 148.666992188 19.3330078125 112 58 c 0
 76 97.3330078125 58 145.333007812 58 202 c 0
 58 218.666992188 59.3330078125 233.666992188 62 247 c 0
 74 314.333007812 106.333007812 371.666992188 159 419 c 0
 211.666992188 466.333007812 268.166992188 490 328.5 490 c 0
 388.833007812 490 437.166992188 470.833007812 473.5 432.5 c 0
 509.833007812 394.166992188 528 346 528 288 c 0
499 247 m 0
 501.666992188 259.666992188 503 273.333007812 503 288 c 0
 502.333007812 339.333007812 486.333007812 381.666992188 455 415 c 0
 423.666992188 448.333007812 383.333007812 465 334 465 c 2
 333 465 l 2
 276.333007812 465 223.833007812 443.166992188 175.5 399.5 c 0
 127.166992188 355.833007812 97.6669921875 303.666992188 87 243 c 0
 84.3330078125 230.333007812 83 216.666992188 83 202 c 0
 83 150.666992188 98.6669921875 108.5 130 75.5 c 0
 161.333007812 42.5 203.666992188 25.8330078125 257 25.5 c 0
 310.333007812 25.1669921875 361.333007812 46.8330078125 410 90.5 c 0
 458.666992188 134.166992188 488.333007812 186.333007812 499 247 c 0
378 613 m 2
 372.666992188 607 366.166992188 602.333007812 358.5 599 c 0
 350.833007812 595.666992188 347 596 347 600 c 0
 347 604 348.333007812 608 351 612 c 2
 413 705 l 2
 421 717 429.166992188 723 437.5 723 c 0
 445.833007812 723 451.5 721.928710938 454.5 719.786132812 c 0
 457.5 717.642578125 459 713.713867188 459 708 c 1
 461 704.666992188 457.666992188 698.666992188 449 690 c 2
 378 613 l 2
EndSplineSet
EndChar

StartChar: adieresis
Encoding: 228 228 133
Width: 574
Flags: W
HStem: 2 26 3 21G<471 473 471 471> 463 25<308 336 336 337> 603 68<303.333 305.667 485.333 487.667>
VStem: 63 25<202 209.333 202 210.333>
LayerCount: 2
Fore
SplineSet
255 2 m 0xb8
 198.333007812 2 152.333007812 21.6669921875 117 61 c 1
 81 98.3330078125 63 145.333007812 63 202 c 0
 63 218.666992188 64.3330078125 234 67 248 c 0
 79 314.666992188 111.166992188 371.333007812 163.5 418 c 0
 215.833007812 464.666992188 273.666992188 488 337 488 c 1
 393 489.333007812 439.333007812 470 476 430 c 0
 496 409.333007812 510.333007812 384 519 354 c 1
 542 478 l 2
 543.333007812 486.666992188 548 490 556 488 c 0
 564 486.666992188 567.333007812 482 566 474 c 2
 485 13 l 2
 483.666992188 6.3330078125 479.666992188 3 473 3 c 2
 471 3 l 1x78
 462.333007812 4.3330078125 459 9 461 17 c 2
 481 133 l 1
 455 93.6669921875 421.833007812 62.1669921875 381.5 38.5 c 0
 341.166992188 14.8330078125 299 2.6669921875 255 2 c 0xb8
92 243 m 0
 89.3330078125 230.333007812 88 216.666992188 88 202 c 0
 88.6669921875 151.333007812 104.333007812 109.666992188 135 77 c 0
 165.666992188 44.3330078125 207.5 27.8330078125 260.5 27.5 c 0
 313.5 27.1669921875 364.166992188 48.6669921875 412.5 92 c 0
 473.5 146.689453125 504 212.356445312 504 289 c 0
 504 339.666992188 488.5 381.333007812 457.5 414 c 0
 426.5 446.666992188 386.333007812 463 337 463 c 2
 336 463 l 2
 280 463 228 441.5 180 398.5 c 0
 132 355.5 102.666992188 303.666992188 92 243 c 0
271 637 m 0
 272.333007812 646.333007812 276.5 654.333007812 283.5 661 c 0
 290.5 667.666992188 298.666992188 671 308 671 c 0
 317.333007812 671 325 667.666992188 331 661 c 0
 337 654.333007812 339.333007812 646.166992188 338 636.5 c 0
 336.666992188 626.833007812 332.5 618.833007812 325.5 612.5 c 0
 318.5 606.166992188 310.333007812 603 301 603 c 0
 291.666992188 603 284 606.333007812 278 613 c 0
 272 619.666992188 269.666992188 627.666992188 271 637 c 0
453 637 m 0
 454.333007812 646.333007812 458.5 654.333007812 465.5 661 c 0
 472.5 667.666992188 480.666992188 671 490 671 c 0
 499.333007812 671 507 667.666992188 513 661 c 0
 519 654.333007812 521.5 646.333007812 520.5 637 c 0
 519.5 627.666992188 515.333007812 619.666992188 508 613 c 0
 500.666992188 606.333007812 492.333007812 603 483 603 c 0
 473.666992188 603 466 606.333007812 460 613 c 0
 454 619.666992188 451.666992188 627.666992188 453 637 c 0
EndSplineSet
EndChar

StartChar: atilde
Encoding: 227 227 134
Width: 574
Flags: W
HStem: 2 26 3 21G<471 473 471 471> 463 25<308 336 336 337> 602 37<453.333 469.333 453.333 478> 641 36<323.333 336.667 323.333 337> 679 20G<520.667 528>
VStem: 63 25<202 209.333 202 210.333>
LayerCount: 2
Fore
SplineSet
255 2 m 0xbe
 198.333007812 2 152.333007812 21.6669921875 117 61 c 1
 81 98.3330078125 63 145.333007812 63 202 c 0
 63 218.666992188 64.3330078125 234 67 248 c 0
 79 314.666992188 111.166992188 371.333007812 163.5 418 c 0
 215.833007812 464.666992188 273.666992188 488 337 488 c 1
 393 489.333007812 439.333007812 470 476 430 c 0
 496 409.333007812 510.333007812 384 519 354 c 1
 542 478 l 2
 543.333007812 486.666992188 548 490 556 488 c 0
 564 486.666992188 567.333007812 482 566 474 c 2
 485 13 l 2
 483.666992188 6.3330078125 479.666992188 3 473 3 c 2
 471 3 l 1x7e
 462.333007812 4.3330078125 459 9 461 17 c 2
 481 133 l 1
 455 93.6669921875 421.833007812 62.1669921875 381.5 38.5 c 0
 341.166992188 14.8330078125 299 2.6669921875 255 2 c 0xbe
92 243 m 0
 89.3330078125 230.333007812 88 216.666992188 88 202 c 0
 88.6669921875 151.333007812 104.333007812 109.666992188 135 77 c 0
 165.666992188 44.3330078125 207.5 27.8330078125 260.5 27.5 c 0
 313.5 27.1669921875 364.166992188 48.6669921875 412.5 92 c 0
 473.5 146.689453125 504 212.356445312 504 289 c 0
 504 339.666992188 488.5 381.333007812 457.5 414 c 0
 426.5 446.666992188 386.333007812 463 337 463 c 2
 336 463 l 2
 280 463 228 441.5 180 398.5 c 0
 132 355.5 102.666992188 303.666992188 92 243 c 0
283 602 m 0
 279 594 273.666992188 590 267 590 c 0
 256.333007812 590 251 594.333007812 251 603 c 0
 251 604.333007812 252.833007812 610.833007812 256.5 622.5 c 0
 260.166992188 634.166992188 270 646.166992188 286 658.5 c 0
 302 670.833007812 316.666992188 677 330 677 c 0
 343.333007812 677 365.333007812 670.666992188 396 658 c 0
 426.666992188 645.333007812 447.666992188 639 459 639 c 0
 479.666992188 639 496.333007812 653.333007812 509 682 c 1
 509 687.333007812 510.5 691.5 513.5 694.5 c 0
 516.5 697.5 519.333007812 699 522 699 c 0
 534 699 540 693.333007812 540 682 c 0
 540 678 539.333007812 674 538 670 c 0
 523.333007812 624.666992188 497 602 459 602 c 0
 447 602 425.666992188 608.5 395 621.5 c 0
 364.333007812 634.5 343 641 331 641 c 0
 310.333007812 641 294.333007812 628 283 602 c 0
EndSplineSet
EndChar

StartChar: acircumflex
Encoding: 226 226 135
Width: 574
Flags: W
HStem: 2 26 3 21G<471 473 471 471> 463 25<308 336 336 337> 700 20G<413 421 421 425.667>
VStem: 63 25<202 209.333 202 210.333>
LayerCount: 2
Fore
SplineSet
255 2 m 0xb8
 198.333007812 2 152.333007812 21.6669921875 117 61 c 1
 81 98.3330078125 63 145.333007812 63 202 c 0
 63 218.666992188 64.3330078125 234 67 248 c 0
 79 314.666992188 111.166992188 371.333007812 163.5 418 c 0
 215.833007812 464.666992188 273.666992188 488 337 488 c 1
 393 489.333007812 439.333007812 470 476 430 c 0
 496 409.333007812 510.333007812 384 519 354 c 1
 542 478 l 2
 543.333007812 486.666992188 548 490 556 488 c 0
 564 486.666992188 567.333007812 482 566 474 c 2
 485 13 l 2
 483.666992188 6.3330078125 479.666992188 3 473 3 c 2
 471 3 l 1x78
 462.333007812 4.3330078125 459 9 461 17 c 2
 481 133 l 1
 455 93.6669921875 421.833007812 62.1669921875 381.5 38.5 c 0
 341.166992188 14.8330078125 299 2.6669921875 255 2 c 0xb8
92 243 m 0
 89.3330078125 230.333007812 88 216.666992188 88 202 c 0
 88.6669921875 151.333007812 104.333007812 109.666992188 135 77 c 0
 165.666992188 44.3330078125 207.5 27.8330078125 260.5 27.5 c 0
 313.5 27.1669921875 364.166992188 48.6669921875 412.5 92 c 0
 473.5 146.689453125 504 212.356445312 504 289 c 0
 504 339.666992188 488.5 381.333007812 457.5 414 c 0
 426.5 446.666992188 386.333007812 463 337 463 c 2
 336 463 l 2
 280 463 228 441.5 180 398.5 c 0
 132 355.5 102.666992188 303.666992188 92 243 c 0
410 694 m 1
 325 618 l 2
 310.333007812 606 300.666992188 600 296 600 c 0
 286.748046875 601.123046875 282.08203125 601.790039062 282 602 c 0
 282.666992188 605.333007812 285.333007812 609.333007812 290 614 c 2
 381 702 l 2
 394.333007812 714 405 720 413 720 c 2
 421 720 l 2
 430.333007812 720 438.333007812 714 445 702 c 2
 498 614 l 2
 500.666992188 610 501.5 606.333007812 500.5 603 c 0
 499.5 599.666992188 497.5 598.333007812 494.5 599 c 0
 491.5 599.666992188 488.833007812 600 486.5 600 c 0
 484.166992188 600 481.666992188 600.833007812 479 602.5 c 0
 476.333007812 604.166992188 474.333007812 605.666992188 473 607 c 0
 471.666992188 608.333007812 470 610.5 468 613.5 c 0
 466 616.5 464.666992188 618.333007812 464 619 c 2
 410 694 l 1
EndSplineSet
EndChar

StartChar: aacute
Encoding: 225 225 136
Width: 574
Flags: W
HStem: 2 26 3 21G<471 473 471 471> 463 25<308 336 336 337> 703 20G<369.333 377.667>
VStem: 63 25<202 209.333 202 210.333>
LayerCount: 2
Fore
SplineSet
255 2 m 0xb8
 198.333007812 2 152.333007812 21.6669921875 117 61 c 1
 81 98.3330078125 63 145.333007812 63 202 c 0
 63 218.666992188 64.3330078125 234 67 248 c 0
 79 314.666992188 111.166992188 371.333007812 163.5 418 c 0
 215.833007812 464.666992188 273.666992188 488 337 488 c 1
 393 489.333007812 439.333007812 470 476 430 c 0
 496 409.333007812 510.333007812 384 519 354 c 1
 542 478 l 2
 543.333007812 486.666992188 548 490 556 488 c 0
 564 486.666992188 567.333007812 482 566 474 c 2
 485 13 l 2
 483.666992188 6.3330078125 479.666992188 3 473 3 c 2
 471 3 l 1x78
 462.333007812 4.3330078125 459 9 461 17 c 2
 481 133 l 1
 455 93.6669921875 421.833007812 62.1669921875 381.5 38.5 c 0
 341.166992188 14.8330078125 299 2.6669921875 255 2 c 0xb8
92 243 m 0
 89.3330078125 230.333007812 88 216.666992188 88 202 c 0
 88.6669921875 151.333007812 104.333007812 109.666992188 135 77 c 0
 165.666992188 44.3330078125 207.5 27.8330078125 260.5 27.5 c 0
 313.5 27.1669921875 364.166992188 48.6669921875 412.5 92 c 0
 473.5 146.689453125 504 212.356445312 504 289 c 0
 504 339.666992188 488.5 381.333007812 457.5 414 c 0
 426.5 446.666992188 386.333007812 463 337 463 c 2
 336 463 l 2
 280 463 228 441.5 180 398.5 c 0
 132 355.5 102.666992188 303.666992188 92 243 c 0
314 613 m 2
 308.666992188 607 302.166992188 602.333007812 294.5 599 c 0
 286.833007812 595.666992188 283 596 283 600 c 0
 283 604 284.333007812 608 287 612 c 2
 349 705 l 2
 357 717 365.166992188 723 373.5 723 c 0
 381.833007812 723 387.5 721.928710938 390.5 719.786132812 c 0
 393.5 717.642578125 395 713.713867188 395 708 c 1
 397 704.666992188 393.666992188 698.666992188 385 690 c 2
 314 613 l 2
EndSplineSet
EndChar

StartChar: agrave
Encoding: 224 224 137
Width: 574
Flags: W
HStem: 2 26 3 21G<471 473 471 471> 463 25<308 336 336 337> 703 20G<344.333 355.667>
VStem: 63 25<202 209.333 202 210.333>
LayerCount: 2
Fore
SplineSet
255 2 m 0xb8
 198.333007812 2 152.333007812 21.6669921875 117 61 c 1
 81 98.3330078125 63 145.333007812 63 202 c 0
 63 218.666992188 64.3330078125 234 67 248 c 0
 79 314.666992188 111.166992188 371.333007812 163.5 418 c 0
 215.833007812 464.666992188 273.666992188 488 337 488 c 1
 393 489.333007812 439.333007812 470 476 430 c 0
 496 409.333007812 510.333007812 384 519 354 c 1
 542 478 l 2
 543.333007812 486.666992188 548 490 556 488 c 0
 564 486.666992188 567.333007812 482 566 474 c 2
 485 13 l 2
 483.666992188 6.3330078125 479.666992188 3 473 3 c 2
 471 3 l 1x78
 462.333007812 4.3330078125 459 9 461 17 c 2
 481 133 l 1
 455 93.6669921875 421.833007812 62.1669921875 381.5 38.5 c 0
 341.166992188 14.8330078125 299 2.6669921875 255 2 c 0xb8
92 243 m 0
 89.3330078125 230.333007812 88 216.666992188 88 202 c 0
 88.6669921875 151.333007812 104.333007812 109.666992188 135 77 c 0
 165.666992188 44.3330078125 207.5 27.8330078125 260.5 27.5 c 0
 313.5 27.1669921875 364.166992188 48.6669921875 412.5 92 c 0
 473.5 146.689453125 504 212.356445312 504 289 c 0
 504 339.666992188 488.5 381.333007812 457.5 414 c 0
 426.5 446.666992188 386.333007812 463 337 463 c 2
 336 463 l 2
 280 463 228 441.5 180 398.5 c 0
 132 355.5 102.666992188 303.666992188 92 243 c 0
441 612 m 2
 443.666992188 608 445 604 445 600 c 0
 445 596 441.166992188 595.666992188 433.5 599 c 0
 425.833007812 602.333007812 419.333007812 607 414 613 c 2
 343 690 l 2
 334.333007812 698.666992188 331 704.666992188 333 708 c 1
 333 718 338.666992188 723 350 723 c 0
 361.333007812 723 371 717 379 705 c 2
 441 612 l 2
EndSplineSet
EndChar

StartChar: Agrave
Encoding: 192 192 138
Width: 790
Flags: MW
HStem: 0 21G<70 74 576.333 580 580 582> 188 25<196 527 196 532 182 527> 903 20G<397.333 408.667>
LayerCount: 2
Fore
SplineSet
64 1 m 0
 56.6669921875 5.6669921875 55.3330078125 11.3330078125 60 18 c 2
 432 693 l 2
 435.333007812 698.333007812 439.666992188 700.333007812 445 699 c 1
 451.666992188 700.333007812 456 697 458 689 c 2
 592 15 l 2
 593.333007812 6.3330078125 590 1.3330078125 582 0 c 1
 580 0 l 2
 572.666992188 0 568.333007812 3.3330078125 567 10 c 2
 532 188 l 1
 182 188 l 1
 82 6 l 2
 79.3330078125 2 76 0 72 0 c 0
 68 0 65.3330078125 0.3330078125 64 1 c 0
439 653 m 1
 196 213 l 1
 527 213 l 1
 439 653 l 1
494 812 m 2
 496.666992188 808 498 804 498 800 c 0
 498 796 494.166992188 795.666992188 486.5 799 c 0
 478.833007812 802.333007812 472.333007812 807 467 813 c 2
 396 890 l 2
 387.333007812 898.666992188 384 904.666992188 386 908 c 1
 386 918 391.666992188 923 403 923 c 0
 414.333007812 923 424 917 432 905 c 2
 494 812 l 2
EndSplineSet
EndChar

StartChar: Aacute
Encoding: 193 193 139
Width: 790
Flags: MW
HStem: 0 21G<70 74 576.333 580 580 582> 188 25<196 527 196 532 182 527> 903 20G<468.333 476.667>
LayerCount: 2
Fore
SplineSet
64 1 m 0
 56.6669921875 5.6669921875 55.3330078125 11.3330078125 60 18 c 2
 432 693 l 2
 435.333007812 698.333007812 439.666992188 700.333007812 445 699 c 1
 451.666992188 700.333007812 456 697 458 689 c 2
 592 15 l 2
 593.333007812 6.3330078125 590 1.3330078125 582 0 c 1
 580 0 l 2
 572.666992188 0 568.333007812 3.3330078125 567 10 c 2
 532 188 l 1
 182 188 l 1
 82 6 l 2
 79.3330078125 2 76 0 72 0 c 0
 68 0 65.3330078125 0.3330078125 64 1 c 0
439 653 m 1
 196 213 l 1
 527 213 l 1
 439 653 l 1
413 813 m 2
 407.666992188 807 401.166992188 802.333007812 393.5 799 c 0
 385.833007812 795.666992188 382 796 382 800 c 0
 382 804 383.333007812 808 386 812 c 2
 448 905 l 2
 456 917 464.166992188 923 472.5 923 c 0
 480.833007812 923 486.5 921.928710938 489.5 919.786132812 c 0
 492.5 917.642578125 494 913.713867188 494 908 c 1
 496 904.666992188 492.666992188 898.666992188 484 890 c 2
 413 813 l 2
EndSplineSet
EndChar

StartChar: Acircumflex
Encoding: 194 194 140
Width: 790
Flags: MW
HStem: 0 21G<70 74 576.333 580 580 582> 188 25<196 527 196 532 182 527> 900 20G<462 470 470 474.667>
LayerCount: 2
Fore
SplineSet
64 1 m 0
 56.6669921875 5.6669921875 55.3330078125 11.3330078125 60 18 c 2
 432 693 l 2
 435.333007812 698.333007812 439.666992188 700.333007812 445 699 c 1
 451.666992188 700.333007812 456 697 458 689 c 2
 592 15 l 2
 593.333007812 6.3330078125 590 1.3330078125 582 0 c 1
 580 0 l 2
 572.666992188 0 568.333007812 3.3330078125 567 10 c 2
 532 188 l 1
 182 188 l 1
 82 6 l 2
 79.3330078125 2 76 0 72 0 c 0
 68 0 65.3330078125 0.3330078125 64 1 c 0
439 653 m 1
 196 213 l 1
 527 213 l 1
 439 653 l 1
459 894 m 1
 374 818 l 2
 359.333007812 806 349.666992188 800 345 800 c 0
 335.748046875 801.123046875 331.08203125 801.790039062 331 802 c 0
 331.666992188 805.333007812 334.333007812 809.333007812 339 814 c 2
 430 902 l 2
 443.333007812 914 454 920 462 920 c 2
 470 920 l 2
 479.333007812 920 487.333007812 914 494 902 c 2
 547 814 l 2
 549.666992188 810 550.5 806.333007812 549.5 803 c 0
 548.5 799.666992188 546.5 798.333007812 543.5 799 c 0
 540.5 799.666992188 537.833007812 800 535.5 800 c 0
 533.166992188 800 530.666992188 800.833007812 528 802.5 c 0
 525.333007812 804.166992188 523.333007812 805.666992188 522 807 c 0
 520.666992188 808.333007812 519 810.5 517 813.5 c 0
 515 816.5 513.666992188 818.333007812 513 819 c 2
 459 894 l 1
EndSplineSet
EndChar

StartChar: Atilde
Encoding: 195 195 141
Width: 790
Flags: MW
HStem: 0 21G<70 74 576.333 580 580 582> 188 25<196 527 196 532 182 527> 802 37<498.667 514.333 498.667 523> 841 36<368.667 382> 879 20G<565.667 573>
LayerCount: 2
Fore
SplineSet
64 1 m 0
 56.6669921875 5.6669921875 55.3330078125 11.3330078125 60 18 c 2
 432 693 l 2
 435.333007812 698.333007812 439.666992188 700.333007812 445 699 c 1
 451.666992188 700.333007812 456 697 458 689 c 2
 592 15 l 2
 593.333007812 6.3330078125 590 1.3330078125 582 0 c 1
 580 0 l 2
 572.666992188 0 568.333007812 3.3330078125 567 10 c 2
 532 188 l 1
 182 188 l 1
 82 6 l 2
 79.3330078125 2 76 0 72 0 c 0
 68 0 65.3330078125 0.3330078125 64 1 c 0
439 653 m 1
 196 213 l 1
 527 213 l 1
 439 653 l 1
328 802 m 0
 324 794 318.666992188 790 312 790 c 0
 301.333007812 790 296 794.333007812 296 803 c 0
 296 804.333007812 297.833007812 810.833007812 301.5 822.5 c 0
 305.166992188 834.166992188 315 846.166992188 331 858.5 c 0
 347 870.833007812 361.833007812 877 375.5 877 c 0
 389.166992188 877 411.333007812 870.666992188 442 858 c 0
 472.666992188 845.333007812 493.333007812 839 504 839 c 0
 524.666992188 839 541.333007812 853.333007812 554 882 c 1
 554 887.333007812 555.5 891.5 558.5 894.5 c 0
 561.5 897.5 564.333007812 899 567 899 c 0
 579 899 585 893.333007812 585 882 c 0
 585 878 584.333007812 874 583 870 c 0
 568.333007812 824.666992188 542 802 504 802 c 0
 492 802 470.666992188 808.5 440 821.5 c 0
 409.333007812 834.5 388 841 376 841 c 0
 355.333007812 841 339.333007812 828 328 802 c 0
EndSplineSet
EndChar

StartChar: Adieresis
Encoding: 196 196 142
Width: 790
Flags: MW
HStem: 0 21G<70 74 576.333 580 580 582> 188 25<196 527 196 532 182 527> 803 68<364.333 366.667 546.333 548.667>
LayerCount: 2
Fore
SplineSet
64 1 m 0
 56.6669921875 5.6669921875 55.3330078125 11.3330078125 60 18 c 2
 432 693 l 2
 435.333007812 698.333007812 439.666992188 700.333007812 445 699 c 1
 451.666992188 700.333007812 456 697 458 689 c 2
 592 15 l 2
 593.333007812 6.3330078125 590 1.3330078125 582 0 c 1
 580 0 l 2
 572.666992188 0 568.333007812 3.3330078125 567 10 c 2
 532 188 l 1
 182 188 l 1
 82 6 l 2
 79.3330078125 2 76 0 72 0 c 0
 68 0 65.3330078125 0.3330078125 64 1 c 0
439 653 m 1
 196 213 l 1
 527 213 l 1
 439 653 l 1
332 837 m 0
 333.333007812 846.333007812 337.5 854.333007812 344.5 861 c 0
 351.5 867.666992188 359.666992188 871 369 871 c 0
 378.333007812 871 386 867.666992188 392 861 c 0
 398 854.333007812 400.333007812 846.166992188 399 836.5 c 0
 397.666992188 826.833007812 393.5 818.833007812 386.5 812.5 c 0
 379.5 806.166992188 371.333007812 803 362 803 c 0
 352.666992188 803 345 806.333007812 339 813 c 0
 333 819.666992188 330.666992188 827.666992188 332 837 c 0
514 837 m 0
 515.333007812 846.333007812 519.5 854.333007812 526.5 861 c 0
 533.5 867.666992188 541.666992188 871 551 871 c 0
 560.333007812 871 568 867.666992188 574 861 c 0
 580 854.333007812 582.5 846.333007812 581.5 837 c 0
 580.5 827.666992188 576.333007812 819.666992188 569 813 c 0
 561.666992188 806.333007812 553.333007812 803 544 803 c 0
 534.666992188 803 527 806.333007812 521 813 c 0
 515 819.666992188 512.666992188 827.666992188 514 837 c 0
EndSplineSet
EndChar

StartChar: questiondown
Encoding: 191 191 143
Width: 534
Flags: MW
HStem: 0 24 399 23<291 291 291 305> 680 20G<350 352 352 352>
VStem: 52 24<155 182 155 212.039>
LayerCount: 2
Fore
SplineSet
344 654 m 0
 336 655.333007812 332.666992188 659.666992188 334 667 c 2
 338 690 l 2
 339.333007812 696.666992188 343.333007812 700 350 700 c 2
 352 700 l 1
 360 698.666992188 363.333007812 694 362 686 c 2
 358 663 l 2
 357.333007812 659.666992188 355.5 657.166992188 352.5 655.5 c 0
 349.5 653.833007812 346.666992188 653.333007812 344 654 c 0
231 0 m 0
 179 0 136.166992188 16.8330078125 102.5 50.5 c 0
 68.8330078125 84.1669921875 52 126.333007812 52 177 c 0
 52 247.078125 80.6669921875 307.412109375 138 358 c 0
 183.333007812 398 234.333007812 419.333007812 291 422 c 1
 313 546 l 2
 314.333007812 552.666992188 318.333007812 556 325 556 c 2
 327 556 l 1
 335 554.666992188 338 550 336 542 c 2
 314 413 l 2
 313.333007812 412.333007812 313 411.666992188 313 411 c 0
 313 403 309 399 301 399 c 0
 249 399 201.333007812 380.333007812 158 343 c 0
 114.666992188 305.666992188 88.3330078125 261 79 209 c 0
 77 197.666992188 76 187 76 177 c 0
 76 133 90.3330078125 96.6669921875 119 68 c 0
 147.666992188 39.3330078125 182 24.8330078125 222 24.5 c 0
 262 24.1669921875 298 32.6669921875 330 50 c 0
 362 67.3330078125 389 90.3330078125 411 119 c 0
 416.333007812 125.666992188 422 126.5 428 121.5 c 0
 434 116.5 434.666992188 110.666992188 430 104 c 0
 406 72 376.333007812 46.6669921875 341 28 c 0
 305.666992188 9.3330078125 269 0 231 0 c 0
EndSplineSet
EndChar

StartChar: oe
Encoding: 263 339 144
Width: 1055
Flags: MW
HStem: 0 26<674.333 700> 248 25<536 955 536 967 530 955> 465 25<304.667 333 333 334>
VStem: 58 25<176.333 209.333 176.333 210.333> 956 25<284.667 313.667>
LayerCount: 2
Fore
SplineSet
981 288 m 0
 981 272.666992188 980.333007812 262.333007812 979 257 c 0
 976.333007812 251 972.333007812 248 967 248 c 2
 530 248 l 1
 526.666992188 241.333007812 525 226.333007812 525 203 c 0
 525 151.666992188 541.333007812 109.333007812 574 76 c 0
 606.666992188 42.6669921875 648.666992188 26 700 26 c 0
 736.666992188 26 772.333007812 35 807 53 c 0
 841.666992188 71 871.333007812 95.3330078125 896 126 c 0
 900.666992188 132 906.666992188 132.666992188 914 128 c 1
 920 122 920.666992188 116 916 110 c 0
 856.666992188 38 784.666992188 1.3330078125 700 0 c 0
 641.333007812 0 593.333007812 19.6669921875 556 59 c 1
 525.333007812 89 507.333007812 127 502 173 c 1
 478.666992188 122.333007812 444.166992188 81 398.5 49 c 0
 352.833007812 17 302.833007812 0.8330078125 248.5 0.5 c 0
 194.166992188 0.1669921875 148.666992188 19.3330078125 112 58 c 0
 76 97.3330078125 58 145.333007812 58 202 c 0
 58 218.666992188 59.3330078125 233.666992188 62 247 c 0
 74 314.333007812 106.333007812 371.666992188 159 419 c 0
 211.666992188 466.333007812 268.166992188 490 328.5 490 c 0
 388.833007812 490 437.333007812 470.666992188 474 432 c 0
 502.666992188 401.333007812 520 363 526 317 c 1
 549.333007812 367.666992188 584.5 409.166992188 631.5 441.5 c 0
 678.5 473.833007812 729.833007812 490.166992188 785.5 490.5 c 0
 841.166992188 490.833007812 887.666992188 471.333007812 925 432 c 1
 962.333007812 394.666992188 981 346.666992188 981 288 c 0
499 247 m 0
 501.666992188 259.666992188 503 273.333007812 503 288 c 0
 502.333007812 339.333007812 486.333007812 381.666992188 455 415 c 0
 423.666992188 448.333007812 383.333007812 465 334 465 c 2
 333 465 l 2
 276.333007812 465 223.833007812 443.166992188 175.5 399.5 c 0
 127.166992188 355.833007812 97.6669921875 303.666992188 87 243 c 0
 84.3330078125 230.333007812 83 216.666992188 83 202 c 0
 83 150.666992188 98.6669921875 108.5 130 75.5 c 0
 161.333007812 42.5 203.666992188 25.8330078125 257 25.5 c 0
 310.333007812 25.1669921875 361.333007812 46.8330078125 410 90.5 c 0
 458.666992188 134.166992188 488.333007812 186.333007812 499 247 c 0
907.5 415 m 0
 875.166992188 448.333007812 832.833007812 465.166992188 780.5 465.5 c 0
 728.166992188 465.833007812 678.5 447.5 631.5 410.5 c 0
 584.5 373.5 552.666992188 327.666992188 536 273 c 1
 955 273 l 1
 955.666992188 276.333007812 956 281.333007812 956 288 c 0
 956 339.333007812 939.833007812 381.666992188 907.5 415 c 0
EndSplineSet
EndChar

StartChar: ae
Encoding: 230 230 145
Width: 954
Flags: W
HStem: 0 21G<664.667 694> 2 24 248 25<530 949 530 961 524 949> 467 23
VStem: 51 25<204 211.333 204 212.333> 950 25<284.667 313.667>
LayerCount: 2
Fore
SplineSet
975 288 m 0x7c
 975 272.666992188 974.333007812 262.333007812 973 257 c 0
 970.333007812 251 966.333007812 248 961 248 c 2
 524 248 l 1
 520.666992188 241.333007812 519 226.333007812 519 203 c 0
 519 151.666992188 535.333007812 109.333007812 568 76 c 0
 600.666992188 42.6669921875 642.666992188 26 694 26 c 0x7c
 730.666992188 26 766.333007812 35 801 53 c 0
 835.666992188 71 865.333007812 95.3330078125 890 126 c 0
 894.666992188 132 900.666992188 132.666992188 908 128 c 1
 914 122 914.666992188 116 910 110 c 0
 850.666992188 38 778.666992188 1.3330078125 694 0 c 0xbc
 635.333007812 0 587.333007812 19.6669921875 550 59 c 0
 524.666992188 84.3330078125 508 114.333007812 500 149 c 1
 476 13 l 2
 474.666992188 6.3330078125 470.666992188 3 464 3 c 2
 462 3 l 1
 453.333007812 4.3330078125 450 9 452 17 c 2
 472 134 l 1
 446 94.6669921875 412.833007812 63 372.5 39 c 0
 332.166992188 15 289.666992188 2.6669921875 245 2 c 0
 187.666992188 2 141 21.3330078125 105 60 c 0
 69 98.6669921875 51 146.666992188 51 204 c 0
 51 220.666992188 52.3330078125 236 55 250 c 0
 67 317.333007812 99.3330078125 374.5 152 421.5 c 0
 204.666992188 468.5 261.166992188 492.166992188 321.5 492.5 c 0
 381.833007812 492.833007812 430.333007812 473.333007812 467 434 c 0
 487.666992188 412.666992188 502.333007812 387 511 357 c 1
 534 482 l 2
 535.333007812 490.666992188 540 494 548 492 c 0
 556 490.666992188 559.333007812 486 558 478 c 2
 534 345 l 1
 560 388.333007812 594.833007812 423.333007812 638.5 450 c 0
 682.166992188 476.666992188 728 490 776 490 c 0
 834 490.666992188 881.666992188 471.333007812 919 432 c 1
 956.333007812 394.666992188 975 346.666992188 975 288 c 0x7c
80 245 m 0
 77.3330078125 232.333007812 76 218.666992188 76 204 c 0
 76.6669921875 152.666992188 92.6669921875 110.5 124 77.5 c 0
 155.333007812 44.5 197.666992188 27.8330078125 251 27.5 c 0
 304.333007812 27.1669921875 355.333007812 48.8330078125 404 92.5 c 0
 465.333007812 147.532226562 496 213.698242188 496 291 c 0
 496 342.333007812 480.333007812 384.5 449 417.5 c 0
 417.666992188 450.5 377 467 327 467 c 2
 326 467 l 2
 269.333007812 467 216.833007812 445.166992188 168.5 401.5 c 0
 120.166992188 357.833007812 90.6669921875 305.666992188 80 245 c 0
901.5 415 m 0
 869.166992188 448.333007812 826.833007812 465.166992188 774.5 465.5 c 0
 722.166992188 465.833007812 672.5 447.5 625.5 410.5 c 0
 578.5 373.5 546.666992188 327.666992188 530 273 c 1
 949 273 l 1
 949.666992188 276.333007812 950 281.333007812 950 288 c 0
 950 339.333007812 933.833007812 381.666992188 901.5 415 c 0
EndSplineSet
EndChar

StartChar: trademark
Encoding: 264 8482 146
Width: 690
Flags: MW
HStem: 400 21G<78 81 272 272 272 273 510 510 510 512> 678 20G
LayerCount: 2
Fore
SplineSet
86 404 m 2
 84.6669921875 401.333007812 82.5 400 79.5 400 c 0
 76.5 400 75 402 75 406 c 2
 124 687 l 1
 27 687 l 2
 23.6669921875 687 22 688.833007812 22 692.5 c 0
 22 696.166992188 23.6669921875 698 27 698 c 2
 235 698 l 2
 238.333007812 698 240 696.166992188 240 692.5 c 0
 240 688.833007812 238.333007812 687 235 687 c 2
 135 687 l 1
 86 404 l 2
415 524 m 2
 413 524 l 2
 410.333007812 524 409 525 409 527 c 2
 327 678 l 1
 278 405 l 2
 276.666992188 401.666992188 275 400 273 400 c 2
 272 400 l 1
 268.666992188 401.333007812 267 403.666992188 267 407 c 2
 318 694 l 2
 319.333007812 696.666992188 321.333007812 698 324 698 c 2
 325 698 l 2
 327 698 328.333007812 697 329 695 c 2
 415 537 l 1
 557 696 l 2
 558.333007812 697.333007812 560 698 562 698 c 2
 563 698 l 2
 566.333007812 698 568 696 568 692 c 2
 517 405 l 2
 515.666992188 401.666992188 514 400 512 400 c 2
 510 400 l 2
 507.333007812 400.666992188 506 403 506 407 c 2
 554 677 l 1
 419 526 l 2
 417.666992188 524.666992188 416.333007812 524 415 524 c 2
EndSplineSet
EndChar

StartChar: copyright
Encoding: 169 169 147
Width: 830
Flags: MW
HStem: -12 28<367 461 367 464.333> 166 40<400.333 438.667 400.333 441.333> 505 40<397 434> 684 28<369 463>
VStem: 53 30<348 350 302 399.667> 237 44<354 355 355 356 356 357 334.667 381.667> 747 30<350 352 300.333 398>
LayerCount: 2
Fore
SplineSet
414 -12 m 0
 313.333007812 -12 228 23.1669921875 158 93.5 c 0
 88 163.833007812 53 248.666992188 53 348 c 2
 53 350 l 2
 53 449.333007812 88.3330078125 534.5 159 605.5 c 0
 229.666992188 676.5 315.333007812 712 416 712 c 0
 516.666992188 712 602 676.833007812 672 606.5 c 0
 742 536.166992188 777 451.333007812 777 352 c 2
 777 350 l 2
 777 250.666992188 741.666992188 165.5 671 94.5 c 0
 600.333007812 23.5 514.666992188 -12 414 -12 c 0
414 16 m 0
 508 16 587 48.5 651 113.5 c 0
 715 178.5 747 257.333007812 747 350 c 2
 747 352 l 2
 747 444 715.333007812 522.333007812 652 587 c 0
 588.666992188 651.666992188 510 684 416 684 c 0
 322 684 243 651.5 179 586.5 c 0
 115 521.5 83 442.666992188 83 350 c 2
 83 348 l 2
 83 256 114.666992188 177.666992188 178 113 c 0
 241.333007812 48.3330078125 320 16 414 16 c 0
553 220 m 0
 511.666992188 184 466.166992188 166 416.5 166 c 0
 366.833007812 166 324.5 184.333007812 289.5 221 c 0
 254.5 257.666992188 237 302 237 354 c 2
 237 356 l 2
 237 407.333007812 254.666992188 451.666992188 290 489 c 0
 325.333007812 526.333007812 367.833007812 545 417.5 545 c 0
 467.166992188 545 511 528.333007812 549 495 c 0
 555 490.333007812 558 484.666992188 558 478 c 0
 558 471.333007812 555.833007812 466 551.5 462 c 0
 547.166992188 458 542.333007812 456 537 456 c 0
 531.666992188 456 526 458.333007812 520 463 c 0
 487.333007812 491 452.5 505 415.5 505 c 0
 378.5 505 346.833007812 490.5 320.5 461.5 c 0
 294.166992188 432.5 281 397.666992188 281 357 c 2
 281 355 l 2
 281 314.333007812 294.5 279.333007812 321.5 250 c 0
 348.5 220.666992188 381.166992188 206 419.5 206 c 0
 457.833007812 206 493.333007812 220.666992188 526 250 c 1
 531.333007812 253.333007812 536.333007812 255 541 255 c 0
 545.666992188 255 550 253 554 249 c 0
 558 245 560 240 560 234 c 0
 560 228 557.666992188 223.333007812 553 220 c 0
EndSplineSet
EndChar

StartChar: registered
Encoding: 174 174 148
Width: 416
Flags: W
HStem: 360 162<183.333 209 148 231.667> 531 108<148 210 148 210> 648 62<141.667 232.667 184.333 210> 681 20G<185.333 231.667>
VStem: 34 105<534 535 535 559> 148 117<426 593 522 593 578 593 578 639 578 639> 272 110<511 595>
LayerCount: 2
Fore
SplineSet
331 411.5 m 0xee
 297 377.166992188 255.833007812 360 207.5 360 c 0
 159.166992188 360 118.166992188 377 84.5 411 c 0
 50.8330078125 445 34 486 34 534 c 2
 34 535 l 2
 34 583 51 624.166992188 85 658.5 c 0
 119 692.833007812 160.166992188 710 208.5 710 c 0
 256.833007812 710 297.833007812 693 331.5 659 c 0
 365.166992188 625 382 584 382 536 c 2
 382 535 l 2
 382 487 365 445.833007812 331 411.5 c 0xee
91 417 m 0
 122.333007812 385 161.166992188 369 207.5 369 c 0
 253.833007812 369 292.833007812 385.166992188 324.5 417.5 c 0
 356.166992188 449.833007812 372 489 372 535 c 2
 372 536 l 2
 372 582 356.333007812 621 325 653 c 0
 293.666992188 685 254.833007812 701 208.5 701 c 0xde
 162.166992188 701 123.166992188 684.833007812 91.5 652.5 c 0
 59.8330078125 620.166992188 44 581 44 535 c 2
 44 534 l 2
 44 488 59.6669921875 449 91 417 c 0
260 471 m 0
 260 440.333007812 266.333007812 425 279 425 c 0
 282.333007812 425 284 426.666992188 284 430 c 1
 282.666992188 432 281 433 279 433 c 0
 272.333007812 433 269 444.5 269 467.5 c 0
 269 490.5 259 507.666992188 239 519 c 0
 235.666992188 521 231.666992188 522.666992188 227 524 c 1
 240.333007812 528 251.166992188 535.5 259.5 546.5 c 0
 267.833007812 557.5 272 571 272 587 c 0
 272 603 266 617.166992188 254 629.5 c 0
 242 641.833007812 227.333007812 648 210 648 c 2
 143 648 l 2xee
 140.333007812 648 139 646.666992188 139 644 c 2
 139 426 l 2
 139 422.666992188 140.5 421 143.5 421 c 0
 146.5 421 148 422.666992188 148 426 c 2
 148 522 l 1
 209 522 l 2
 211 521.333007812 215.833007812 520 223.5 518 c 0
 231.166992188 516 238 511.666992188 244 505 c 1
 254.666992188 497 260 485.666992188 260 471 c 0
210 531 m 2
 148 531 l 1
 148 639 l 1
 210 639 l 2
 225.333007812 639 238.333007812 633.833007812 249 623.5 c 0
 259.666992188 613.166992188 265 600.5 265 585.5 c 0
 265 570.5 259.666992188 557.666992188 249 547 c 0
 238.333007812 536.333007812 225.333007812 531 210 531 c 2
EndSplineSet
EndChar

StartChar: aring
Encoding: 229 229 149
Width: 574
Flags: W
HStem: 2 26 3 21G<459 461 459 459> 463 25<296 324 324 325> 552 22<398 414 398 414> 689 22<419 434>
VStem: 51 25<202 209.333 202 210.333>
LayerCount: 2
Fore
SplineSet
430 711 m 0x3c
 452 711 469.666992188 703.5 483 688.5 c 0
 496.333007812 673.5 501 655 497 633 c 1
 497 632 l 1
 493.666992188 610 482.833007812 591.166992188 464.5 575.5 c 0
 446.166992188 559.833007812 425.5 552 402.5 552 c 0
 379.5 552 361.666992188 559.833007812 349 575.5 c 0
 336.333007812 591.166992188 331.666992188 610 335 632 c 1
 335 633 l 1
 339.666992188 656.333007812 351.166992188 675.166992188 369.5 689.5 c 0
 387.833007812 703.833007812 408 711 430 711 c 0x3c
473 632 m 1
 475.666992188 646.666992188 472.5 659.833007812 463.5 671.5 c 0
 454.5 683.166992188 442 689 426 689 c 0
 410 689 395.5 683.166992188 382.5 671.5 c 0
 369.5 659.833007812 361.666992188 646.666992188 359 632 c 1
 359 631 l 1
 356.333007812 616.333007812 359.5 603.166992188 368.5 591.5 c 0
 377.5 579.833007812 390 574 406 574 c 0
 422 574 436.5 579.833007812 449.5 591.5 c 0
 462.5 603.166992188 470.333007812 616.333007812 473 631 c 1
 473 632 l 1
243 2 m 0xbc
 186.333007812 2 140.333007812 21.6669921875 105 61 c 1
 69 98.3330078125 51 145.333007812 51 202 c 0
 51 218.666992188 52.3330078125 234 55 248 c 0
 67 314.666992188 99.1669921875 371.333007812 151.5 418 c 0
 203.833007812 464.666992188 261.666992188 488 325 488 c 1
 381 489.333007812 427.333007812 470 464 430 c 0
 484 409.333007812 498.333007812 384 507 354 c 1
 530 478 l 2
 531.333007812 486.666992188 536 490 544 488 c 0
 552 486.666992188 555.333007812 482 554 474 c 2
 473 13 l 2
 471.666992188 6.3330078125 467.666992188 3 461 3 c 2
 459 3 l 1x7c
 450.333007812 4.3330078125 447 9 449 17 c 2
 469 133 l 1
 443 93.6669921875 409.833007812 62.1669921875 369.5 38.5 c 0
 329.166992188 14.8330078125 287 2.6669921875 243 2 c 0xbc
80 243 m 0
 77.3330078125 230.333007812 76 216.666992188 76 202 c 0
 76.6669921875 151.333007812 92.3330078125 109.666992188 123 77 c 0
 153.666992188 44.3330078125 195.5 27.8330078125 248.5 27.5 c 0
 301.5 27.1669921875 352.166992188 48.6669921875 400.5 92 c 0
 461.5 146.689453125 492 212.356445312 492 289 c 0
 492 339.666992188 476.5 381.333007812 445.5 414 c 0
 414.5 446.666992188 374.333007812 463 325 463 c 2
 324 463 l 2
 268 463 216 441.5 168 398.5 c 0
 120 355.5 90.6669921875 303.666992188 80 243 c 0
EndSplineSet
EndChar

StartChar: Aring
Encoding: 197 197 150
Width: 755
Flags: MW
HStem: 1 21G<86 86.3335 602.667 603> 188 26<217 547 217 552 202 547> 796 22<476 491>
LayerCount: 2
Fore
SplineSet
103 9 m 1
 101.666992188 3 98.6669921875 0.1669921875 94 0.5 c 0
 89.3330078125 0.8330078125 86.6669921875 1 86 1 c 0
 80 5 79 10.6669921875 83 18 c 2
 438 662 l 1
 421.333007812 666.666992188 408.833007812 676 400.5 690 c 0
 392.166992188 704 389.333007812 720.333007812 392 739 c 1
 392 740 l 1
 396.666992188 763.333007812 408.166992188 782.166992188 426.5 796.5 c 0
 444.833007812 810.833007812 465 818 487 818 c 0
 509 818 526.666992188 810.5 540 795.5 c 0
 553.333007812 780.5 558 762 554 740 c 1
 554 739 l 1
 550.666992188 721 542.833007812 705 530.5 691 c 0
 518.166992188 677 503 667.666992188 485 663 c 1
 613 18 l 2
 615 10.6669921875 611.666992188 5 603 1 c 0
 602.333007812 1 600.333007812 0.8330078125 597 0.5 c 0
 593.666992188 0.1669921875 590.333007812 3 587 9 c 1
 552 188 l 1
 202 188 l 1
 103 9 l 1
416 738 m 1
 414 725.333007812 416.5625 712.666992188 423.6875 700 c 0
 430.8125 687.333007812 443.916992188 681 463 681 c 0
 482.182617188 681 497.645507812 687.5 509.38671875 700.5 c 0
 521.12890625 713.5 528 726 530 738 c 1
 530 739 l 1
 532.666992188 753.666992188 529.5 766.833007812 520.5 778.5 c 0
 511.5 790.166992188 499 796 483 796 c 0
 467 796 452.5 790.166992188 439.5 778.5 c 0
 426.5 766.833007812 418.666992188 753.666992188 416 739 c 1
 416 738 l 1
217 214 m 1
 547 214 l 1
 459 652 l 1
 217 214 l 1
EndSplineSet
EndChar

StartChar: Scaron
Encoding: 265 352 151
Width: 640
Flags: MW
HStem: -1 23<287 339.667> 677 22<394 435>
LayerCount: 2
Fore
SplineSet
473 788 m 1
 558 864 l 2
 572.666992188 876 582.333007812 882 587 882 c 0
 596.251953125 880.876953125 600.91796875 880.209960938 601 880 c 0
 600.333007812 876.666992188 597.666992188 872.666992188 593 868 c 2
 502 780 l 2
 488.666992188 768 478 762 470 762 c 2
 462 762 l 2
 452.666992188 762 444.666992188 768 438 780 c 2
 385 868 l 2
 382.333007812 872 381.5 875.666992188 382.5 879 c 0
 383.5 882.333007812 385.5 883.666992188 388.5 883 c 0
 391.5 882.333007812 394.166992188 882 396.5 882 c 0
 398.833007812 882 401.333007812 881.166992188 404 879.5 c 0
 406.666992188 877.833007812 408.666992188 876.333007812 410 875 c 0
 411.333007812 873.666992188 413 871.5 415 868.5 c 0
 417 865.5 418.333007812 863.666992188 419 863 c 2
 473 788 l 1
69 99 m 0
 140.333007812 32.3330078125 219 -1 305 -1 c 0
 374.333007812 -1 436.666992188 17 492 53 c 0
 547.333007812 89 579.833007812 133 589.5 185 c 0
 599.166992188 237 582.333007812 278.666992188 539 310 c 0
 501.666992188 338 446.333007812 359 373 373 c 1
 371 374 l 1
 305 386.666992188 255.833007812 405.333007812 223.5 430 c 0
 191.166992188 454.666992188 178.333007812 486.833007812 185 526.5 c 0
 191.666992188 566.166992188 218.333007812 601.166992188 265 631.5 c 0
 311.666992188 661.833007812 364 677 422 677 c 0
 448 677 473.5 672.5 498.5 663.5 c 0
 523.5 654.5 543 645.5 557 636.5 c 0
 571 627.5 588.666992188 615 610 599 c 0
 615.333007812 595.666992188 621 597 627 603 c 0
 632.333007812 609.666992188 632 614.666992188 626 618 c 0
 604.666992188 634 586.5 646.833007812 571.5 656.5 c 0
 556.5 666.166992188 535.5 675.666992188 508.5 685 c 0
 481.5 694.333007812 454 699 426 699 c 0
 362 699 304.166992188 682.166992188 252.5 648.5 c 0
 200.833007812 614.833007812 170.666992188 574.333007812 162 527 c 0
 153.333007812 479.666992188 169.333007812 440.666992188 210 410 c 0
 242.666992188 384.666992188 293.666992188 365.333007812 363 352 c 1
 365 351 l 1
 434.333007812 338.333007812 487 318.666992188 523 292 c 1
 559.666992188 263.333007812 574.333007812 227.333007812 567 184 c 0
 559.666992188 140.666992188 531 102.833007812 481 70.5 c 0
 431 38.1669921875 373.666992188 22 309 22 c 0
 265 22 223.5 31.3330078125 184.5 50 c 0
 145.5 68.6669921875 112.666992188 91 86 117 c 0
 80.6669921875 121 75.3330078125 120.166992188 70 114.5 c 0
 64.6669921875 108.833007812 64.3330078125 103.666992188 69 99 c 0
EndSplineSet
EndChar

StartChar: scaron
Encoding: 266 353 152
Width: 497
Flags: MW
HStem: 1 25<197 245> 465 25<282.667 312.333>
LayerCount: 2
Fore
SplineSet
343 571 m 1
 428 647 l 2
 442.666992188 659 452.333007812 665 457 665 c 0
 466.251953125 663.876953125 470.91796875 663.209960938 471 663 c 0
 470.333007812 659.666992188 467.666992188 655.666992188 463 651 c 2
 372 563 l 2
 358.666992188 551 348 545 340 545 c 2
 332 545 l 2
 322.666992188 545 314.666992188 551 308 563 c 2
 255 651 l 2
 252.333007812 655 251.5 658.666992188 252.5 662 c 0
 253.5 665.333007812 255.5 666.666992188 258.5 666 c 0
 261.5 665.333007812 264.166992188 665 266.5 665 c 0
 268.833007812 665 271.333007812 664.166992188 274 662.5 c 0
 276.666992188 660.833007812 278.666992188 659.333007812 280 658 c 0
 281.333007812 656.666992188 283 654.5 285 651.5 c 0
 287 648.5 288.333007812 646.666992188 289 646 c 2
 343 571 l 1
56 71 m 0
 105.333007812 24.3330078125 160.333007812 1 221 1 c 0
 269 1 312.666992188 13.8330078125 352 39.5 c 0
 391.333007812 65.1669921875 414.333007812 96.1669921875 421 132.5 c 0
 427.666992188 168.833007812 415.666992188 199 385 223 c 0
 361 241 322.333007812 255.666992188 269 267 c 1
 267 267 l 1
 175.987304688 284.926757812 134.8203125 318.59375 143.5 368 c 0
 147.833007812 392.666992188 165.333007812 415 196 435 c 0
 227.333007812 455 260.333007812 465 295 465 c 0
 329.666992188 465 361.5 456 390.5 438 c 0
 400.166992188 432 412.333007812 423.666992188 427 413 c 0
 433 408.333007812 439 409.333007812 445 416 c 0
 451 422.666992188 450.666992188 428.666992188 444 434 c 0
 428 445.333007812 415.166992188 454.166992188 405.5 460.5 c 0
 395.833007812 466.833007812 381.5 473.333007812 362.5 480 c 0
 343.5 486.666992188 324.333007812 490 305 490 c 0
 260.333007812 490 219.833007812 478.166992188 183.5 454.5 c 0
 147.166992188 430.833007812 125.666992188 401.666992188 119 367 c 0
 112.333007812 332.333007812 123.666992188 304.333007812 153 283 c 0
 175.666992188 265.666992188 211 252 259 242 c 1
 260 242 l 1
 359.80078125 222.860351562 405.133789062 187.193359375 396 135 c 0
 390.666992188 105 371.666992188 79.6669921875 339 59 c 1
 306.333007812 37 268.333007812 26 225 26 c 0
 169 26 119 47.3330078125 75 90 c 1
 70.3330078125 96 64.5 95.5 57.5 88.5 c 0
 50.5 81.5 50 75.6669921875 56 71 c 0
EndSplineSet
EndChar

StartChar: quotedblbase
Encoding: 267 8222 153
Width: 410
Flags: MW
HStem: -105 21G<62.3335 73.6665 242.333 253.667> 69 20G<159.333 168.667 340 349>
LayerCount: 2
Fore
SplineSet
56 -90 m 1
 58.6669921875 -84 62.6669921875 -79.6669921875 68 -77 c 0
 107.333007812 -57.6669921875 129.666992188 -32 135 0 c 1
 117.666992188 5.3330078125 111.666992188 17 117 35 c 1
 122 56 l 2
 124.666992188 65.3330078125 130 73.1669921875 138 79.5 c 0
 146 85.8330078125 154.666992188 89 164 89 c 0
 173.333007812 89 180.333007812 85.8330078125 185 79.5 c 0
 189.666992188 73.1669921875 190.666992188 65.3330078125 188 56 c 2
 182 31 l 1
 168 -20.3330078125 150 -55 128 -73 c 0
 100.666992188 -94.3330078125 80.3330078125 -105 67 -105 c 0
 57.6669921875 -105 54 -100 56 -90 c 1
236 -90 m 1
 238.666992188 -84 242.666992188 -79.6669921875 248 -77 c 0
 287.333007812 -57.6669921875 309.666992188 -32 315 0 c 1
 297.666992188 5.3330078125 291.666992188 17 297 35 c 1
 302 56 l 2
 304.666992188 65.3330078125 310.166992188 73.1669921875 318.5 79.5 c 0
 326.833007812 85.8330078125 335.5 89 344.5 89 c 0
 353.5 89 360.333007812 85.6669921875 365 79 c 0
 369.666992188 72.3330078125 370.666992188 64.6669921875 368 56 c 2
 362 31 l 1
 348 -20.3330078125 330 -55 308 -73 c 0
 280.666992188 -94.3330078125 260.333007812 -105 247 -105 c 0
 237.666992188 -105 234 -100 236 -90 c 1
EndSplineSet
EndChar

StartChar: ellipsis
Encoding: 268 8230 154
Width: 680
Flags: MW
HStem: 3 50<104.667 111 104 111.333 260.667 267 416.667 423>
LayerCount: 2
Fore
SplineSet
132 28 m 0
 132 21.3330078125 129.666992188 15.5 125 10.5 c 0
 120.333007812 5.5 114.666992188 3 108 3 c 0
 101.333007812 3 95.3330078125 5.5 90 10.5 c 0
 84.6669921875 15.5 82 21.3330078125 82 28 c 0
 82 34.6669921875 84.5 40.5 89.5 45.5 c 0
 94.5 50.5 100.5 53 107.5 53 c 0
 114.5 53 120.333007812 50.5 125 45.5 c 0
 129.666992188 40.5 132 34.6669921875 132 28 c 0
288 28 m 0
 288 21.3330078125 285.666992188 15.5 281 10.5 c 0
 276.333007812 5.5 270.666992188 3 264 3 c 0
 257.333007812 3 251.333007812 5.5 246 10.5 c 0
 240.666992188 15.5 238 21.3330078125 238 28 c 0
 238 34.6669921875 240.5 40.5 245.5 45.5 c 0
 250.5 50.5 256.5 53 263.5 53 c 0
 270.5 53 276.333007812 50.5 281 45.5 c 0
 285.666992188 40.5 288 34.6669921875 288 28 c 0
444 28 m 0
 444 21.3330078125 441.666992188 15.5 437 10.5 c 0
 432.333007812 5.5 426.666992188 3 420 3 c 0
 413.333007812 3 407.333007812 5.5 402 10.5 c 0
 396.666992188 15.5 394 21.3330078125 394 28 c 0
 394 34.6669921875 396.5 40.5 401.5 45.5 c 0
 406.5 50.5 412.5 53 419.5 53 c 0
 426.5 53 432.333007812 50.5 437 45.5 c 0
 441.666992188 40.5 444 34.6669921875 444 28 c 0
EndSplineSet
EndChar

StartChar: Ydieresis
Encoding: 269 376 155
Width: 716
Flags: MW
HStem: -2 21G<196 196 196 199> 803 68<272.333 274.667 454.333 456.667>
LayerCount: 2
Fore
SplineSet
196 -2 m 1
 188 -0.6669921875 184.666992188 4.3330078125 186 13 c 2
 244 343 l 1
 58 679 l 2
 53.3330078125 686.333007812 55 692 63 696 c 1
 71 701.333007812 76.6669921875 699.666992188 80 691 c 1
 260 367 l 1
 557 694 l 2
 563 700 569 700.166992188 575 694.5 c 0
 581 688.833007812 581.333007812 683 576 677 c 2
 270 339 l 1
 269 339 l 1
 211 8 l 2
 209.666992188 1.3330078125 205.666992188 -2 199 -2 c 2
 196 -2 l 1
240 837 m 0
 241.333007812 846.333007812 245.5 854.333007812 252.5 861 c 0
 259.5 867.666992188 267.666992188 871 277 871 c 0
 286.333007812 871 294 867.666992188 300 861 c 0
 306 854.333007812 308.333007812 846.166992188 307 836.5 c 0
 305.666992188 826.833007812 301.5 818.833007812 294.5 812.5 c 0
 287.5 806.166992188 279.333007812 803 270 803 c 0
 260.666992188 803 253 806.333007812 247 813 c 0
 241 819.666992188 238.666992188 827.666992188 240 837 c 0
422 837 m 0
 423.333007812 846.333007812 427.5 854.333007812 434.5 861 c 0
 441.5 867.666992188 449.666992188 871 459 871 c 0
 468.333007812 871 476 867.666992188 482 861 c 0
 488 854.333007812 490.5 846.333007812 489.5 837 c 0
 488.5 827.666992188 484.333007812 819.666992188 477 813 c 0
 469.666992188 806.333007812 461.333007812 803 452 803 c 0
 442.666992188 803 435 806.333007812 429 813 c 0
 423 819.666992188 420.666992188 827.666992188 422 837 c 0
EndSplineSet
EndChar

StartChar: divide
Encoding: 247 247 156
Width: 620
Flags: W
HStem: 111 97<227 271> 111 217<227 238> 376 217<389 400 389 544> 496 97<358 400>
LayerCount: 2
Fore
SplineSet
84 328 m 2x60
 528 328 l 2
 534.666992188 328 541.166992188 330.333007812 547.5 335 c 0
 553.833007812 339.666992188 558 345.333007812 560 352 c 0
 562.666992188 358.666992188 562.333007812 364.333007812 559 369 c 0
 555.666992188 373.666992188 550.666992188 376 544 376 c 2
 100 376 l 2
 93.3330078125 376 87 373.666992188 81 369 c 0
 75 364.333007812 70.8330078125 358.666992188 68.5 352 c 0
 66.1669921875 345.333007812 66.5 339.666992188 69.5 335 c 0
 72.5 330.333007812 77.3330078125 328 84 328 c 2x60
362.5 581 m 0
 372.833007812 589 383.5 593 394.5 593 c 0x20
 405.5 593 413.666992188 589.166992188 419 581.5 c 0
 424.333007812 573.833007812 425.333007812 564.333007812 422 553 c 2
 416 536 l 2
 412.666992188 525.333007812 405.833007812 516 395.5 508 c 0
 385.166992188 500 374.5 496 363.5 496 c 0x10
 352.5 496 344.333007812 499.833007812 339 507.5 c 0
 333.666992188 515.166992188 332.666992188 524.666992188 336 536 c 2
 342 553 l 2
 345.333007812 563.666992188 352.166992188 573 362.5 581 c 0
233.5 196 m 0
 243.833007812 204 254.5 208 265.5 208 c 0
 276.5 208 284.666992188 204.166992188 290 196.5 c 0
 295.333007812 188.833007812 296.333007812 179.333007812 293 168 c 2
 287 151 l 2
 283 139.666992188 275.666992188 130.166992188 265 122.5 c 0
 254.333007812 114.833007812 243.5 111 232.5 111 c 0x80
 221.5 111 213.5 115 208.5 123 c 0
 203.5 131 203 140.333007812 207 151 c 2
 213 168 l 2
 216.333007812 178.666992188 223.166992188 188 233.5 196 c 0
EndSplineSet
EndChar

StartChar: multiply
Encoding: 215 215 157
Width: 620
Flags: MW
HStem: 142 21G<120.667 127.333 491.333 498.667> 542 20G<121.333 128.667 492.667 499.333>
LayerCount: 2
Fore
SplineSet
512 520 m 2
 343 353 l 1
 511 187 l 2
 517 181 520 174.333007812 520 167 c 0
 520 159.666992188 517.666992188 153.666992188 513 149 c 0
 508.333007812 144.333007812 502.333007812 142 495 142 c 0
 487.666992188 142 481 145 475 151 c 2
 309 319 l 1
 142 150 l 2
 136.666992188 144.666992188 130.666992188 142 124 142 c 0
 117.333007812 142 111.666992188 144.333007812 107 149 c 0
 102.333007812 153.666992188 100 159.333007812 100 166 c 0
 100 172.666992188 102.666992188 178.666992188 108 184 c 2
 277 351 l 1
 109 517 l 2
 103 523 100 529.666992188 100 537 c 0
 100 544.333007812 102.333007812 550.333007812 107 555 c 0
 111.666992188 559.666992188 117.666992188 562 125 562 c 0
 132.333007812 562 139 559 145 553 c 2
 311 385 l 1
 478 554 l 2
 483.333007812 559.333007812 489.333007812 562 496 562 c 0
 502.666992188 562 508.333007812 559.666992188 513 555 c 0
 517.666992188 550.333007812 520 544.666992188 520 538 c 0
 520 531.333007812 517.333007812 525.333007812 512 520 c 2
EndSplineSet
EndChar

